<svg id="Layer_1" data-name="Layer 1" xmlns="http://www.w3.org/2000/svg" viewBox="0 0 108 72"><defs><style>.cls-1,.cls-3{opacity:0.35;}.cls-2,.cls-3{fill:#fff;}</style></defs><title>Artboard 17</title><g class="cls-1"><path class="cls-2" d="M30.67,28.59a.51.51,0,0,1-.5-.47.49.49,0,0,1,.47-.52l5-.33a.5.5,0,0,1,.07,1l-5.06.32Z"/><path class="cls-2" d="M36.28,24.7a.39.39,0,0,1-.18,0l-4.72-1.84a.49.49,0,0,1-.28-.64.5.5,0,0,1,.64-.28l4.72,1.84a.5.5,0,0,1,.28.64A.49.49,0,0,1,36.28,24.7Z"/><path class="cls-2" d="M38.29,21.7a.51.51,0,0,1-.36-.15l-3.5-3.67a.5.5,0,0,1,.72-.68l3.49,3.66a.49.49,0,0,1,0,.7A.47.47,0,0,1,38.29,21.7Z"/><path class="cls-2" d="M41.37,19.83a.51.51,0,0,1-.47-.33l-1.62-4.8a.5.5,0,0,1,.31-.63.49.49,0,0,1,.63.31l1.62,4.8a.5.5,0,0,1-.31.63A.41.41,0,0,1,41.37,19.83Z"/><path class="cls-2" d="M45,19.45h-.05a.49.49,0,0,1-.44-.54l.56-5a.51.51,0,0,1,.54-.44A.5.5,0,0,1,46,14l-.56,5A.5.5,0,0,1,45,19.45Z"/></g><path class="cls-2" d="M72.89,50.17,58.12,31.86c0-.26,0-.52,0-.78a10,10,0,0,0-2.88-7s0,0,0,0A10,10,0,1,0,41.49,38.53l.06,0a9.92,9.92,0,0,0,6.6,2.51c.31,0,.62,0,.92-.05l2.78,2.22a5.79,5.79,0,0,1,.71-.69l-2.17-1.75a10,10,0,0,0,7.53-7.62L69.46,47.49l-4.74,4.74a10.18,10.18,0,0,1,1,2.16l1.61,1.29a1.38,1.38,0,0,0,.9.32,1.44,1.44,0,0,0,1-.42l3.52-3.47A1.44,1.44,0,0,0,72.89,50.17ZM48.15,40.1a9,9,0,0,1-5.29-1.73,23.21,23.21,0,0,0,5.92-3,17.75,17.75,0,0,0,3.49-3.49.5.5,0,1,0-.79-.6,16.54,16.54,0,0,1-3.29,3.29A22.52,22.52,0,0,1,42,37.62,9,9,0,1,1,54.35,24.55a12.58,12.58,0,0,1-.77,2.55,15.48,15.48,0,0,1-.85,1.82.49.49,0,0,0,.19.67.55.55,0,0,0,.24.07.49.49,0,0,0,.43-.26,17,17,0,0,0,.91-1.92,15.61,15.61,0,0,0,.67-2.05,9,9,0,0,1-7,14.67ZM72.09,51.4l-3.53,3.48a.45.45,0,0,1-.6,0l-2.51-2,4.63-4.64,2,2.53A.46.46,0,0,1,72.09,51.4Z"/><path class="cls-3" d="M58.8,50.48a4,4,0,1,0-4.62,0c-3.37.86-5.34,3.64-5.34,7.86a.55.55,0,0,0,.54.55H63.59a.55.55,0,0,0,.55-.55C64.14,54.12,62.17,51.34,58.8,50.48Zm-5.19-3.21a2.88,2.88,0,1,1,2.88,2.87A2.88,2.88,0,0,1,53.61,47.27ZM49.94,57.79c.13-2.66,1.22-6.52,6.55-6.52s6.42,4.2,6.54,6.52Z"/></svg>