<?xml version="1.0" encoding="UTF-8"?>
<svg width="1410px" height="513px" viewBox="0 0 1410 513" version="1.1" xmlns="http://www.w3.org/2000/svg" xmlns:xlink="http://www.w3.org/1999/xlink">
    <!-- Generator: Sketch 53 (72520) - https://sketchapp.com -->
    <title>pattern/header/3</title>
    <desc>Created with Sketch.</desc>
    <g id="Page-1" stroke="none" stroke-width="1" fill="none" fill-rule="evenodd">
        <g id="patterns" transform="translate(-3988.000000, -2601.000000)">
            <g id="Header-assets" transform="translate(547.000000, 2355.000000)">
                <g id="pattern/header/3" transform="translate(3441.000000, 246.000000)">
                    <g id="Asset-13">
                        <rect id="Rectangle-path" fill="#1E283C" fill-rule="nonzero" x="0" y="0" width="1409.6694" height="513"></rect>
                        <path d="M613.78,513.001 L607.9309,513.001 L607.9309,512.999 L607.9309,467.6777 C607.916294,455.086528 597.712073,444.883381 585.1209,444.8701 L542.6128,444.8701 C526.791881,444.851252 513.971533,432.02992 513.9539,416.209 L513.9539,373.7007 C513.939294,361.109528 503.735073,350.906381 491.1439,350.8931 L448.6339,350.8931 C432.812942,350.874252 419.992578,338.052859 419.975,322.2319 L419.975,279.7236 C419.960394,267.132428 409.756173,256.929281 397.165,256.916 L354.6543,256.916 C338.833381,256.897152 326.013033,244.07582 325.9954,228.2549 L325.9954,185.7422 C325.980794,173.151028 315.776573,162.947881 303.1854,162.9346 L260.6754,162.9346 C244.855187,162.914815 232.036001,150.093615 232.0187,134.2734 L232.0187,91.7651 C232.004094,79.1739283 221.799873,68.9707808 209.2087,68.9575 L166.6987,68.9575 C150.877781,68.9386525 138.057433,56.1173201 138.0398,40.2964 L138.0398,0 L143.8889,0 L143.8889,40.2964 C143.903451,52.8875945 154.107704,63.0907742 166.6989,63.104 L209.2089,63.104 C225.029819,63.1228475 237.850167,75.9441799 237.8678,91.7651 L237.8678,134.2734 C237.882073,146.863789 248.085011,157.066772 260.6754,157.0811 L303.1854,157.0811 C319.006358,157.099892 331.826767,169.921241 331.8444,185.7422 L331.8444,228.2549 C331.858951,240.846095 342.063204,251.049274 354.6544,251.0625 L397.1649,251.0625 C412.985819,251.081348 425.806167,263.90268 425.8238,279.7236 L425.8238,322.2319 C425.838351,334.823111 436.042588,345.026319 448.6338,345.0396 L491.1438,345.0396 C506.964781,345.058337 519.785222,357.879718 519.8028,373.7007 L519.8028,416.209 C519.817351,428.800195 530.021604,439.003374 542.6128,439.0166 L585.1211,439.0166 C600.942019,439.035448 613.762367,451.85678 613.78,467.6777 L613.78,513.001 L613.78,513.001 Z M519.8027,513.001 L519.8027,467.6777 C519.785067,451.856741 506.964658,439.035392 491.1437,439.0166 L448.6337,439.0166 C436.042527,439.003319 425.838306,428.800172 425.8237,416.209 L425.8237,373.7007 C425.805902,357.879913 412.985586,345.058792 397.1648,345.04 L354.6543,345.04 C342.063088,345.026719 331.858851,334.823511 331.8443,322.2323 L331.8443,279.7236 C331.826667,263.902641 319.006258,251.081292 303.1853,251.0625 L260.6753,251.0625 C248.08495,251.048172 237.882028,240.84525 237.8677,228.2549 L237.8677,185.7422 C237.850067,169.92128 225.029719,157.099948 209.2088,157.0811 L166.6988,157.0811 C154.107588,157.067819 143.903351,146.864611 143.8888,134.2734 L143.8888,91.7651 C143.871167,75.9441409 131.050758,63.1227924 115.2298,63.104 L72.7198,63.104 C60.1286268,63.0907192 49.9244056,52.8875717 49.9098,40.2964 L49.9098,0 L44.06,0 L44.06,40.2964 C44.0776332,56.1173591 56.8980423,68.9387076 72.719,68.9575 L115.229,68.9575 C127.820173,68.9707808 138.024394,79.1739283 138.039,91.7651 L138.039,134.2734 C138.056578,150.094359 150.876942,162.915752 166.6979,162.9346 L209.2079,162.9346 C221.799096,162.947826 232.003349,173.151005 232.0179,185.7422 L232.0179,228.2549 C232.035256,244.075232 244.85467,256.896436 260.675,256.916 L303.185,256.916 C315.776173,256.929281 325.980394,267.132428 325.995,279.7236 L325.995,322.2319 C326.012578,338.052859 338.832942,350.874252 354.6539,350.8931 L397.1644,350.8931 C409.755596,350.906326 419.959849,361.109505 419.9744,373.7007 L419.9744,416.209 C419.992088,432.029959 432.812542,444.851263 448.6335,444.87 L491.1435,444.87 C503.734673,444.883281 513.938894,455.086428 513.9535,467.6776 L513.9535,512.999 L513.9535,513.001 L519.8027,513.001 L519.8027,513.001 Z M707.7591,513.001 L707.759,467.6777 C707.741367,451.856741 694.920958,439.035392 679.1,439.0166 L636.59,439.0166 C623.998827,439.003319 613.794606,428.800172 613.78,416.209 L613.78,373.7007 C613.762202,357.879913 600.941886,345.058792 585.1211,345.04 L542.6128,345.04 C530.021588,345.026719 519.817351,334.823511 519.8028,322.2323 L519.8028,279.7236 C519.785167,263.902641 506.964758,251.081292 491.1438,251.0625 L448.6338,251.0625 C436.042627,251.049219 425.838406,240.846072 425.8238,228.2549 L425.8238,185.7422 C425.806167,169.92128 412.985819,157.099948 397.1649,157.0811 L354.6543,157.0811 C342.063088,157.067819 331.858851,146.864611 331.8443,134.2734 L331.8443,91.7651 C331.826667,75.9441409 319.006258,63.1227924 303.1853,63.104 L260.6753,63.104 C248.08495,63.0896719 237.882028,52.88675 237.8677,40.2964 L237.8677,0 L232.0186,0 L232.0186,40.2964 C232.035955,56.1164595 244.854944,68.9375501 260.675,68.9575 L303.185,68.9575 C315.776173,68.9707808 325.980394,79.1739283 325.995,91.7651 L325.995,134.2734 C326.012578,150.094359 338.832942,162.915752 354.6539,162.9346 L397.1644,162.9346 C409.755596,162.947826 419.959849,173.151005 419.9744,185.7422 L419.9744,228.2549 C419.992033,244.07582 432.812381,256.897152 448.6333,256.916 L491.1433,256.916 C503.734473,256.929281 513.938694,267.132428 513.9533,279.7236 L513.9533,322.2319 C513.970878,338.052859 526.791242,350.874252 542.6122,350.8931 L585.1205,350.8931 C597.711696,350.906326 607.915949,361.109505 607.9305,373.7007 L607.9305,416.209 C607.948189,432.030115 620.768886,444.851483 636.59,444.87 L679.1,444.87 C691.691173,444.883281 701.895394,455.086428 701.91,467.6776 L701.91,513.001 L707.7591,513.001 L707.7591,513.001 Z M425.8239,513.001 L425.8234,467.6777 C425.805767,451.85678 412.985419,439.035448 397.1645,439.0166 L354.6543,439.0166 C342.063104,439.003374 331.858851,428.800195 331.8443,416.209 L331.8443,373.7007 C331.826722,357.879718 319.006281,345.058337 303.1853,345.0396 L260.6753,345.0396 C248.084911,345.025272 237.881973,334.822289 237.8677,322.2319 L237.8677,279.7236 C237.850067,263.90268 225.029719,251.081348 209.2088,251.0625 L166.6988,251.0625 C154.107604,251.049274 143.903351,240.846095 143.8888,228.2549 L143.8888,185.7422 C143.871167,169.921241 131.050758,157.099892 115.2298,157.0811 L72.7198,157.0811 C60.1285879,157.067819 49.9243505,146.864611 49.9098,134.2734 L49.9098,91.7651 C49.8921659,75.943829 37.0712702,63.1223517 21.25,63.104 L0,63.104 L0,68.9575 L21.25,68.9575 C33.8411732,68.9707808 44.0453944,79.1739283 44.06,91.7651 L44.06,134.2734 C44.0775781,150.094398 56.8980033,162.915807 72.719,162.9346 L115.229,162.9346 C127.820173,162.947881 138.024394,173.151028 138.039,185.7422 L138.039,228.2549 C138.056633,244.075859 150.877042,256.897208 166.698,256.916 L209.208,256.916 C221.799173,256.929281 232.003394,267.132428 232.018,279.7236 L232.018,322.2319 C232.035301,338.052115 244.854487,350.873315 260.6747,350.8931 L303.1847,350.8931 C315.775873,350.906381 325.980094,361.109528 325.9947,373.7007 L325.9947,416.209 C326.012389,432.030154 338.833147,444.851538 354.6543,444.87 L397.1648,444.87 C409.755973,444.883281 419.960194,455.086428 419.9748,467.6776 L419.9748,513.001 L425.8239,513.001 L425.8239,513.001 Z M895.7158,513.001 L895.7155,467.6777 C895.698914,451.857204 882.879293,439.035615 867.0588,439.0166 L824.5483,439.0166 C811.957127,439.003319 801.752906,428.800172 801.7383,416.209 L801.7383,373.7007 C801.720502,357.880147 788.900551,345.059123 773.08,345.04 L730.57,345.04 C717.978788,345.026719 707.774551,334.823511 707.76,322.2323 L707.76,279.7236 C707.742366,263.902251 694.921348,251.080741 679.1,251.0625 L636.59,251.0625 C623.998827,251.049219 613.794606,240.846072 613.78,228.2549 L613.78,185.7422 C613.762367,169.92128 600.942019,157.099948 585.1211,157.0811 L542.6128,157.0811 C530.021588,157.067819 519.817351,146.864611 519.8028,134.2734 L519.8028,91.7651 C519.785167,75.9442189 506.96488,63.1229026 491.144,63.104 L448.634,63.104 C436.042827,63.0907192 425.838606,52.8875717 425.824,40.2964 L425.824,0 L419.9749,0 L419.9749,40.2964 C419.992533,56.1173201 432.812881,68.9386525 448.6338,68.9575 L491.1438,68.9575 C503.734973,68.9707808 513.939194,79.1739283 513.9538,91.7651 L513.9538,134.2734 C513.971378,150.094359 526.791742,162.915752 542.6127,162.9346 L585.121,162.9346 C597.712196,162.947826 607.916449,173.151005 607.931,185.7422 L607.931,228.2549 C607.948633,244.075859 620.769042,256.897208 636.59,256.916 L679.1,256.916 C691.691173,256.929281 701.895394,267.132428 701.91,279.7236 L701.91,322.2319 C701.927578,338.052859 714.747942,350.874252 730.5689,350.8931 L773.0789,350.8931 C785.670096,350.906326 795.874349,361.109505 795.8889,373.7007 L795.8889,416.209 C795.906589,432.030076 808.727225,444.851428 824.5483,444.87 L867.0591,444.87 C879.649404,444.884438 889.852262,455.087296 889.8667,467.6776 L889.8667,513.001 L895.7158,513.001 L895.7158,513.001 Z M801.7383,513.001 L801.7382,467.6777 C801.720568,451.857053 788.900645,439.035833 773.08,439.0166 L730.57,439.0166 C717.978804,439.003374 707.774551,428.800195 707.76,416.209 L707.76,373.7007 C707.7422,357.879484 694.921215,345.058186 679.1,345.04 L636.59,345.04 C623.998788,345.026719 613.794551,334.823511 613.78,322.2323 L613.78,279.7236 C613.762367,263.90268 600.942019,251.081348 585.1211,251.0625 L542.6128,251.0625 C530.021604,251.049274 519.817351,240.846095 519.8028,228.2549 L519.8028,185.7422 C519.785167,169.921241 506.964758,157.099892 491.1438,157.0811 L448.6338,157.0811 C436.042588,157.067819 425.838351,146.864611 425.8238,134.2734 L425.8238,91.7651 C425.806167,75.9441409 412.985758,63.1227924 397.1648,63.104 L354.6543,63.104 C342.063104,63.0907742 331.858851,52.8875945 331.8443,40.2964 L331.8443,0 L325.9952,0 L325.9952,40.2964 C326.012833,56.1173201 338.833181,68.9386525 354.6541,68.9575 L397.1646,68.9575 C409.755773,68.9707808 419.959994,79.1739283 419.9746,91.7651 L419.9746,134.2734 C419.992178,150.094359 432.812542,162.915752 448.6335,162.9346 L491.1435,162.9346 C503.734673,162.947881 513.938894,173.151028 513.9535,185.7422 L513.9535,228.2549 C513.971133,244.07582 526.791481,256.897152 542.6124,256.916 L585.1207,256.916 C597.711873,256.929281 607.916094,267.132428 607.9307,279.7236 L607.9307,322.2319 C607.948278,338.053015 620.768886,350.874473 636.59,350.8931 L679.1,350.8931 C691.691173,350.906381 701.895394,361.109528 701.91,373.7007 L701.91,416.209 C701.927688,432.029959 714.748142,444.851263 730.5691,444.87 L773.0791,444.87 C785.670273,444.883281 795.874494,455.086428 795.8891,467.6776 L795.8891,512.999 L795.8891,513.001 L801.7383,513.001 L801.7383,513.001 Z M143.8882,512.999 L143.8882,467.6777 C143.870567,451.856741 131.050158,439.035392 115.2292,439.0166 L72.7192,439.0166 C60.1280268,439.003319 49.9238056,428.800172 49.9092,416.209 L49.9092,373.7007 C49.8914012,357.879796 37.0709027,345.058627 21.25,345.04 L0,345.04 L0,350.8935 L21.25,350.8935 C33.841196,350.906726 44.0454494,361.109905 44.06,373.7011 L44.06,416.209 C44.0776881,432.029842 56.8979594,444.851097 72.7188,444.87 L115.2288,444.87 C127.819973,444.883281 138.024194,455.086428 138.0388,467.6776 L138.0388,513.001 L143.8882,513.001 L143.8882,512.999 Z M49.9089,512.999 L49.9089,467.6777 C49.8912669,451.85678 37.0709187,439.035448 21.25,439.0166 L0,439.0166 L0,444.87 L21.25,444.87 C33.8411732,444.883281 44.0453944,455.086428 44.06,467.6776 L44.06,512.999 L44.06,513.001 L49.9091,513.001 L49.9089,512.999 Z M331.8445,513.001 L331.8445,467.6777 C331.826867,451.856741 319.006458,439.035392 303.1855,439.0166 L260.6755,439.0166 C248.08515,439.002272 237.882228,428.79935 237.8679,416.209 L237.8679,373.7007 C237.850101,357.879718 225.029481,345.058517 209.2085,345.04 L166.6985,345.04 C154.107288,345.026719 143.903051,334.823511 143.8885,322.2323 L143.8885,279.7236 C143.870867,263.902641 131.050458,251.081292 115.2295,251.0625 L72.7195,251.0625 C60.1283268,251.049219 49.9241056,240.846072 49.9095,228.2549 L49.9095,185.7422 C49.8918663,169.921046 37.071153,157.099617 21.25,157.0811 L0,157.0811 L0,162.9346 L21.25,162.9346 C33.841196,162.947826 44.0454494,173.151005 44.06,185.7422 L44.06,228.2549 C44.0776332,244.075859 56.8980423,256.897208 72.719,256.916 L115.229,256.916 C127.820173,256.929281 138.024394,267.132428 138.039,279.7236 L138.039,322.2319 C138.056578,338.052859 150.876942,350.874252 166.6979,350.8931 L209.2079,350.8931 C221.799096,350.906326 232.003349,361.109505 232.0179,373.7007 L232.0179,416.209 C232.035311,432.029293 244.854709,444.850436 260.675,444.87 L303.185,444.87 C315.776173,444.883281 325.980394,455.086428 325.995,467.6776 L325.995,512.999 L325.995,513.001 L331.8445,513.001 L331.8445,513.001 Z M237.8674,513.001 L237.8674,467.6777 C237.849767,451.85678 225.029419,439.035448 209.2085,439.0166 L166.6985,439.0166 C154.107304,439.003374 143.903051,428.800195 143.8885,416.209 L143.8885,373.7007 C143.870922,357.879718 131.050481,345.058337 115.2295,345.0396 L72.7195,345.0396 C60.1282879,345.026319 49.9240505,334.823111 49.9095,322.2319 L49.9095,279.7236 C49.8918663,263.902446 37.071153,251.081017 21.25,251.0625 L0,251.0625 L0,256.916 L21.25,256.916 C33.8411732,256.929281 44.0453944,267.132428 44.06,279.7236 L44.06,322.2319 C44.0775781,338.052898 56.8980033,350.874307 72.719,350.8931 L115.229,350.8931 C127.820173,350.906381 138.024394,361.109528 138.039,373.7007 L138.039,416.209 C138.056688,432.02992 150.877081,444.851208 166.698,444.87 L209.208,444.87 C221.799173,444.883281 232.003394,455.086428 232.018,467.6776 L232.018,512.999 L232.018,513.001 L237.8674,513.001 L237.8674,513.001 Z M1171.8042,0 L1171.8042,40.2964 C1171.82161,56.1165536 1184.64075,68.9376604 1200.4609,68.9575 L1242.9717,68.9575 C1255.56292,68.9706708 1265.7672,79.1738827 1265.7817,91.7651 L1265.7817,134.2734 C1265.79939,150.094391 1278.61981,162.915753 1294.4408,162.9346 L1336.9508,162.9346 C1349.54195,162.947936 1359.74614,173.151051 1359.7608,185.7422 L1359.7608,228.2549 C1359.77832,244.075788 1372.59861,256.897152 1388.4195,256.916 L1409.6695,256.916 L1409.6695,251.0625 L1388.4195,251.0625 C1375.82826,251.049384 1365.62394,240.84614 1365.6095,228.2549 L1365.6095,185.7422 C1365.59176,169.921209 1352.77129,157.099892 1336.9503,157.0811 L1294.4403,157.0811 C1281.84913,157.067709 1271.64496,146.864565 1271.6303,134.2734 L1271.6303,91.7651 C1271.61278,75.9442123 1258.79249,63.1228477 1242.9716,63.104 L1200.4608,63.104 C1187.8705,63.0895619 1177.66764,52.8867043 1177.6532,40.2964 L1177.6532,0 L1171.8042,0 Z M989.6952,513.001 L989.6948,467.6777 C989.677332,451.856789 976.857009,439.035393 961.0361,439.0166 L918.5254,439.0166 C905.934181,439.003429 895.729896,428.800217 895.7154,416.209 L895.7154,373.7007 C895.697769,357.880859 882.878939,345.060059 867.0591,345.04 L824.5483,345.04 C811.957088,345.026719 801.752851,334.823511 801.7383,322.2323 L801.7383,279.7236 C801.720668,263.902914 788.900684,251.081678 773.08,251.0625 L730.57,251.0625 C717.978804,251.049274 707.774551,240.846095 707.76,228.2549 L707.76,185.7422 C707.742366,169.920851 694.921348,157.099341 679.1,157.0811 L636.59,157.0811 C623.998788,157.067819 613.794551,146.864611 613.78,134.2734 L613.78,91.7651 C613.762367,75.9441799 600.942019,63.1228475 585.1211,63.104 L542.6128,63.104 C530.021604,63.0907742 519.817351,52.8875945 519.8028,40.2964 L519.8028,0 L513.9537,0 L513.9537,40.2964 C513.971333,56.1173201 526.791681,68.9386525 542.6126,68.9575 L585.1209,68.9575 C597.712073,68.9707808 607.916294,79.1739283 607.9309,91.7651 L607.9309,134.2734 C607.948478,150.094437 620.768964,162.915863 636.59,162.9346 L679.1,162.9346 C691.691173,162.947881 701.895394,173.151028 701.91,185.7422 L701.91,228.2549 C701.927633,244.07582 714.747981,256.897152 730.5689,256.916 L773.0789,256.916 C785.670073,256.929281 795.874294,267.132428 795.8889,279.7236 L795.8889,322.2319 C795.906478,338.052859 808.726842,350.874252 824.5478,350.8931 L867.0586,350.8931 C879.648927,350.907483 889.851817,361.110373 889.8662,373.7007 L889.8662,416.209 C889.883779,432.030044 902.704358,444.851428 918.5254,444.87 L961.0361,444.87 C973.627319,444.883171 983.831604,455.086383 983.8461,467.6776 L983.8461,513.001 L989.6952,513.001 L989.6952,513.001 Z M1359.7607,0 L1359.7607,40.2964 C1359.77822,56.1172877 1372.59851,68.9386523 1388.4194,68.9575 L1409.6694,68.9575 L1409.6694,63.104 L1388.4194,63.104 C1375.82816,63.0908842 1365.62384,52.8876401 1365.6094,40.2964 L1365.6094,0 L1359.7607,0 Z M1077.8252,0 L1077.8252,40.2964 C1077.84272,56.1172877 1090.66301,68.9386523 1106.4839,68.9575 L1148.9946,68.9575 C1161.58582,68.9706708 1171.7901,79.1738827 1171.8046,91.7651 L1171.8046,134.2734 C1171.82201,150.09357 1184.64113,162.914705 1200.4613,162.9346 L1242.9721,162.9346 C1255.56332,162.947771 1265.7676,173.150983 1265.7821,185.7422 L1265.7821,228.2549 C1265.79979,244.075407 1278.61949,256.896547 1294.44,256.916 L1336.95,256.916 C1349.54113,256.929391 1359.74528,267.132474 1359.76,279.7236 L1359.76,322.2319 C1359.77747,338.052827 1372.59777,350.874252 1388.4187,350.8931 L1409.6687,350.8931 L1409.6687,345.04 L1388.4187,345.04 C1375.82744,345.026829 1365.62314,334.823556 1365.6087,322.2323 L1365.6087,279.7236 C1365.59096,263.902609 1352.77049,251.081292 1336.9495,251.0625 L1294.4395,251.0625 C1281.84837,251.049109 1271.64422,240.846026 1271.6295,228.2549 L1271.6295,185.7422 C1271.61198,169.921312 1258.79169,157.099948 1242.9708,157.0811 L1200.46,157.0811 C1187.86966,157.066662 1177.66678,146.863743 1177.6524,134.2734 L1177.6524,91.7651 C1177.63493,75.9441895 1164.81461,63.1227928 1148.9937,63.104 L1106.483,63.104 C1093.89178,63.0908292 1083.6875,52.8876173 1083.673,40.2964 L1083.673,0 L1077.8252,0 Z M1388.4194,439.0166 C1375.82816,439.003484 1365.62384,428.80024 1365.6094,416.209 L1365.6094,373.7007 C1365.59166,357.879709 1352.77119,345.058392 1336.9502,345.0396 L1294.4402,345.0396 C1281.84903,345.026209 1271.64486,334.823065 1271.6302,322.2319 L1271.6302,279.7236 C1271.61268,263.902712 1258.79239,251.081348 1242.9715,251.0625 L1200.4607,251.0625 C1187.8704,251.048062 1177.66754,240.845204 1177.6531,228.2549 L1177.6531,185.7422 C1177.63563,169.921289 1164.81531,157.099893 1148.9944,157.0811 L1106.4837,157.0811 C1093.89244,157.067929 1083.68814,146.864656 1083.6737,134.2734 L1083.6737,91.7651 C1083.65596,75.9441086 1070.83549,63.1227922 1055.0145,63.104 L1012.5045,63.104 C999.913372,63.0906093 989.709216,52.8875261 989.6945,40.2964 L989.6945,0 L983.8454,0 L983.8454,40.2964 C983.863143,56.1173914 996.68361,68.9387078 1012.5046,68.9575 L1055.0146,68.9575 C1067.60573,68.9708907 1077.80988,79.1739739 1077.8246,91.7651 L1077.8246,134.2734 C1077.84207,150.094327 1090.66237,162.915752 1106.4833,162.9346 L1148.994,162.9346 C1161.58524,162.947716 1171.78956,173.15096 1171.804,185.7422 L1171.804,228.2549 C1171.82141,244.075054 1184.64055,256.89616 1200.4607,256.916 L1242.9715,256.916 C1255.56272,256.929171 1265.767,267.132383 1265.7815,279.7236 L1265.7815,322.2319 C1265.79919,338.052891 1278.61961,350.874253 1294.4406,350.8931 L1336.9506,350.8931 C1349.54175,350.906436 1359.74594,361.109551 1359.7606,373.7007 L1359.7606,416.209 C1359.77812,432.029888 1372.59841,444.851252 1388.4193,444.8701 L1409.6693,444.8701 L1409.6693,439.0166 L1388.4194,439.0166 Z M1265.7813,0 L1265.7813,40.2964 C1265.79899,56.1172193 1278.61918,68.9384873 1294.44,68.9575 L1336.95,68.9575 C1349.54113,68.9708907 1359.74528,79.1739739 1359.76,91.7651 L1359.76,134.2734 C1359.77747,150.094327 1372.59777,162.915752 1388.4187,162.9346 L1409.6687,162.9346 L1409.6687,157.0811 L1388.4187,157.0811 C1375.82744,157.067929 1365.62314,146.864656 1365.6087,134.2734 L1365.6087,91.7651 C1365.59096,75.9441086 1352.77049,63.1227922 1336.9495,63.104 L1294.4395,63.104 C1281.84837,63.0906093 1271.64422,52.8875261 1271.6295,40.2964 L1271.6295,0 L1265.7813,0 Z M1083.6743,513.001 L1083.6743,467.6777 C1083.65656,451.856709 1070.83609,439.035392 1055.0151,439.0166 L1012.5051,439.0166 C999.913972,439.003209 989.709816,428.800126 989.6951,416.209 L989.6951,373.7007 C989.677411,357.879829 976.85697,345.058627 961.0361,345.04 L918.5254,345.04 C905.934142,345.026829 895.729841,334.823556 895.7154,322.2323 L895.7154,279.7236 C895.698814,263.903104 882.879193,251.081515 867.0587,251.0625 L824.5483,251.0625 C811.957127,251.049219 801.752906,240.846072 801.7383,228.2549 L801.7383,185.7422 C801.720668,169.921514 788.900684,157.100278 773.08,157.0811 L730.57,157.0811 C717.978788,157.067819 707.774551,146.864611 707.76,134.2734 L707.76,91.7651 C707.742366,75.943751 694.921348,63.1222415 679.1,63.104 L636.59,63.104 C623.998827,63.0907192 613.794606,52.8875717 613.78,40.2964 L613.78,0 L607.9309,0 L607.9309,40.2964 C607.948533,56.1173981 620.769003,68.9387627 636.59,68.9575 L679.1,68.9575 C691.691173,68.9707808 701.895394,79.1739283 701.91,91.7651 L701.91,134.2734 C701.927578,150.094359 714.747942,162.915752 730.5689,162.9346 L773.0789,162.9346 C785.670096,162.947826 795.874349,173.151005 795.8889,185.7422 L795.8889,228.2549 C795.906533,244.07582 808.726881,256.897152 824.5478,256.916 L867.0586,256.916 C879.648904,256.930438 889.851762,267.133296 889.8662,279.7236 L889.8662,322.2319 C889.883668,338.052827 902.703975,350.874252 918.5249,350.8931 L961.0356,350.8931 C973.626842,350.906216 983.831159,361.10946 983.8456,373.7007 L983.8456,416.209 C983.863343,432.029991 996.68381,444.851308 1012.5048,444.8701 L1055.0148,444.8701 C1067.60593,444.883491 1077.81008,455.086574 1077.8248,467.6777 L1077.8248,513.001 L1083.6743,513.001 L1083.6743,513.001 Z M1365.6099,513.001 L1365.6099,467.6777 C1365.59216,451.856709 1352.77169,439.035392 1336.9507,439.0166 L1294.4407,439.0166 C1281.84957,439.003209 1271.64542,428.800126 1271.6307,416.209 L1271.6307,373.7007 C1271.61323,357.879789 1258.79291,345.058393 1242.972,345.0396 L1200.4612,345.0396 C1187.87086,345.025162 1177.66798,334.822243 1177.6536,322.2319 L1177.6536,279.7236 C1177.63613,263.902689 1164.81581,251.081293 1148.9949,251.0625 L1106.4842,251.0625 C1093.89298,251.049329 1083.6887,240.846117 1083.6742,228.2549 L1083.6742,185.7422 C1083.65646,169.921209 1070.83599,157.099892 1055.015,157.0811 L1012.505,157.0811 C999.913833,157.067709 989.709661,146.864565 989.695,134.2734 L989.695,91.7651 C989.677532,75.9441115 976.857087,63.1226826 961.0361,63.104 L918.5254,63.104 C905.934181,63.0908292 895.729896,52.8876173 895.7154,40.2964 L895.7154,0 L889.8663,0 L889.8663,40.2964 C889.883823,56.1172877 902.704114,68.9386523 918.525,68.9575 L961.0357,68.9575 C973.626919,68.9706708 983.831204,79.1738827 983.8457,91.7651 L983.8457,134.2734 C983.863388,150.09443 996.683871,162.915808 1012.5049,162.9346 L1055.0149,162.9346 C1067.60605,162.947936 1077.81024,173.151051 1077.8249,185.7422 L1077.8249,228.2549 C1077.84242,244.075788 1090.66271,256.897152 1106.4836,256.916 L1148.9943,256.916 C1161.58552,256.929171 1171.7898,267.132383 1171.8043,279.7236 L1171.8043,322.2319 C1171.82171,338.05207 1184.64083,350.873205 1200.461,350.8931 L1242.9718,350.8931 C1255.56302,350.906271 1265.7673,361.109483 1265.7818,373.7007 L1265.7818,416.209 C1265.79954,432.029585 1278.61942,444.850712 1294.44,444.87 L1336.95,444.87 C1349.54113,444.883391 1359.74528,455.086474 1359.76,467.6776 L1359.76,513.001 L1365.6099,513.001 L1365.6099,513.001 Z M1177.6533,513.001 L1177.6533,467.6777 C1177.63583,451.856789 1164.81551,439.035393 1148.9946,439.0166 L1106.4839,439.0166 C1093.89268,439.003429 1083.6884,428.800217 1083.6739,416.209 L1083.6739,373.7007 C1083.65621,357.879686 1070.83571,345.058337 1055.0147,345.0396 L1012.5047,345.0396 C999.913533,345.026209 989.709361,334.823065 989.6947,322.2319 L989.6947,279.7236 C989.677232,263.902689 976.856909,251.081293 961.036,251.0625 L918.5254,251.0625 C905.934181,251.049329 895.729896,240.846117 895.7154,228.2549 L895.7154,185.7422 C895.697989,169.922046 882.878851,157.10094 867.0587,157.0811 L824.5483,157.0811 C811.957088,157.067819 801.752851,146.864611 801.7383,134.2734 L801.7383,91.7651 C801.720668,75.9444138 788.900684,63.1231781 773.08,63.104 L730.57,63.104 C717.978804,63.0907742 707.774551,52.8875945 707.76,40.2964 L707.76,0 L701.91,0 L701.91,40.2964 C701.927633,56.1173201 714.747981,68.9386525 730.5689,68.9575 L773.0789,68.9575 C785.670073,68.9707808 795.874294,79.1739283 795.8889,91.7651 L795.8889,134.2734 C795.906478,150.094359 808.726842,162.915752 824.5478,162.9346 L867.0586,162.9346 C879.648927,162.948983 889.851817,173.151873 889.8662,185.7422 L889.8662,228.2549 C889.883723,244.075788 902.704014,256.897152 918.5249,256.916 L961.0356,256.916 C973.626819,256.929171 983.831104,267.132383 983.8456,279.7236 L983.8456,322.2319 C983.863288,338.05293 996.683771,350.874308 1012.5048,350.8931 L1055.0148,350.8931 C1067.60595,350.906436 1077.81014,361.109551 1077.8248,373.7007 L1077.8248,416.209 C1077.84232,432.029888 1090.66261,444.851252 1106.4835,444.8701 L1148.9942,444.8701 C1161.58542,444.883271 1171.7897,455.086483 1171.8042,467.6777 L1171.8042,513.001 L1177.6533,513.001 L1177.6533,513.001 Z M1271.6311,513.001 L1271.6304,467.6777 C1271.61288,451.856812 1258.79259,439.035448 1242.9717,439.0166 L1200.4609,439.0166 C1187.8706,439.002162 1177.66774,428.799304 1177.6533,416.209 L1177.6533,373.7007 C1177.63583,357.879789 1164.81551,345.058393 1148.9946,345.0396 L1106.4839,345.0396 C1093.89264,345.026429 1083.68834,334.823156 1083.6739,322.2319 L1083.6739,279.7236 C1083.65616,263.902609 1070.83569,251.081292 1055.0147,251.0625 L1012.5047,251.0625 C999.913572,251.049109 989.709416,240.846026 989.6947,228.2549 L989.6947,185.7422 C989.677232,169.921289 976.856909,157.099893 961.036,157.0811 L918.5254,157.0811 C905.934142,157.067929 895.729841,146.864656 895.7154,134.2734 L895.7154,91.7651 C895.698815,75.9447602 882.879437,63.1232352 867.0591,63.104 L824.5483,63.104 C811.957127,63.0907192 801.752906,52.8875717 801.7383,40.2964 L801.7383,0 L795.8892,0 L795.8892,40.2964 C795.906833,56.1173201 808.727181,68.9386525 824.5481,68.9575 L867.0589,68.9575 C879.649204,68.9719381 889.852062,79.1747957 889.8665,91.7651 L889.8665,134.2734 C889.883968,150.094327 902.704275,162.915752 918.5252,162.9346 L961.0359,162.9346 C973.627142,162.947716 983.831459,173.15096 983.8459,185.7422 L983.8459,228.2549 C983.863643,244.075891 996.68411,256.897208 1012.5051,256.916 L1055.0151,256.916 C1067.60623,256.929391 1077.81038,267.132474 1077.8251,279.7236 L1077.8251,322.2319 C1077.84257,338.052827 1090.66287,350.874252 1106.4838,350.8931 L1148.9945,350.8931 C1161.58574,350.906216 1171.79006,361.10946 1171.8045,373.7007 L1171.8045,416.209 C1171.82191,432.029154 1184.64105,444.85026 1200.4612,444.8701 L1242.972,444.8701 C1255.56322,444.883271 1265.7675,455.086483 1265.782,467.6777 L1265.782,513.001 L1271.6311,513.001 L1271.6311,513.001 Z" id="Shape" fill="#156289" fill-rule="nonzero"></path>
                    </g>
                </g>
            </g>
        </g>
    </g>
</svg>