<?xml version="1.0" encoding="utf-8"?>
<!-- Generator: Adobe Illustrator 23.0.4, SVG Export Plug-In . SVG Version: 6.00 Build 0)  -->
<svg version="1.1" id="Layer_1" xmlns="http://www.w3.org/2000/svg" xmlns:xlink="http://www.w3.org/1999/xlink" x="0px" y="0px"
	 width="706px" height="314.6px" viewBox="0 0 706 314.6" style="enable-background:new 0 0 706 314.6;" xml:space="preserve">
<style type="text/css">
	.st0{fill:#F7F7F8;}
	.st1{filter:url(#Adobe_OpacityMaskFilter);}
	.st2{fill-rule:evenodd;clip-rule:evenodd;fill:#FFFFFF;}
	.st3{mask:url(#mask-2_1_);}
	.st4{fill:#B92027;}
	.st5{fill:#231F20;}
</style>
<g id="Mask">
	<rect x="-6" class="st0" width="712" height="314.6"/>
</g>
<title>adam-jaime-119551 copy</title>
<desc>Created with Sketch.</desc>
<g id="Page-1">
	<g id="Cannabis---Overview3" transform="translate(0.000000, -4013.000000)">
		<g id="adam-jaime-119551-copy" transform="translate(-6.000000, 4013.000000)">
			<defs>
				<filter id="Adobe_OpacityMaskFilter" filterUnits="userSpaceOnUse" x="187.1" y="120.7" width="337.8" height="76.6">
					<feColorMatrix  type="matrix" values="1 0 0 0 0  0 1 0 0 0  0 0 1 0 0  0 0 0 1 0"/>
				</filter>
			</defs>
			<mask maskUnits="userSpaceOnUse" x="187.1" y="120.7" width="337.8" height="76.6" id="mask-2_1_">
				<g class="st1">
					<rect id="path-1_1_" x="62.7" y="-5.4" class="st2" width="586.7" height="342.8"/>
				</g>
			</mask>
			<g id="womenincannabis" class="st3">
				<g transform="translate(151.000000, 153.000000)">
					<path id="Path" class="st4" d="M36.1,17v-0.6c0-16.3,11.6-27.4,27.1-27.4c13.1,0,23,6.3,24.3,19.4H74.8
						c-0.1-2.8-1.4-5.5-3.5-7.4c-2.2-1.9-5.1-2.8-7.9-2.5c-8.5,0-14.2,6.6-14.2,17.7V17c0,11.1,5.2,17.5,14.2,17.5
						c3.1,0.3,6.1-0.6,8.5-2.5s3.8-4.7,4-7.7H88c-1.4,13.3-11.1,20.1-24.5,20.1C45.6,44.3,36.1,33.5,36.1,17z"/>
					<path id="Shape" class="st4" d="M92.1,32.5c0-9.2,8.5-12.7,20.8-12.7h4.5v-1.6c0-4.7-1.4-7.2-6.5-7.2c-1.7-0.2-3.4,0.3-4.7,1.3
						c-1.3,1.1-2.1,2.6-2.2,4.3H93.6c0.7-9.3,8.2-13.5,18-13.5s16.8,3.9,16.8,14.7v25.7h-10.8v-4.8c-2.8,3.8-7.4,5.9-12.1,5.6
						C98.2,44.3,92.1,40.8,92.1,32.5z M117.5,29.7v-3.4h-4.3c-6.4,0-10.2,1.4-10.2,5.6c0,2.8,1.8,4.8,5.7,4.8
						C113.7,36.7,117.4,34,117.5,29.7L117.5,29.7z"/>
					<path class="st4" d="M137.4,4h11v6.3c2.5-4.7,7.5-7.5,12.8-7.1c7.8,0,13.3,4.7,13.3,15.2v25.1h-11V20c0-5.4-2.1-7.9-6.9-7.9
						c-2.3-0.1-4.5,0.7-6.1,2.4c-1.6,1.7-2.4,4-2.1,6.2v22.7h-11V4z"/>
					<path class="st4" d="M184.4,4h10.9v6.3c2.5-4.7,7.5-7.5,12.8-7.1c7.8,0,13.3,4.7,13.3,15.2v25.1h-10.9V20c0-5.4-2.1-7.9-7-7.9
						c-2.3-0.1-4.5,0.7-6.1,2.4c-1.6,1.7-2.4,4-2.1,6.2v22.7h-10.9V4z"/>
					<path class="st4" d="M228.1,32.5c0-9.2,8.5-12.7,20.8-12.7h4.5v-1.6c0-4.7-1.4-7.2-6.5-7.2c-1.7-0.2-3.4,0.3-4.7,1.3
						c-1.3,1.1-2.1,2.6-2.2,4.3h-10.5c0.7-9.3,8.2-13.5,18-13.5c9.8,0,16.7,3.9,16.7,14.7v25.7h-10.8v-4.8
						c-2.7,3.8-7.3,5.9-12.1,5.6C234.2,44.3,228.1,40.8,228.1,32.5z M253.4,29.7v-3.4h-4.1c-6.4,0-10.2,1.4-10.2,5.6
						c0,2.8,1.8,4.8,5.7,4.8C249.7,36.7,253.4,34,253.4,29.7L253.4,29.7z"/>
					<path class="st4" d="M284.2,37.2v6.3h-10.8v-57.7h10.8V10c2.6-4.4,7.4-7.2,12.5-7.1c9.6,0,17.1,7.2,17.1,20.3v0.6
						c0,13.1-7.3,20.5-17.1,20.5C291.6,44.6,286.7,41.8,284.2,37.2L284.2,37.2z M302.8,23.9v-0.6c0-8-3.9-12-9.4-12
						c-5.5,0-9.6,4-9.6,12v0.6c0,8,3.7,11.8,9.6,11.8S302.8,31.7,302.8,23.9z"/>
					<path class="st4" d="M321.2-6.9c-0.1-2.5,1.4-4.9,3.7-5.9c2.3-1,5-0.5,6.8,1.2s2.4,4.5,1.4,6.8s-3.2,3.9-5.8,3.8
						c-1.6,0.1-3.2-0.6-4.3-1.7C321.8-3.8,321.2-5.3,321.2-6.9L321.2-6.9z M322,4.2h10.8v39.3h-10.7L322,4.2z"/>
					<path class="st4" d="M339.3,31.1h10.4c0.5,3.5,2.3,5.6,7.1,5.6c4.3,0,6.3-1.6,6.3-4.3c0-2.7-2.4-3.8-8.2-4.7
						c-10.7-1.6-14.9-4.6-14.9-12.3c0-8.2,7.7-12.3,16-12.3c9,0,15.7,3.2,16.7,12.2h-10.3c-0.2-1.5-0.9-2.8-2.1-3.7
						c-1.2-0.9-2.7-1.3-4.2-1c-3.6,0-5.7,1.7-5.7,4.1s1.9,3.5,7.8,4.3c10.1,1.4,15.7,3.9,15.7,12.4c0,8.5-6.3,13-17,13
						C346.2,44.3,339.7,39.6,339.3,31.1z"/>
					<polygon class="st5" points="91.3,-32.3 93.6,-32.3 97.3,-17.7 101.7,-32.3 103.3,-32.3 107.6,-17.6 111.4,-32.3 113.5,-32.3 
						108.7,-14.2 106.7,-14.2 102.5,-28.5 98.2,-14.2 96.2,-14.2 					"/>
					<path class="st5" d="M120.1-23v-0.2c-0.1-2.4,0.8-4.8,2.4-6.5c1.6-1.7,3.9-2.7,6.3-2.6c2.3,0,4.6,0.9,6.2,2.6
						c1.6,1.7,2.5,4.1,2.4,6.4v0.2c0,3.2-1.6,6.1-4.3,7.6c-2.7,1.6-6,1.6-8.6,0C121.8-16.9,120.1-19.9,120.1-23L120.1-23z M135.2-23
						v-0.3c0.2-1.9-0.4-3.7-1.6-5.1s-2.9-2.2-4.8-2.2c-1.9,0-3.6,0.8-4.9,2.2c-1.2,1.4-1.8,3.3-1.6,5.2v0.2c-0.1,1.9,0.5,3.7,1.7,5
						c1.2,1.4,3,2.2,4.8,2.2c1.8,0,3.6-0.8,4.8-2.2S135.4-21.2,135.2-23L135.2-23z"/>
					<polygon class="st5" points="147.3,-32.3 150.4,-32.3 156,-18.2 161.6,-32.3 164.6,-32.3 164.6,-14.2 162.4,-14.2 162.4,-29.5 
						156.3,-14.2 155.6,-14.2 149.4,-29.5 149.4,-14.2 147.3,-14.2 					"/>
					<polygon class="st5" points="173.7,-32.3 184.7,-32.3 184.7,-30.5 176.1,-30.5 176.1,-24.3 183.1,-24.3 183.1,-22.6 
						176.1,-22.6 176.1,-16 185.2,-16 185.2,-14.2 173.7,-14.2 					"/>
					<polygon class="st5" points="192.6,-32.3 195.5,-32.3 204.5,-17.4 204.5,-32.3 206.6,-32.3 206.6,-14.2 204.1,-14.2 
						194.9,-29.8 194.9,-14.2 192.7,-14.2 					"/>
					<polygon class="st5" points="230,-32.3 231.9,-32.3 231.9,-14.2 230,-14.2 					"/>
					<polygon class="st5" points="242.1,-32.3 244.9,-32.3 254,-17.4 254,-32.3 256.1,-32.3 256.1,-14.2 253.5,-14.2 244.2,-29.8 
						244.2,-14.2 242.1,-14.2 					"/>
				</g>
			</g>
		</g>
	</g>
</g>
</svg>
