<?xml version="1.0" encoding="utf-8"?>
<!-- Generator: Adobe Illustrator 24.2.1, SVG Export Plug-In . SVG Version: 6.00 Build 0)  -->
<svg version="1.1" id="Layer_1" xmlns="http://www.w3.org/2000/svg" xmlns:xlink="http://www.w3.org/1999/xlink" x="0px" y="0px"
	 viewBox="0 0 480 480" style="enable-background:new 0 0 480 480;" xml:space="preserve">
<style type="text/css">
	.st0{fill:#E5007D;}
</style>
<g id="T_Mobile_US">
	<g>
		<path class="st0" d="M328.7,213.7c1.8,0,3.1-0.5,4.4-1.8s1.8-2.6,1.8-4.4s-0.5-3.1-1.8-4.4s-2.6-1.8-4.1-1.8
			c-1.8,0-3.1,0.5-4.4,1.8s-1.8,2.6-1.8,4.4s0.5,3.1,1.8,4.4C325.3,213,326.8,213.7,328.7,213.7z"/>
		<path class="st0" d="M175.2,257.5l-16.3-55.6h-22v3.6h2.3c1.8,0,3.1,0.3,3.9,0.5c1.6,0.5,2.6,1.6,2.8,3.4c0.3,0.8,0.3,2.6,0.3,5.2
			v43.7c0,4.1-0.3,7-0.3,8.8c-0.3,2.3-1.3,3.9-2.3,4.9c-1.3,1.3-2.8,1.8-4.7,1.8h-1.8v3.6h23.3v-3.6h-1.6c-4.1,0-6.7-2.1-7.8-6
			c-0.3-1.6-0.5-4.7-0.5-9.6v-49.4l19.9,68.6h3.4l19.9-68.6v53.8c0,2.6,0,4.7-0.3,6.2c-0.3,1.3-0.5,2.3-1.3,3.1
			c-1.3,1-3.1,1.8-6,1.8h-1v3.6h28.5v-3.6h-1.6c-3.9,0-6.2-1-7-3.4c-0.5-1.3-0.5-3.9-0.5-7.5v-46.3c0-2.6,0-4.7,0.3-6.2
			c0.3-1.3,0.5-2.3,1.3-3.1c1-1.3,3.1-1.8,6-1.8h1.6v-3.6h-22L175.2,257.5z"/>
		<path class="st0" d="M237.8,223.6c-7,0-12.9,2.8-17.1,8.3c-3.9,4.9-5.7,11.4-5.7,19.4c0,8,1.8,14.5,5.7,19.4
			c4.4,5.7,10.1,8.3,16.8,8.3c7.2,0,13.2-2.8,17.6-8.3c3.9-4.9,5.7-11.4,5.7-19.4c0-8-1.8-14.2-5.7-19.2
			C250.5,226.4,244.8,223.6,237.8,223.6z M237.8,275.3c-4.1,0-7-1.8-8.8-5.7c-2.1-4.4-3.1-10.6-3.1-18.9c0-10.1,1.6-16.8,4.9-20.2
			c2.1-2.1,4.4-3.1,7-3.1c1.6,0,3.1,0.5,4.7,1.3c2.1,1.3,3.6,3.1,4.7,5.4c1.8,3.9,2.6,9.6,2.6,17.1
			C249.7,267.3,245.8,275.3,237.8,275.3z"/>
		<path class="st0" d="M293.2,224.1c-3.6,0-7,1-9.8,3.4c-1.6,1.3-2.8,2.8-3.6,5.2V201l-16.3,0.8v3.4h0.8c2.1,0,3.6,0.5,4.4,1.3
			c1,1,1.3,3.6,1.3,7.5v51.8c0,4.7-0.3,7.8-0.5,9.3c0,0.3-0.3,0.8-0.5,1.8h3.9c0.8-1.3,1.6-2.6,2.3-3.6c0.8-1.3,1.6-1.8,2.3-1.8
			c0.5,0,1.3,0.3,1.8,0.8c1.8,1.6,3.1,2.6,3.9,2.8c2.8,1.8,6,2.6,9.3,2.6c6.2,0,11.1-2.6,15-7.8c4.1-5.4,6.2-12.4,6.2-20.4
			c0-8.5-2.3-15.3-6.7-20.4C303,226.2,298.6,224.1,293.2,224.1z M291.1,274.6c-2.1,0-3.6-0.5-5.2-1.6c-1.8-1.3-3.4-2.8-4.4-5.2
			c-1.8-4.1-2.8-9.8-2.8-17.1c0-9.6,2.1-16,6-19.7c2.1-1.8,4.4-2.8,7-2.8c3.6,0,6.2,1.8,8,5.4c1.8,3.9,2.8,9.6,2.8,16.8
			C302.2,266.5,298.6,274.6,291.1,274.6z"/>
		<path class="st0" d="M407.3,269.9c-2.6,3.1-6,4.7-9.8,4.7c-4.9,0-8.5-2.6-10.6-7.5c-1.6-3.6-2.3-8.8-2.3-16.3h31.1
			c-0.3-6.2-1.3-11.4-3.4-15.5c-3.9-7.8-9.8-11.6-17.6-11.6c-5.2,0-9.8,2.1-13.5,6.2c-4.7,5.2-7,12.4-7,21c0,9.6,2.3,16.8,7,22
			c3.9,4.1,8.5,6,14.5,6c8,0,14.5-4.7,19.2-14.2l-3.4-1.8C410.2,265.8,408.6,268.1,407.3,269.9z M385.9,237.3
			c1.8-6.5,4.9-9.8,9.3-9.8c3.9,0,6.7,2.6,8.5,8c1,3.1,1.6,6.7,1.6,11.4h-20.4C384.8,243.2,385.1,239.9,385.9,237.3z"/>
		<path class="st0" d="M364.4,272.5c-1-1-1.3-3.6-1.3-7.8V201l-16.8,0.8v3.4h1.3c2.1,0,3.6,0.5,4.4,1.3c1,1,1.3,3.6,1.3,7.8v50.2
			c0,4.1-0.5,6.7-1.3,7.8c-0.8,1-2.3,1.3-4.4,1.3h-1.8v3.4h24.8v-3.4h-1.8C366.7,273.8,365.1,273.5,364.4,272.5z"/>
		<path class="st0" d="M335.6,272.5c-1-1-1.3-3.6-1.3-7.8v-40.1l-16.6,0.8v3.6h1.3c2.1,0,3.6,0.5,4.4,1.3c1,1,1.3,3.6,1.3,7.8V265
			c0,4.1-0.5,6.7-1.3,7.8s-2.3,1.3-4.4,1.3h-1.8v3.4h24.8V274h-1.8C338,273.8,336.4,273.5,335.6,272.5z"/>
		<polygon class="st0" points="100.4,236.5 100.4,251.8 115.6,251.8 115.6,236.5 107.9,236.5 		"/>
		<path class="st0" d="M54.5,201.8l-0.8,26.7l3.9,0.8c0.8-7.8,2.8-13.7,6.2-17.6c3.6-3.9,8.5-6,14.8-6.2v55.6c0,4.9-0.8,8-2.1,9.6
			c-1.3,1.3-3.4,2.1-6.2,2.3c-0.8,0-2.3,0-4.4,0v4.1h37.3V273c-2.1,0-3.6,0-4.4,0c-2.8-0.3-4.9-1-6.2-2.3c-1.3-1.6-2.1-4.7-2.1-9.6
			v-55.6c6.2,0.3,11.1,2.3,14.8,6.2c3.4,3.9,5.4,9.6,6.2,17.6l3.9-0.8l-0.5-26.7H54.5z"/>
		<polygon class="st0" points="69,236.5 61.5,236.5 53.8,236.5 53.8,251.8 69,251.8 		"/>
	</g>
	<g>
		<path class="st0" d="M417.2,229.8v-5.2h-1.6v-0.8h4.1v0.8h-1.6v5.2H417.2z M420.5,229.8v-6h1.3l1.6,4.9l1.6-4.9h1.3v6h-0.8v-4.7
			l-1.3,4.7h-1l-1.8-4.7v4.7H420.5z"/>
	</g>
</g>
</svg>
