<svg xmlns="http://www.w3.org/2000/svg" viewBox="0 0 72 72"><defs><style>.cls-1{fill:#fff;}</style></defs><g id="icon"><path class="cls-1" d="M33.88,45.52A5.86,5.86,0,0,1,28,39.67V26.73a5.84,5.84,0,1,1,11.68,0V39.67A5.86,5.86,0,0,1,33.88,45.52Zm0-23.47a4.69,4.69,0,0,0-4.68,4.68V39.67a4.68,4.68,0,1,0,9.36,0V26.73A4.69,4.69,0,0,0,33.88,22.05Z"/><path class="cls-1" d="M33.88,48.83a8.7,8.7,0,0,1-8.69-8.69V36.83a.58.58,0,1,1,1.16,0v3.31a7.53,7.53,0,1,0,15.06,0V36.53a.58.58,0,0,1,1.16,0v3.61A8.7,8.7,0,0,1,33.88,48.83Z"/><path class="cls-1" d="M33.88,53.31a.58.58,0,0,1-.58-.58V48.25a.58.58,0,0,1,1.16,0v4.48A.58.58,0,0,1,33.88,53.31Z"/><path class="cls-1" d="M37.48,53.31h-7.2a.58.58,0,1,1,0-1.16h7.2a.58.58,0,0,1,0,1.16Z"/><path class="cls-1" d="M46.43,24.47h-.07l-3.26-.6a.36.36,0,0,1-.3-.43.37.37,0,0,1,.43-.31l3.27.6a.38.38,0,0,1,.3.44A.38.38,0,0,1,46.43,24.47Z"/><path class="cls-1" d="M43.08,21.5a.36.36,0,0,1-.36-.28.36.36,0,0,1,.26-.45l3.22-.84a.38.38,0,1,1,.19.73l-3.22.83Z"/><path class="cls-1" d="M42,19.4a.38.38,0,0,1-.29-.14.37.37,0,0,1,0-.52l2.56-2.12a.38.38,0,1,1,.48.58l-2.56,2.11A.36.36,0,0,1,42,19.4Z"/><path class="cls-1" d="M40.14,18a.42.42,0,0,1-.16,0,.37.37,0,0,1-.18-.5l1.42-3a.38.38,0,0,1,.5-.18.37.37,0,0,1,.18.5l-1.42,3A.38.38,0,0,1,40.14,18Z"/><path class="cls-1" d="M37.83,17.42h0a.37.37,0,0,1-.37-.38l0-3.32a.37.37,0,0,1,.38-.37.38.38,0,0,1,.37.37l0,3.33A.38.38,0,0,1,37.83,17.42Z"/></g></svg>