<?xml version="1.0" encoding="utf-8"?>
<!-- Generator: Adobe Illustrator 23.0.4, SVG Export Plug-In . SVG Version: 6.00 Build 0)  -->
<svg version="1.1" id="Layer_1" xmlns="http://www.w3.org/2000/svg" xmlns:xlink="http://www.w3.org/1999/xlink" x="0px" y="0px"
	 viewBox="0 0 280 250" style="enable-background:new 0 0 280 250;" xml:space="preserve">
<style type="text/css">
	.st0{fill:#231F20;}
	.st1{fill:#B72027;}
</style>
<g>
	<g>
		<path class="st0" d="M42.4,112.1h8.1c5.3,0,8.7,2.2,8.7,6.8v0.1c0,3.4-2,5.2-4.6,6l5.9,9.6H55l-5.4-8.7h-2.2v8.7h-5.1V112.1z
			 M50.3,122.4c2.5,0,3.8-1.1,3.8-3.2v-0.1c0-2.3-1.4-3.1-3.8-3.1h-2.9v6.5H50.3z"/>
		<path class="st0" d="M62.8,113.4c0-1.4,1.1-2.5,2.6-2.5c1.5,0,2.6,1.1,2.6,2.5c0,1.4-1.1,2.5-2.6,2.5
			C63.9,115.9,62.8,114.8,62.8,113.4z M63.1,118.1h4.5v16.5h-4.5V118.1z"/>
		<path class="st0" d="M70.6,129.4h4.2c0.2,1.5,0.9,2.3,2.9,2.3c1.8,0,2.6-0.7,2.6-1.8s-1-1.6-3.3-2c-4.4-0.7-6.1-1.9-6.1-5.1
			c0-3.4,3.1-5.1,6.5-5.1c3.6,0,6.4,1.3,6.8,5.1H80c-0.3-1.4-1-2-2.6-2c-1.5,0-2.3,0.7-2.3,1.7c0,1,0.8,1.4,3.2,1.8
			c4.1,0.6,6.4,1.6,6.4,5.2c0,3.6-2.6,5.4-6.9,5.4C73.3,134.9,70.7,133,70.6,129.4z"/>
		<path class="st0" d="M86.5,126.6v-0.3c0-5.2,3.7-8.6,8.5-8.6c4.2,0,8,2.5,8,8.4v1.3H91.1c0.1,2.7,1.6,4.3,4.1,4.3
			c2.1,0,3.1-0.9,3.4-2.3h4.3c-0.5,3.6-3.4,5.5-7.9,5.5C90.1,134.9,86.5,131.8,86.5,126.6z M98.6,124.6c-0.2-2.5-1.4-3.7-3.6-3.7
			c-2,0-3.4,1.4-3.8,3.7H98.6z"/>
		<path class="st1" d="M110.7,116h-6.1v-4h17.3v4h-6.1v18.5h-5.1V116z"/>
		<path class="st1" d="M121.2,126.5v-0.3c0-5.2,3.7-8.5,8.7-8.5c4.9,0,8.7,3.3,8.7,8.4v0.3c0,5.2-3.7,8.5-8.7,8.5
			C125,134.9,121.2,131.6,121.2,126.5z M133.9,126.5v-0.2c0-3.1-1.5-5-4-5c-2.5,0-4,1.8-4,5v0.3c0,3.1,1.4,5,4,5
			C132.5,131.5,133.9,129.6,133.9,126.5z"/>
		<path class="st1" d="M140.6,134.9h4.5c0.3,1.4,1.3,2.4,3.6,2.4c2.8,0,4.2-1.4,4.2-4v-2.5c-0.9,1.6-2.9,3.1-5.3,3.1
			c-4,0-7.2-3-7.2-7.9v-0.2c0-4.7,3.1-8,7.2-8c2.7,0,4.3,1.2,5.2,2.8v-2.5h4.5v15.2c0,4.9-3.3,7.4-8.7,7.4
			C143.5,140.6,141.1,138.3,140.6,134.9z M153.1,125.9v-0.2c0-2.8-1.5-4.5-4-4.5c-2.5,0-4,1.8-4,4.5v0.3c0,2.7,1.6,4.4,3.9,4.4
			C151.4,130.4,153.1,128.7,153.1,125.9z"/>
		<path class="st1" d="M160.4,126.6v-0.3c0-5.2,3.7-8.6,8.5-8.6c4.2,0,8,2.5,8,8.4v1.3h-11.9c0.1,2.7,1.6,4.3,4.1,4.3
			c2.1,0,3.1-0.9,3.4-2.3h4.3c-0.5,3.6-3.4,5.5-7.9,5.5C164,134.9,160.4,131.8,160.4,126.6z M172.5,124.6c-0.2-2.5-1.4-3.7-3.6-3.7
			c-2,0-3.4,1.4-3.8,3.7H172.5z"/>
		<path class="st1" d="M180.5,129.7v-8.3h-2.1v-3.2h2.1v-3.6h4.5v3.6h3.5v3.2H185v7.9c0,1.3,0.7,2,1.8,2c0.7,0,1.2-0.1,1.7-0.3v3.5
			c-0.6,0.2-1.5,0.4-2.8,0.4C182.4,134.9,180.5,133.1,180.5,129.7z"/>
		<path class="st1" d="M191.6,110.7h4.6v10.1c0.8-1.6,2.6-3,5.3-3c3.2,0,5.5,2,5.5,6.4v10.5h-4.6v-9.8c0-2.2-0.9-3.3-2.9-3.3
			c-2,0-3.4,1.2-3.4,3.6v9.5h-4.6V110.7z"/>
		<path class="st1" d="M209.8,126.6v-0.3c0-5.2,3.7-8.6,8.5-8.6c4.2,0,8,2.5,8,8.4v1.3h-11.9c0.1,2.7,1.6,4.3,4.1,4.3
			c2.1,0,3.1-0.9,3.4-2.3h4.3c-0.5,3.6-3.4,5.5-7.9,5.5C213.5,134.9,209.8,131.8,209.8,126.6z M221.9,124.6
			c-0.2-2.5-1.4-3.7-3.6-3.7c-2,0-3.4,1.4-3.8,3.7H221.9z"/>
		<path class="st1" d="M229.2,118.1h4.6v3.1c1-2.2,2.6-3.4,5.3-3.4v4.2c-3.4,0-5.3,1.1-5.3,4.2v8.2h-4.6V118.1z"/>
	</g>
</g>
</svg>
