<?xml version="1.0" encoding="utf-8"?>
<!-- Generator: Adobe Illustrator 24.1.0, SVG Export Plug-In . SVG Version: 6.00 Build 0)  -->
<svg version="1.1" id="Layer_1" xmlns="http://www.w3.org/2000/svg" xmlns:xlink="http://www.w3.org/1999/xlink" x="0px" y="0px"
	 viewBox="0 0 280 250" style="enable-background:new 0 0 280 250;" xml:space="preserve">
<style type="text/css">
	.st0{fill:#221F1F;}
	.st1{fill:#B92028;}
</style>
<g>
	<path class="st0" d="M41.8,93.1h1.9l3.1,12.3l3.6-12.3h1.3l3.6,12.4l3.1-12.4h1.7l-4,15.3h-1.7L51,96.3l-3.5,12.1h-1.7L41.8,93.1z"
		/>
	<path class="st0" d="M66,100.8v-0.2c-0.2-4.1,3-7.6,7.1-7.7c0.2,0,0.3,0,0.5,0c4-0.1,7.4,3.2,7.5,7.2c0,0.2,0,0.3,0,0.5v0.2
		c0,4.1-3.4,7.5-7.5,7.5C69.3,108.3,66,104.9,66,100.8C66,100.8,66,100.8,66,100.8L66,100.8z M79,100.8v-0.2c0.3-3.1-1.9-5.9-5-6.2
		c-0.2,0-0.3,0-0.5,0c-3.1,0-5.6,2.4-5.6,5.5c0,0.3,0,0.5,0,0.8v0.2c-0.2,3.1,2.1,5.9,5.3,6.1c0.1,0,0.2,0,0.3,0
		c3.1,0,5.5-2.5,5.5-5.6C79.1,101.1,79.1,100.9,79,100.8L79,100.8z"/>
	<path class="st0" d="M88.5,93.1h2.6l4.7,11.9l4.6-11.9h2.6v15.3h-1.9V95.5L96,108.3h-0.6l-5.2-12.9v12.9h-1.7V93.1z"/>
	<path class="st0" d="M111.2,93.1h9v1.5h-7v5.3h5.7v1.4h-5.7v5.6h7.4v1.5h-9.4L111.2,93.1z"/>
	<path class="st0" d="M127.7,93.1h2.3l7.4,12.6V93.1h1.8v15.3h-2.1l-7.6-13.1v13.1h-1.8L127.7,93.1z"/>
	<path class="st0" d="M157.8,93.1h1.9v15.3h-1.9V93.1z"/>
	<path class="st0" d="M168,93.1h2.3l7.4,12.6V93.1h1.8v15.3h-2.1l-7.6-13.1v13.1H168V93.1z"/>
	<g>
		<path class="st1" d="M42.5,116.1h10.1v18.2h17.9v-18.2h10.1v44.6H70.6v-18.4H52.6v18.4H42.5V116.1z"/>
		<path class="st1" d="M87.8,144.8v-0.5c0-10.3,7.3-17,16.8-17c8.4,0,15.9,4.9,15.9,16.6v2.5H97c0.2,5.4,3.2,8.6,8.1,8.6
			c4.2,0,6.2-1.8,6.8-4.6h8.6c-1.1,7.1-6.7,11-15.6,11C95,161.4,87.8,155.3,87.8,144.8z M111.7,140.9c-0.3-4.9-2.8-7.3-7.1-7.3
			c-4.1,0-6.8,2.7-7.5,7.3H111.7z"/>
		<path class="st1" d="M125.3,151.7c0-7.6,7-10.5,17-10.5h3.7v-1.3c0-3.9-1.2-6-5.3-6c-3.6,0-5.2,1.8-5.6,4.6h-8.6
			c0.6-7.7,6.7-11.2,14.7-11.2s13.7,3.2,13.7,12.1v21.3H146v-3.9c-1.9,2.6-4.7,4.6-9.9,4.6C130.3,161.4,125.3,158.6,125.3,151.7z
			 M145.9,149.3v-2.7h-3.5c-5.2,0-8.3,1.1-8.3,4.6c0,2.4,1.4,3.9,4.7,3.9C142.9,155.1,145.9,152.9,145.9,149.3z"/>
		<path class="st1" d="M163.5,113.3h9v47.5h-9V113.3z"/>
		<path class="st1" d="M182.7,151.1v-16.5h-4.2v-6.4h4.2V121h9v7.1h6.9v6.4h-6.9v15.7c0,2.6,1.3,3.9,3.6,3.9c1.4,0,2.4-0.2,3.4-0.6
			v7c-1.2,0.4-3.1,0.9-5.5,0.9C186.4,161.4,182.7,157.9,182.7,151.1z"/>
		<path class="st1" d="M205.5,113.3h9.1v20c1.6-3.2,5.2-5.9,10.6-5.9c6.4,0,11,3.9,11,12.6v20.8h-9.1v-19.5c0-4.4-1.7-6.6-5.7-6.6
			c-3.9,0-6.8,2.4-6.8,7.2v18.9h-9.1V113.3z"/>
	</g>
</g>
</svg>
