<?xml version="1.0" encoding="UTF-8"?>
<svg width="280px" height="250px" viewBox="0 0 280 250" version="1.1" xmlns="http://www.w3.org/2000/svg" xmlns:xlink="http://www.w3.org/1999/xlink">
    <!-- Generator: Sketch 53 (72520) - https://sketchapp.com -->
    <title>fintech</title>
    <desc>Created with Sketch.</desc>
    <defs>
        <polygon id="path-1" points="0.0760233918 0.19204878 154.650585 0.19204878 154.650585 62 0.0760233918 62"></polygon>
    </defs>
    <g id="fintech" stroke="none" stroke-width="1" fill="none" fill-rule="evenodd">
        <g id="Group-2" fill-rule="nonzero">
            <rect id="Rectangle-5" x="0" y="0" width="280" height="250"></rect>
        </g>
        <g></g>
        <g transform="translate(49.000000, 94.000000)">
            <g>
                <g>
                    <polygon id="Fill-1" fill="#000000" points="0 2.48 0 38.44 8.08415724 38.44 8.08415724 24.5087263 19.8106436 24.5087263 19.8106436 18.3726237 8.08415724 18.3726237 8.08415724 8.86754996 22.9047619 8.86754996 22.9047619 2.48"></polygon>
                    <g id="Group-14" transform="translate(27.238095, 0.000000)">
                        <mask id="mask-2" fill="white">
                            <use xlink:href="#path-1"></use>
                        </mask>
                        <g id="Clip-3"></g>
                        <path d="M0.627494663,38.3967512 L7.84820848,38.3967512 L7.84820848,12.1057268 L0.627494663,12.1057268 L0.627494663,38.3967512 Z M0.0760233918,4.56531707 C0.0760233918,2.30307317 1.88097559,0.593990244 4.18762183,0.593990244 C6.54434698,0.593990244 8.34960085,2.30307317 8.34960085,4.56531707 C8.34960085,6.82725854 6.54434698,8.5366439 4.18762183,8.5366439 C1.88097559,8.5366439 0.0760233918,6.82725854 0.0760233918,4.56531707 L0.0760233918,4.56531707 Z" id="Fill-2" fill="#000000" mask="url(#mask-2)"></path>
                        <path d="M14.5163047,12.1058176 L21.7870974,12.1058176 L21.7870974,16.2782663 C23.0909589,13.6639834 25.9487747,11.5024517 30.311371,11.5024517 C35.4764365,11.5024517 39.1367214,14.6193883 39.1367214,21.656842 L39.1367214,38.396842 L31.8659287,38.396842 L31.8659287,22.7126566 C31.8659287,19.1435737 30.4619094,17.4341883 27.2529379,17.4341883 C24.1438225,17.4341883 21.7870974,19.3446956 21.7870974,23.2153102 L21.7870974,38.396842 L14.5163047,38.396842 L14.5163047,12.1058176 Z" id="Fill-4" fill="#000000" mask="url(#mask-2)"></path>
                        <polygon id="Fill-5" fill="#B82026" mask="url(#mask-2)" points="53.0246867 8.78784976 43.3470899 8.78784976 43.3470899 2.45417171 70.8757031 2.45417171 70.8757031 8.78784976 61.1981064 8.78784976 61.1981064 38.3966302 53.0246867 38.3966302"></polygon>
                        <path d="M89.1264457,22.4109132 C88.8757496,18.4395863 86.8701801,16.5296839 83.4102107,16.5296839 C80.1508586,16.5296839 77.9446719,18.6909132 77.3928989,22.4109132 L89.1264457,22.4109132 Z M69.9214889,25.5780546 L69.9214889,25.1761132 C69.9214889,16.8814205 75.7882623,11.5025424 83.4102107,11.5025424 C90.1796111,11.5025424 96.1969229,15.4738693 96.1969229,24.874279 L96.1969229,26.8848937 L77.2924394,26.8848937 C77.4930567,31.2584644 79.8500835,33.7717327 83.8114453,33.7717327 C87.1709552,33.7717327 88.8256707,32.3139766 89.2769841,30.10224 L96.146844,30.10224 C95.2939942,35.7826498 90.7811612,38.9497912 83.610828,38.9497912 C75.6881045,38.9497912 69.9214889,33.9728546 69.9214889,25.5780546 L69.9214889,25.5780546 Z" id="Fill-6" fill="#B82026" mask="url(#mask-2)"></path>
                        <path d="M99.3540959,25.5779639 L99.3540959,25.1760224 C99.3540959,16.6802078 105.421487,11.5024517 112.892897,11.5024517 C118.960287,11.5024517 124.576365,14.1669395 125.228295,21.7073493 L118.358435,21.7073493 C117.857043,18.64092 116.002012,17.2330663 113.043435,17.2330663 C109.282691,17.2330663 106.775729,20.0484712 106.775729,25.0753102 L106.775729,25.4775541 C106.775729,30.75572 109.132152,33.4704127 113.193973,33.4704127 C116.10217,33.4704127 118.458895,31.7610273 118.809749,28.3933688 L125.378834,28.3933688 C124.977599,34.6266371 120.464766,38.9497005 112.842818,38.9497005 C105.17079,38.9497005 99.3540959,34.1741883 99.3540959,25.5779639" id="Fill-7" fill="#B82026" mask="url(#mask-2)"></path>
                        <path d="M129.940177,0.191988293 L137.21097,0.191988293 L137.21097,16.2781151 C138.514831,13.6641346 141.372647,11.5023005 145.735243,11.5023005 C150.900309,11.5023005 154.560594,14.6192371 154.560594,21.6569932 L154.560594,38.3966907 L147.289801,38.3966907 L147.289801,22.7128078 C147.289801,19.1434224 145.885782,17.4343395 142.67681,17.4343395 C139.567695,17.4343395 137.21097,19.3445444 137.21097,23.2154615 L137.21097,38.3966907 L129.940177,38.3966907 L129.940177,0.191988293 Z" id="Fill-8" fill="#B82026" mask="url(#mask-2)"></path>
                        <polygon id="Fill-9" fill="#000000" mask="url(#mask-2)" points="72.1516291 49.8681727 73.6392138 49.8681727 76.0629119 59.5368459 78.8706488 49.8681727 79.9072218 49.8681727 82.7152604 59.5701141 85.1721433 49.8681727 86.5260837 49.8681727 83.41727 61.8489922 82.079922 61.8489922 79.3723429 52.3817434 76.5811984 61.8489922 75.2607445 61.8489922"></polygon>
                        <path d="M102.821668,55.8838663 L102.821668,55.7498859 C102.821668,53.0684615 101.250517,50.8902956 98.4925578,50.8902956 C95.7180057,50.8902956 94.1133691,52.934481 94.1133691,55.7831541 L94.1133691,55.9171346 C94.1133691,58.8160127 96.0356748,60.793359 98.5260443,60.793359 C101.183545,60.793359 102.821668,58.7827444 102.821668,55.8838663 M92.6088903,55.9340712 L92.6088903,55.8000907 C92.6088903,52.398559 94.9828112,49.7171346 98.4925578,49.7171346 C102.002606,49.7171346 104.325845,52.398559 104.325845,55.7662176 L104.325845,55.9005005 C104.325845,59.285398 102.002606,62.0000907 98.5260443,62.0000907 C94.9991019,62.0000907 92.6088903,59.285398 92.6088903,55.9340712" id="Fill-10" fill="#000000" mask="url(#mask-2)"></path>
                        <polygon id="Fill-11" fill="#000000" mask="url(#mask-2)" points="111.762773 49.8681727 113.785236 49.8681727 117.479008 59.201441 121.056029 49.8681727 123.0619 49.8681727 123.0619 61.8489922 121.607802 61.8489922 121.607802 51.7617434 117.64644 61.8489922 117.195127 61.8489922 113.100121 51.7617434 113.100121 61.8489922 111.762773 61.8489922"></polygon>
                        <polygon id="Fill-12" fill="#000000" mask="url(#mask-2)" points="131.083545 49.8681727 138.053562 49.8681727 138.053562 51.0579678 132.537643 51.0579678 132.537643 55.1297044 136.983804 55.1297044 136.983804 56.3194995 132.537643 56.3194995 132.537643 60.6594995 138.354639 60.6594995 138.354639 61.8489922 131.083545 61.8489922"></polygon>
                        <polygon id="Fill-13" fill="#000000" mask="url(#mask-2)" points="145.557704 49.8681727 147.446524 49.8681727 153.263218 59.7712361 153.263218 49.8681727 154.650645 49.8681727 154.650645 61.8489922 152.979036 61.8489922 146.945131 51.5772556 146.945131 61.8489922 145.557704 61.8489922"></polygon>
                    </g>
                </g>
            </g>
        </g>
    </g>
</svg>