<?xml version="1.0" encoding="UTF-8"?>
<svg width="1424px" height="371px" viewBox="0 0 1424 371" version="1.1" xmlns="http://www.w3.org/2000/svg" xmlns:xlink="http://www.w3.org/1999/xlink">
    <!-- Generator: Sketch 53 (72520) - https://sketchapp.com -->
    <title>pattern/page/1</title>
    <desc>Created with Sketch.</desc>
    <g id="Page-1" stroke="none" stroke-width="1" fill="none" fill-rule="evenodd">
        <g id="patterns" transform="translate(-165.000000, -3308.000000)">
            <g id="Page-assets" transform="translate(147.000000, 3042.000000)">
                <g id="pattern/page/1" transform="translate(0.000000, 256.000000)">
                    <g id="Asset-25">
                        <rect id="Rectangle-path" x="0" y="0" width="1460" height="390.3484"></rect>
                        <polygon id="Rectangle-path" fill="#E6E7E8" fill-rule="nonzero" points="705.5038 362.0171 711.3529 362.0171 711.3529 364.8779 705.5038 364.8779"></polygon>
                        <polygon id="Rectangle-path" fill="#E6E7E8" fill-rule="nonzero" points="662.5648 361.0327 668.4139 361.0327 668.4139 365.8667 662.5648 365.8667"></polygon>
                        <polygon id="Rectangle-path" fill="#E6E7E8" fill-rule="nonzero" points="619.6259 360.0439 625.475 360.0439 625.475 366.8554 619.6259 366.8554"></polygon>
                        <polygon id="Rectangle-path" fill="#E6E7E8" fill-rule="nonzero" points="576.6869 359.0596 582.536 359.0596 582.536 367.8443 576.6869 367.8443"></polygon>
                        <polygon id="Rectangle-path" fill="#E6E7E8" fill-rule="nonzero" points="533.7479 358.0708 539.597 358.0708 539.597 368.833 533.7479 368.833"></polygon>
                        <polygon id="Rectangle-path" fill="#E6E7E8" fill-rule="nonzero" points="490.809 357.0864 496.6581 357.0864 496.6581 369.8218 490.809 369.8218"></polygon>
                        <polygon id="Rectangle-path" fill="#E6E7E8" fill-rule="nonzero" points="447.87 356.0977 453.7191 356.0977 453.7191 370.8106 447.87 370.8106"></polygon>
                        <polygon id="Rectangle-path" fill="#E6E7E8" fill-rule="nonzero" points="404.931 355.1133 410.7801 355.1133 410.7801 371.7993 404.931 371.7993"></polygon>
                        <polygon id="Rectangle-path" fill="#E6E7E8" fill-rule="nonzero" points="361.9921 354.1245 367.8412 354.1245 367.8412 372.7881 361.9921 372.7881"></polygon>
                        <polygon id="Rectangle-path" fill="#E6E7E8" fill-rule="nonzero" points="319.0531 353.1401 324.9022 353.1401 324.9022 373.7768 319.0531 373.7768"></polygon>
                        <polygon id="Rectangle-path" fill="#E6E7E8" fill-rule="nonzero" points="276.1141 352.1514 281.9632 352.1514 281.9632 374.7657 276.1141 374.7657"></polygon>
                        <polygon id="Rectangle-path" fill="#E6E7E8" fill-rule="nonzero" points="233.1752 351.167 239.0243 351.167 239.0243 375.7544 233.1752 375.7544"></polygon>
                        <polygon id="Rectangle-path" fill="#E6E7E8" fill-rule="nonzero" points="190.2362 350.1782 196.0853 350.1782 196.0853 376.7431 190.2362 376.7431"></polygon>
                        <polygon id="Rectangle-path" fill="#E6E7E8" fill-rule="nonzero" points="147.2972 349.1938 153.1463 349.1938 153.1463 377.7319 147.2972 377.7319"></polygon>
                        <polygon id="Rectangle-path" fill="#E6E7E8" fill-rule="nonzero" points="104.3583 348.2051 110.2074 348.2051 110.2074 378.7207 104.3583 378.7207"></polygon>
                        <polygon id="Rectangle-path" fill="#E6E7E8" fill-rule="nonzero" points="61.4193 347.2207 67.2684 347.2207 67.2684 379.7095 61.4193 379.7095"></polygon>
                        <polygon id="Rectangle-path" fill="#E6E7E8" fill-rule="nonzero" points="18.4781 346.2319 24.3272 346.2319 24.3272 380.6982 18.4781 380.6982"></polygon>
                        <polygon id="Rectangle-path" fill="#E6E7E8" fill-rule="nonzero" points="705.5038 306.1011 711.3529 306.1011 711.3529 308.9619 705.5038 308.9619"></polygon>
                        <polygon id="Rectangle-path" fill="#E6E7E8" fill-rule="nonzero" points="662.5648 305.1123 668.4139 305.1123 668.4139 309.9507 662.5648 309.9507"></polygon>
                        <polygon id="Rectangle-path" fill="#E6E7E8" fill-rule="nonzero" points="619.6259 304.1279 625.475 304.1279 625.475 310.9394 619.6259 310.9394"></polygon>
                        <polygon id="Rectangle-path" fill="#E6E7E8" fill-rule="nonzero" points="576.6869 303.1392 582.536 303.1392 582.536 311.9283 576.6869 311.9283"></polygon>
                        <polygon id="Rectangle-path" fill="#E6E7E8" fill-rule="nonzero" points="533.7479 302.1548 539.597 302.1548 539.597 312.917 533.7479 312.917"></polygon>
                        <polygon id="Rectangle-path" fill="#E6E7E8" fill-rule="nonzero" points="490.809 301.166 496.6581 301.166 496.6581 313.9057 490.809 313.9057"></polygon>
                        <polygon id="Rectangle-path" fill="#E6E7E8" fill-rule="nonzero" points="447.87 300.1816 453.7191 300.1816 453.7191 314.8945 447.87 314.8945"></polygon>
                        <polygon id="Rectangle-path" fill="#E6E7E8" fill-rule="nonzero" points="404.931 299.1929 410.7801 299.1929 410.7801 315.8833 404.931 315.8833"></polygon>
                        <polygon id="Rectangle-path" fill="#E6E7E8" fill-rule="nonzero" points="361.9921 298.2085 367.8412 298.2085 367.8412 316.8721 361.9921 316.8721"></polygon>
                        <polygon id="Rectangle-path" fill="#E6E7E8" fill-rule="nonzero" points="319.0531 297.2197 324.9022 297.2197 324.9022 317.8608 319.0531 317.8608"></polygon>
                        <polygon id="Rectangle-path" fill="#E6E7E8" fill-rule="nonzero" points="276.1141 296.2354 281.9632 296.2354 281.9632 318.8497 276.1141 318.8497"></polygon>
                        <polygon id="Rectangle-path" fill="#E6E7E8" fill-rule="nonzero" points="233.1752 295.2466 239.0243 295.2466 239.0243 319.8384 233.1752 319.8384"></polygon>
                        <polygon id="Rectangle-path" fill="#E6E7E8" fill-rule="nonzero" points="190.2362 294.2622 196.0853 294.2622 196.0853 320.8271 190.2362 320.8271"></polygon>
                        <polygon id="Rectangle-path" fill="#E6E7E8" fill-rule="nonzero" points="147.2972 293.2734 153.1463 293.2734 153.1463 321.8159 147.2972 321.8159"></polygon>
                        <polygon id="Rectangle-path" fill="#E6E7E8" fill-rule="nonzero" points="104.3583 292.2891 110.2074 292.2891 110.2074 322.8047 104.3583 322.8047"></polygon>
                        <polygon id="Rectangle-path" fill="#E6E7E8" fill-rule="nonzero" points="61.4193 291.3003 67.2684 291.3003 67.2684 323.7935 61.4193 323.7935"></polygon>
                        <polygon id="Rectangle-path" fill="#E6E7E8" fill-rule="nonzero" points="18.4781 290.3159 24.3272 290.3159 24.3272 324.7822 18.4781 324.7822"></polygon>
                        <polygon id="Rectangle-path" fill="#E6E7E8" fill-rule="nonzero" points="705.5038 250.1807 711.3529 250.1807 711.3529 253.0415 705.5038 253.0415"></polygon>
                        <polygon id="Rectangle-path" fill="#E6E7E8" fill-rule="nonzero" points="662.5648 249.1963 668.4139 249.1963 668.4139 254.0303 662.5648 254.0303"></polygon>
                        <polygon id="Rectangle-path" fill="#E6E7E8" fill-rule="nonzero" points="619.6259 248.2075 625.475 248.2075 625.475 255.019 619.6259 255.019"></polygon>
                        <polygon id="Rectangle-path" fill="#E6E7E8" fill-rule="nonzero" points="576.6869 247.2231 582.536 247.2231 582.536 256.0078 576.6869 256.0078"></polygon>
                        <polygon id="Rectangle-path" fill="#E6E7E8" fill-rule="nonzero" points="533.7479 246.2344 539.597 246.2344 539.597 256.9966 533.7479 256.9966"></polygon>
                        <polygon id="Rectangle-path" fill="#E6E7E8" fill-rule="nonzero" points="490.809 245.25 496.6581 245.25 496.6581 257.9854 490.809 257.9854"></polygon>
                        <polygon id="Rectangle-path" fill="#E6E7E8" fill-rule="nonzero" points="447.87 244.2612 453.7191 244.2612 453.7191 258.9741 447.87 258.9741"></polygon>
                        <polygon id="Rectangle-path" fill="#E6E7E8" fill-rule="nonzero" points="404.931 243.2769 410.7801 243.2769 410.7801 259.9629 404.931 259.9629"></polygon>
                        <polygon id="Rectangle-path" fill="#E6E7E8" fill-rule="nonzero" points="361.9921 242.2881 367.8412 242.2881 367.8412 260.9517 361.9921 260.9517"></polygon>
                        <polygon id="Rectangle-path" fill="#E6E7E8" fill-rule="nonzero" points="319.0531 241.3037 324.9022 241.3037 324.9022 261.9404 319.0531 261.9404"></polygon>
                        <polygon id="Rectangle-path" fill="#E6E7E8" fill-rule="nonzero" points="276.1141 240.3149 281.9632 240.3149 281.9632 262.9292 276.1141 262.9292"></polygon>
                        <polygon id="Rectangle-path" fill="#E6E7E8" fill-rule="nonzero" points="233.1752 239.3306 239.0243 239.3306 239.0243 263.918 233.1752 263.918"></polygon>
                        <polygon id="Rectangle-path" fill="#E6E7E8" fill-rule="nonzero" points="190.2362 238.3418 196.0853 238.3418 196.0853 264.9067 190.2362 264.9067"></polygon>
                        <polygon id="Rectangle-path" fill="#E6E7E8" fill-rule="nonzero" points="147.2972 237.3574 153.1463 237.3574 153.1463 265.8955 147.2972 265.8955"></polygon>
                        <polygon id="Rectangle-path" fill="#E6E7E8" fill-rule="nonzero" points="104.3583 236.3687 110.2074 236.3687 110.2074 266.8843 104.3583 266.8843"></polygon>
                        <polygon id="Rectangle-path" fill="#E6E7E8" fill-rule="nonzero" points="61.4193 235.3843 67.2684 235.3843 67.2684 267.8731 61.4193 267.8731"></polygon>
                        <polygon id="Rectangle-path" fill="#E6E7E8" fill-rule="nonzero" points="18.4781 234.3955 24.3272 234.3955 24.3272 268.8618 18.4781 268.8618"></polygon>
                        <polygon id="Rectangle-path" fill="#E6E7E8" fill-rule="nonzero" points="705.5038 194.2646 711.3529 194.2646 711.3529 197.1254 705.5038 197.1254"></polygon>
                        <polygon id="Rectangle-path" fill="#E6E7E8" fill-rule="nonzero" points="662.5648 193.2759 668.4139 193.2759 668.4139 198.1143 662.5648 198.1143"></polygon>
                        <polygon id="Rectangle-path" fill="#E6E7E8" fill-rule="nonzero" points="619.6259 192.2915 625.475 192.2915 625.475 199.103 619.6259 199.103"></polygon>
                        <polygon id="Rectangle-path" fill="#E6E7E8" fill-rule="nonzero" points="576.6869 191.3027 582.536 191.3027 582.536 200.0918 576.6869 200.0918"></polygon>
                        <polygon id="Rectangle-path" fill="#E6E7E8" fill-rule="nonzero" points="533.7479 190.3184 539.597 190.3184 539.597 201.0806 533.7479 201.0806"></polygon>
                        <polygon id="Rectangle-path" fill="#E6E7E8" fill-rule="nonzero" points="490.809 189.3296 496.6581 189.3296 496.6581 202.0693 490.809 202.0693"></polygon>
                        <polygon id="Rectangle-path" fill="#E6E7E8" fill-rule="nonzero" points="447.87 188.3452 453.7191 188.3452 453.7191 203.0581 447.87 203.0581"></polygon>
                        <polygon id="Rectangle-path" fill="#E6E7E8" fill-rule="nonzero" points="404.931 187.3564 410.7801 187.3564 410.7801 204.0468 404.931 204.0468"></polygon>
                        <polygon id="Rectangle-path" fill="#E6E7E8" fill-rule="nonzero" points="361.9921 186.3721 367.8412 186.3721 367.8412 205.0357 361.9921 205.0357"></polygon>
                        <polygon id="Rectangle-path" fill="#E6E7E8" fill-rule="nonzero" points="319.0531 185.3833 324.9022 185.3833 324.9022 206.0244 319.0531 206.0244"></polygon>
                        <polygon id="Rectangle-path" fill="#E6E7E8" fill-rule="nonzero" points="276.1141 184.3989 281.9632 184.3989 281.9632 207.0132 276.1141 207.0132"></polygon>
                        <polygon id="Rectangle-path" fill="#E6E7E8" fill-rule="nonzero" points="233.1752 183.4102 239.0243 183.4102 239.0243 208.002 233.1752 208.002"></polygon>
                        <polygon id="Rectangle-path" fill="#E6E7E8" fill-rule="nonzero" points="190.2362 182.4258 196.0853 182.4258 196.0853 208.9907 190.2362 208.9907"></polygon>
                        <polygon id="Rectangle-path" fill="#E6E7E8" fill-rule="nonzero" points="147.2972 181.437 153.1463 181.437 153.1463 209.9795 147.2972 209.9795"></polygon>
                        <polygon id="Rectangle-path" fill="#E6E7E8" fill-rule="nonzero" points="104.3583 180.4526 110.2074 180.4526 110.2074 210.9682 104.3583 210.9682"></polygon>
                        <polygon id="Rectangle-path" fill="#E6E7E8" fill-rule="nonzero" points="61.4193 179.4639 67.2684 179.4639 67.2684 211.9571 61.4193 211.9571"></polygon>
                        <polygon id="Rectangle-path" fill="#E6E7E8" fill-rule="nonzero" points="18.4781 178.4795 24.3272 178.4795 24.3272 212.9458 18.4781 212.9458"></polygon>
                        <polygon id="Rectangle-path" fill="#E6E7E8" fill-rule="nonzero" points="705.5038 138.3442 711.3529 138.3442 711.3529 141.205 705.5038 141.205"></polygon>
                        <polygon id="Rectangle-path" fill="#E6E7E8" fill-rule="nonzero" points="662.5648 137.3599 668.4139 137.3599 668.4139 142.1939 662.5648 142.1939"></polygon>
                        <polygon id="Rectangle-path" fill="#E6E7E8" fill-rule="nonzero" points="619.6259 136.3711 625.475 136.3711 625.475 143.1826 619.6259 143.1826"></polygon>
                        <polygon id="Rectangle-path" fill="#E6E7E8" fill-rule="nonzero" points="576.6869 135.3867 582.536 135.3867 582.536 144.1714 576.6869 144.1714"></polygon>
                        <polygon id="Rectangle-path" fill="#E6E7E8" fill-rule="nonzero" points="533.7479 134.3979 539.597 134.3979 539.597 145.1601 533.7479 145.1601"></polygon>
                        <polygon id="Rectangle-path" fill="#E6E7E8" fill-rule="nonzero" points="490.809 133.4136 496.6581 133.4136 496.6581 146.149 490.809 146.149"></polygon>
                        <polygon id="Rectangle-path" fill="#E6E7E8" fill-rule="nonzero" points="447.87 132.4248 453.7191 132.4248 453.7191 147.1377 447.87 147.1377"></polygon>
                        <polygon id="Rectangle-path" fill="#E6E7E8" fill-rule="nonzero" points="404.931 131.4404 410.7801 131.4404 410.7801 148.1264 404.931 148.1264"></polygon>
                        <polygon id="Rectangle-path" fill="#E6E7E8" fill-rule="nonzero" points="361.9921 130.4517 367.8412 130.4517 367.8412 149.1153 361.9921 149.1153"></polygon>
                        <polygon id="Rectangle-path" fill="#E6E7E8" fill-rule="nonzero" points="319.0531 129.4673 324.9022 129.4673 324.9022 150.104 319.0531 150.104"></polygon>
                        <polygon id="Rectangle-path" fill="#E6E7E8" fill-rule="nonzero" points="276.1141 128.4785 281.9632 128.4785 281.9632 151.0928 276.1141 151.0928"></polygon>
                        <polygon id="Rectangle-path" fill="#E6E7E8" fill-rule="nonzero" points="233.1752 127.4941 239.0243 127.4941 239.0243 152.0815 233.1752 152.0815"></polygon>
                        <polygon id="Rectangle-path" fill="#E6E7E8" fill-rule="nonzero" points="190.2362 126.5054 196.0853 126.5054 196.0853 153.0703 190.2362 153.0703"></polygon>
                        <polygon id="Rectangle-path" fill="#E6E7E8" fill-rule="nonzero" points="147.2972 125.521 153.1463 125.521 153.1463 154.0591 147.2972 154.0591"></polygon>
                        <polygon id="Rectangle-path" fill="#E6E7E8" fill-rule="nonzero" points="104.3583 124.5322 110.2074 124.5322 110.2074 155.0478 104.3583 155.0478"></polygon>
                        <polygon id="Rectangle-path" fill="#E6E7E8" fill-rule="nonzero" points="61.4193 123.5479 67.2684 123.5479 67.2684 156.0367 61.4193 156.0367"></polygon>
                        <polygon id="Rectangle-path" fill="#E6E7E8" fill-rule="nonzero" points="18.4781 122.5591 24.3272 122.5591 24.3272 157.0254 18.4781 157.0254"></polygon>
                        <polygon id="Rectangle-path" fill="#E6E7E8" fill-rule="nonzero" points="705.5038 82.4282 711.3529 82.4282 711.3529 85.289 705.5038 85.289"></polygon>
                        <polygon id="Rectangle-path" fill="#E6E7E8" fill-rule="nonzero" points="662.5648 81.4395 668.4139 81.4395 668.4139 86.2779 662.5648 86.2779"></polygon>
                        <polygon id="Rectangle-path" fill="#E6E7E8" fill-rule="nonzero" points="619.6259 80.4551 625.475 80.4551 625.475 87.2666 619.6259 87.2666"></polygon>
                        <polygon id="Rectangle-path" fill="#E6E7E8" fill-rule="nonzero" points="576.6869 79.4663 582.536 79.4663 582.536 88.2554 576.6869 88.2554"></polygon>
                        <polygon id="Rectangle-path" fill="#E6E7E8" fill-rule="nonzero" points="533.7479 78.4819 539.597 78.4819 539.597 89.2441 533.7479 89.2441"></polygon>
                        <polygon id="Rectangle-path" fill="#E6E7E8" fill-rule="nonzero" points="490.809 77.4932 496.6581 77.4932 496.6581 90.2329 490.809 90.2329"></polygon>
                        <polygon id="Rectangle-path" fill="#E6E7E8" fill-rule="nonzero" points="447.87 76.5088 453.7191 76.5088 453.7191 91.2217 447.87 91.2217"></polygon>
                        <polygon id="Rectangle-path" fill="#E6E7E8" fill-rule="nonzero" points="404.931 75.52 410.7801 75.52 410.7801 92.2104 404.931 92.2104"></polygon>
                        <polygon id="Rectangle-path" fill="#E6E7E8" fill-rule="nonzero" points="361.9921 74.5356 367.8412 74.5356 367.8412 93.1992 361.9921 93.1992"></polygon>
                        <polygon id="Rectangle-path" fill="#E6E7E8" fill-rule="nonzero" points="319.0531 73.5469 324.9022 73.5469 324.9022 94.188 319.0531 94.188"></polygon>
                        <polygon id="Rectangle-path" fill="#E6E7E8" fill-rule="nonzero" points="276.1141 72.5625 281.9632 72.5625 281.9632 95.1768 276.1141 95.1768"></polygon>
                        <polygon id="Rectangle-path" fill="#E6E7E8" fill-rule="nonzero" points="233.1752 71.5737 239.0243 71.5737 239.0243 96.1655 233.1752 96.1655"></polygon>
                        <polygon id="Rectangle-path" fill="#E6E7E8" fill-rule="nonzero" points="190.2362 70.585 196.0853 70.585 196.0853 97.1543 190.2362 97.1543"></polygon>
                        <polygon id="Rectangle-path" fill="#E6E7E8" fill-rule="nonzero" points="147.2972 69.6006 153.1463 69.6006 153.1463 98.1431 147.2972 98.1431"></polygon>
                        <polygon id="Rectangle-path" fill="#E6E7E8" fill-rule="nonzero" points="104.3583 68.6118 110.2074 68.6118 110.2074 99.1318 104.3583 99.1318"></polygon>
                        <polygon id="Rectangle-path" fill="#E6E7E8" fill-rule="nonzero" points="61.4193 67.6274 67.2684 67.6274 67.2684 100.1206 61.4193 100.1206"></polygon>
                        <polygon id="Rectangle-path" fill="#E6E7E8" fill-rule="nonzero" points="18.4781 66.6387 24.3272 66.6387 24.3272 101.1094 18.4781 101.1094"></polygon>
                        <polygon id="Rectangle-path" fill="#E6E7E8" fill-rule="nonzero" points="705.5038 26.5078 711.3529 26.5078 711.3529 29.3686 705.5038 29.3686"></polygon>
                        <polygon id="Rectangle-path" fill="#E6E7E8" fill-rule="nonzero" points="662.5648 25.519 668.4139 25.519 668.4139 30.3574 662.5648 30.3574"></polygon>
                        <polygon id="Rectangle-path" fill="#E6E7E8" fill-rule="nonzero" points="619.6259 24.5347 625.475 24.5347 625.475 31.3462 619.6259 31.3462"></polygon>
                        <polygon id="Rectangle-path" fill="#E6E7E8" fill-rule="nonzero" points="576.6869 23.5459 582.536 23.5459 582.536 32.335 576.6869 32.335"></polygon>
                        <polygon id="Rectangle-path" fill="#E6E7E8" fill-rule="nonzero" points="533.7479 22.5615 539.597 22.5615 539.597 33.3237 533.7479 33.3237"></polygon>
                        <polygon id="Rectangle-path" fill="#E6E7E8" fill-rule="nonzero" points="490.809 21.5728 496.6581 21.5728 496.6581 34.3125 490.809 34.3125"></polygon>
                        <polygon id="Rectangle-path" fill="#E6E7E8" fill-rule="nonzero" points="447.87 20.5884 453.7191 20.5884 453.7191 35.3013 447.87 35.3013"></polygon>
                        <polygon id="Rectangle-path" fill="#E6E7E8" fill-rule="nonzero" points="404.931 19.5996 410.7801 19.5996 410.7801 36.29 404.931 36.29"></polygon>
                        <polygon id="Rectangle-path" fill="#E6E7E8" fill-rule="nonzero" points="361.9921 18.6152 367.8412 18.6152 367.8412 37.2788 361.9921 37.2788"></polygon>
                        <polygon id="Rectangle-path" fill="#E6E7E8" fill-rule="nonzero" points="319.0531 17.6265 324.9022 17.6265 324.9022 38.2676 319.0531 38.2676"></polygon>
                        <polygon id="Rectangle-path" fill="#E6E7E8" fill-rule="nonzero" points="276.1141 16.6421 281.9632 16.6421 281.9632 39.2564 276.1141 39.2564"></polygon>
                        <polygon id="Rectangle-path" fill="#E6E7E8" fill-rule="nonzero" points="233.1752 15.6533 239.0243 15.6533 239.0243 40.2451 233.1752 40.2451"></polygon>
                        <polygon id="Rectangle-path" fill="#E6E7E8" fill-rule="nonzero" points="190.2362 14.6689 196.0853 14.6689 196.0853 41.2338 190.2362 41.2338"></polygon>
                        <polygon id="Rectangle-path" fill="#E6E7E8" fill-rule="nonzero" points="147.2972 13.6802 153.1463 13.6802 153.1463 42.2227 147.2972 42.2227"></polygon>
                        <polygon id="Rectangle-path" fill="#E6E7E8" fill-rule="nonzero" points="104.3583 12.6958 110.2074 12.6958 110.2074 43.2114 104.3583 43.2114"></polygon>
                        <polygon id="Rectangle-path" fill="#E6E7E8" fill-rule="nonzero" points="61.4193 11.707 67.2684 11.707 67.2684 44.2002 61.4193 44.2002"></polygon>
                        <polygon id="Rectangle-path" fill="#E6E7E8" fill-rule="nonzero" points="18.4781 10.7227 24.3272 10.7227 24.3272 45.189 18.4781 45.189"></polygon>
                        <polygon id="Rectangle-path" fill="#E6E7E8" fill-rule="nonzero" points="748.6471 82.4634 754.4962 82.4634 754.4962 85.3242 748.6471 85.3242"></polygon>
                        <polygon id="Rectangle-path" fill="#E6E7E8" fill-rule="nonzero" points="791.5861 81.4746 797.4352 81.4746 797.4352 86.3086 791.5861 86.3086"></polygon>
                        <polygon id="Rectangle-path" fill="#E6E7E8" fill-rule="nonzero" points="834.525 80.4858 840.3741 80.4858 840.3741 87.2973 834.525 87.2973"></polygon>
                        <polygon id="Rectangle-path" fill="#E6E7E8" fill-rule="nonzero" points="877.464 79.4971 883.3131 79.4971 883.3131 88.2818 877.464 88.2818"></polygon>
                        <polygon id="Rectangle-path" fill="#E6E7E8" fill-rule="nonzero" points="920.403 78.5083 926.2521 78.5083 926.2521 89.2705 920.403 89.2705"></polygon>
                        <polygon id="Rectangle-path" fill="#E6E7E8" fill-rule="nonzero" points="963.3419 77.5195 969.191 77.5195 969.191 90.2549 963.3419 90.2549"></polygon>
                        <polygon id="Rectangle-path" fill="#E6E7E8" fill-rule="nonzero" points="1006.2809 76.5308 1012.13 76.5308 1012.13 91.2437 1006.2809 91.2437"></polygon>
                        <polygon id="Rectangle-path" fill="#E6E7E8" fill-rule="nonzero" points="1049.2198 75.542 1055.0689 75.542 1055.0689 92.228 1049.2198 92.228"></polygon>
                        <polygon id="Rectangle-path" fill="#E6E7E8" fill-rule="nonzero" points="1092.1588 74.5532 1098.0079 74.5532 1098.0079 93.2168 1092.1588 93.2168"></polygon>
                        <polygon id="Rectangle-path" fill="#E6E7E8" fill-rule="nonzero" points="1135.1 73.5645 1140.9491 73.5645 1140.9491 94.2012 1135.1 94.2012"></polygon>
                        <polygon id="Rectangle-path" fill="#E6E7E8" fill-rule="nonzero" points="1178.0389 72.5757 1183.888 72.5757 1183.888 95.19 1178.0389 95.19"></polygon>
                        <polygon id="Rectangle-path" fill="#E6E7E8" fill-rule="nonzero" points="1220.9779 71.5825 1226.827 71.5825 1226.827 96.1743 1220.9779 96.1743"></polygon>
                        <polygon id="Rectangle-path" fill="#E6E7E8" fill-rule="nonzero" points="1263.9169 70.5938 1269.766 70.5938 1269.766 97.1631 1263.9169 97.1631"></polygon>
                        <polygon id="Rectangle-path" fill="#E6E7E8" fill-rule="nonzero" points="1306.8558 69.605 1312.7049 69.605 1312.7049 98.1475 1306.8558 98.1475"></polygon>
                        <polygon id="Rectangle-path" fill="#E6E7E8" fill-rule="nonzero" points="1349.7948 68.6162 1355.6439 68.6162 1355.6439 99.1362 1349.7948 99.1362"></polygon>
                        <polygon id="Rectangle-path" fill="#E6E7E8" fill-rule="nonzero" points="1392.7338 67.6274 1398.5829 67.6274 1398.5829 100.1206 1392.7338 100.1206"></polygon>
                        <polygon id="Rectangle-path" fill="#E6E7E8" fill-rule="nonzero" points="1435.6727 66.6387 1441.5218 66.6387 1441.5218 101.1094 1435.6727 101.1094"></polygon>
                        <polygon id="Rectangle-path" fill="#E6E7E8" fill-rule="nonzero" points="748.6471 26.543 754.4962 26.543 754.4962 29.4038 748.6471 29.4038"></polygon>
                        <polygon id="Rectangle-path" fill="#E6E7E8" fill-rule="nonzero" points="791.5861 25.5542 797.4352 25.5542 797.4352 30.3926 791.5861 30.3926"></polygon>
                        <polygon id="Rectangle-path" fill="#E6E7E8" fill-rule="nonzero" points="834.525 24.5654 840.3741 24.5654 840.3741 31.3769 834.525 31.3769"></polygon>
                        <polygon id="Rectangle-path" fill="#E6E7E8" fill-rule="nonzero" points="877.464 23.5767 883.3131 23.5767 883.3131 32.3658 877.464 32.3658"></polygon>
                        <polygon id="Rectangle-path" fill="#E6E7E8" fill-rule="nonzero" points="920.403 22.5879 926.2521 22.5879 926.2521 33.3501 920.403 33.3501"></polygon>
                        <polygon id="Rectangle-path" fill="#E6E7E8" fill-rule="nonzero" points="963.3419 21.5991 969.191 21.5991 969.191 34.3388 963.3419 34.3388"></polygon>
                        <polygon id="Rectangle-path" fill="#E6E7E8" fill-rule="nonzero" points="1006.2809 20.6104 1012.13 20.6104 1012.13 35.3233 1006.2809 35.3233"></polygon>
                        <polygon id="Rectangle-path" fill="#E6E7E8" fill-rule="nonzero" points="1049.2198 19.6216 1055.0689 19.6216 1055.0689 36.312 1049.2198 36.312"></polygon>
                        <polygon id="Rectangle-path" fill="#E6E7E8" fill-rule="nonzero" points="1092.1588 18.6328 1098.0079 18.6328 1098.0079 37.2964 1092.1588 37.2964"></polygon>
                        <polygon id="Rectangle-path" fill="#E6E7E8" fill-rule="nonzero" points="1135.1 17.644 1140.9491 17.644 1140.9491 38.2851 1135.1 38.2851"></polygon>
                        <polygon id="Rectangle-path" fill="#E6E7E8" fill-rule="nonzero" points="1178.0389 16.6553 1183.888 16.6553 1183.888 39.2696 1178.0389 39.2696"></polygon>
                        <polygon id="Rectangle-path" fill="#E6E7E8" fill-rule="nonzero" points="1220.9779 15.6665 1226.827 15.6665 1226.827 40.2583 1220.9779 40.2583"></polygon>
                        <polygon id="Rectangle-path" fill="#E6E7E8" fill-rule="nonzero" points="1263.9169 14.6777 1269.766 14.6777 1269.766 41.2426 1263.9169 41.2426"></polygon>
                        <polygon id="Rectangle-path" fill="#E6E7E8" fill-rule="nonzero" points="1306.8558 13.689 1312.7049 13.689 1312.7049 42.2315 1306.8558 42.2315"></polygon>
                        <polygon id="Rectangle-path" fill="#E6E7E8" fill-rule="nonzero" points="1349.7948 12.7002 1355.6439 12.7002 1355.6439 43.2158 1349.7948 43.2158"></polygon>
                        <polygon id="Rectangle-path" fill="#E6E7E8" fill-rule="nonzero" points="1392.7338 11.7114 1398.5829 11.7114 1398.5829 44.2046 1392.7338 44.2046"></polygon>
                        <polygon id="Rectangle-path" fill="#E6E7E8" fill-rule="nonzero" points="1435.6727 10.7227 1441.5218 10.7227 1441.5218 45.189 1435.6727 45.189"></polygon>
                        <polygon id="Rectangle-path" fill="#E6E7E8" fill-rule="nonzero" points="748.6471 138.3794 754.4962 138.3794 754.4962 141.2402 748.6471 141.2402"></polygon>
                        <polygon id="Rectangle-path" fill="#E6E7E8" fill-rule="nonzero" points="791.5861 137.3906 797.4352 137.3906 797.4352 142.229 791.5861 142.229"></polygon>
                        <polygon id="Rectangle-path" fill="#E6E7E8" fill-rule="nonzero" points="834.525 136.4019 840.3741 136.4019 840.3741 143.2134 834.525 143.2134"></polygon>
                        <polygon id="Rectangle-path" fill="#E6E7E8" fill-rule="nonzero" points="877.464 135.4131 883.3131 135.4131 883.3131 144.2022 877.464 144.2022"></polygon>
                        <polygon id="Rectangle-path" fill="#E6E7E8" fill-rule="nonzero" points="920.403 134.4243 926.2521 134.4243 926.2521 145.1865 920.403 145.1865"></polygon>
                        <polygon id="Rectangle-path" fill="#E6E7E8" fill-rule="nonzero" points="963.3419 133.4355 969.191 133.4355 969.191 146.1752 963.3419 146.1752"></polygon>
                        <polygon id="Rectangle-path" fill="#E6E7E8" fill-rule="nonzero" points="1006.2809 132.4468 1012.13 132.4468 1012.13 147.1597 1006.2809 147.1597"></polygon>
                        <polygon id="Rectangle-path" fill="#E6E7E8" fill-rule="nonzero" points="1049.2198 131.458 1055.0689 131.458 1055.0689 148.1484 1049.2198 148.1484"></polygon>
                        <polygon id="Rectangle-path" fill="#E6E7E8" fill-rule="nonzero" points="1092.1588 130.4692 1098.0079 130.4692 1098.0079 149.1328 1092.1588 149.1328"></polygon>
                        <polygon id="Rectangle-path" fill="#E6E7E8" fill-rule="nonzero" points="1135.1 129.4805 1140.9491 129.4805 1140.9491 150.1216 1135.1 150.1216"></polygon>
                        <polygon id="Rectangle-path" fill="#E6E7E8" fill-rule="nonzero" points="1178.0389 128.4917 1183.888 128.4917 1183.888 151.106 1178.0389 151.106"></polygon>
                        <polygon id="Rectangle-path" fill="#E6E7E8" fill-rule="nonzero" points="1220.9779 127.5029 1226.827 127.5029 1226.827 152.0947 1220.9779 152.0947"></polygon>
                        <polygon id="Rectangle-path" fill="#E6E7E8" fill-rule="nonzero" points="1263.9169 126.5142 1269.766 126.5142 1269.766 153.0791 1263.9169 153.0791"></polygon>
                        <polygon id="Rectangle-path" fill="#E6E7E8" fill-rule="nonzero" points="1306.8558 125.5254 1312.7049 125.5254 1312.7049 154.0679 1306.8558 154.0679"></polygon>
                        <polygon id="Rectangle-path" fill="#E6E7E8" fill-rule="nonzero" points="1349.7948 124.5366 1355.6439 124.5366 1355.6439 155.0522 1349.7948 155.0522"></polygon>
                        <polygon id="Rectangle-path" fill="#E6E7E8" fill-rule="nonzero" points="1392.7338 123.5479 1398.5829 123.5479 1398.5829 156.0411 1392.7338 156.0411"></polygon>
                        <polygon id="Rectangle-path" fill="#E6E7E8" fill-rule="nonzero" points="1435.6727 122.5591 1441.5218 122.5591 1441.5218 157.0254 1435.6727 157.0254"></polygon>
                        <polygon id="Rectangle-path" fill="#E6E7E8" fill-rule="nonzero" points="748.6471 194.2998 754.4962 194.2998 754.4962 197.1606 748.6471 197.1606"></polygon>
                        <polygon id="Rectangle-path" fill="#E6E7E8" fill-rule="nonzero" points="791.5861 193.311 797.4352 193.311 797.4352 198.145 791.5861 198.145"></polygon>
                        <polygon id="Rectangle-path" fill="#E6E7E8" fill-rule="nonzero" points="834.525 192.3223 840.3741 192.3223 840.3741 199.1338 834.525 199.1338"></polygon>
                        <polygon id="Rectangle-path" fill="#E6E7E8" fill-rule="nonzero" points="877.464 191.3335 883.3131 191.3335 883.3131 200.1182 877.464 200.1182"></polygon>
                        <polygon id="Rectangle-path" fill="#E6E7E8" fill-rule="nonzero" points="920.403 190.3447 926.2521 190.3447 926.2521 201.1069 920.403 201.1069"></polygon>
                        <polygon id="Rectangle-path" fill="#E6E7E8" fill-rule="nonzero" points="963.3419 189.356 969.191 189.356 969.191 202.0914 963.3419 202.0914"></polygon>
                        <polygon id="Rectangle-path" fill="#E6E7E8" fill-rule="nonzero" points="1006.2809 188.3672 1012.13 188.3672 1012.13 203.0801 1006.2809 203.0801"></polygon>
                        <polygon id="Rectangle-path" fill="#E6E7E8" fill-rule="nonzero" points="1049.2198 187.3784 1055.0689 187.3784 1055.0689 204.0644 1049.2198 204.0644"></polygon>
                        <polygon id="Rectangle-path" fill="#E6E7E8" fill-rule="nonzero" points="1092.1588 186.3896 1098.0079 186.3896 1098.0079 205.0532 1092.1588 205.0532"></polygon>
                        <polygon id="Rectangle-path" fill="#E6E7E8" fill-rule="nonzero" points="1135.1 185.4009 1140.9491 185.4009 1140.9491 206.0376 1135.1 206.0376"></polygon>
                        <polygon id="Rectangle-path" fill="#E6E7E8" fill-rule="nonzero" points="1178.0389 184.4121 1183.888 184.4121 1183.888 207.0264 1178.0389 207.0264"></polygon>
                        <polygon id="Rectangle-path" fill="#E6E7E8" fill-rule="nonzero" points="1220.9779 183.4233 1226.827 183.4233 1226.827 208.0107 1220.9779 208.0107"></polygon>
                        <polygon id="Rectangle-path" fill="#E6E7E8" fill-rule="nonzero" points="1263.9169 182.4346 1269.766 182.4346 1269.766 208.9995 1263.9169 208.9995"></polygon>
                        <polygon id="Rectangle-path" fill="#E6E7E8" fill-rule="nonzero" points="1306.8558 181.4458 1312.7049 181.4458 1312.7049 209.9839 1306.8558 209.9839"></polygon>
                        <polygon id="Rectangle-path" fill="#E6E7E8" fill-rule="nonzero" points="1349.7948 180.457 1355.6439 180.457 1355.6439 210.9726 1349.7948 210.9726"></polygon>
                        <polygon id="Rectangle-path" fill="#E6E7E8" fill-rule="nonzero" points="1392.7338 179.4683 1398.5829 179.4683 1398.5829 211.9571 1392.7338 211.9571"></polygon>
                        <polygon id="Rectangle-path" fill="#E6E7E8" fill-rule="nonzero" points="1435.6727 178.4795 1441.5218 178.4795 1441.5218 212.9458 1435.6727 212.9458"></polygon>
                        <polygon id="Rectangle-path" fill="#E6E7E8" fill-rule="nonzero" points="748.6471 250.2158 754.4962 250.2158 754.4962 253.0766 748.6471 253.0766"></polygon>
                        <polygon id="Rectangle-path" fill="#E6E7E8" fill-rule="nonzero" points="791.5861 249.2271 797.4352 249.2271 797.4352 254.0655 791.5861 254.0655"></polygon>
                        <polygon id="Rectangle-path" fill="#E6E7E8" fill-rule="nonzero" points="834.525 248.2383 840.3741 248.2383 840.3741 255.0498 834.525 255.0498"></polygon>
                        <polygon id="Rectangle-path" fill="#E6E7E8" fill-rule="nonzero" points="877.464 247.2495 883.3131 247.2495 883.3131 256.0386 877.464 256.0386"></polygon>
                        <polygon id="Rectangle-path" fill="#E6E7E8" fill-rule="nonzero" points="920.403 246.2607 926.2521 246.2607 926.2521 257.0229 920.403 257.0229"></polygon>
                        <polygon id="Rectangle-path" fill="#E6E7E8" fill-rule="nonzero" points="963.3419 245.272 969.191 245.272 969.191 258.0117 963.3419 258.0117"></polygon>
                        <polygon id="Rectangle-path" fill="#E6E7E8" fill-rule="nonzero" points="1006.2809 244.2832 1012.13 244.2832 1012.13 258.9961 1006.2809 258.9961"></polygon>
                        <polygon id="Rectangle-path" fill="#E6E7E8" fill-rule="nonzero" points="1049.2198 243.2944 1055.0689 243.2944 1055.0689 259.9848 1049.2198 259.9848"></polygon>
                        <polygon id="Rectangle-path" fill="#E6E7E8" fill-rule="nonzero" points="1092.1588 242.3057 1098.0079 242.3057 1098.0079 260.9693 1092.1588 260.9693"></polygon>
                        <polygon id="Rectangle-path" fill="#E6E7E8" fill-rule="nonzero" points="1135.1 241.3169 1140.9491 241.3169 1140.9491 261.958 1135.1 261.958"></polygon>
                        <polygon id="Rectangle-path" fill="#E6E7E8" fill-rule="nonzero" points="1178.0389 240.3281 1183.888 240.3281 1183.888 262.9424 1178.0389 262.9424"></polygon>
                        <polygon id="Rectangle-path" fill="#E6E7E8" fill-rule="nonzero" points="1220.9779 239.3394 1226.827 239.3394 1226.827 263.9312 1220.9779 263.9312"></polygon>
                        <polygon id="Rectangle-path" fill="#E6E7E8" fill-rule="nonzero" points="1263.9169 238.3506 1269.766 238.3506 1269.766 264.9155 1263.9169 264.9155"></polygon>
                        <polygon id="Rectangle-path" fill="#E6E7E8" fill-rule="nonzero" points="1306.8558 237.3618 1312.7049 237.3618 1312.7049 265.9043 1306.8558 265.9043"></polygon>
                        <polygon id="Rectangle-path" fill="#E6E7E8" fill-rule="nonzero" points="1349.7948 236.373 1355.6439 236.373 1355.6439 266.8886 1349.7948 266.8886"></polygon>
                        <polygon id="Rectangle-path" fill="#E6E7E8" fill-rule="nonzero" points="1392.7338 235.3843 1398.5829 235.3843 1398.5829 267.8775 1392.7338 267.8775"></polygon>
                        <polygon id="Rectangle-path" fill="#E6E7E8" fill-rule="nonzero" points="1435.6727 234.3955 1441.5218 234.3955 1441.5218 268.8618 1435.6727 268.8618"></polygon>
                        <polygon id="Rectangle-path" fill="#E6E7E8" fill-rule="nonzero" points="748.6471 306.1362 754.4962 306.1362 754.4962 308.997 748.6471 308.997"></polygon>
                        <polygon id="Rectangle-path" fill="#E6E7E8" fill-rule="nonzero" points="791.5861 305.1475 797.4352 305.1475 797.4352 309.9815 791.5861 309.9815"></polygon>
                        <polygon id="Rectangle-path" fill="#E6E7E8" fill-rule="nonzero" points="834.525 304.1587 840.3741 304.1587 840.3741 310.9702 834.525 310.9702"></polygon>
                        <polygon id="Rectangle-path" fill="#E6E7E8" fill-rule="nonzero" points="877.464 303.1699 883.3131 303.1699 883.3131 311.9546 877.464 311.9546"></polygon>
                        <polygon id="Rectangle-path" fill="#E6E7E8" fill-rule="nonzero" points="920.403 302.1812 926.2521 302.1812 926.2521 312.9434 920.403 312.9434"></polygon>
                        <polygon id="Rectangle-path" fill="#E6E7E8" fill-rule="nonzero" points="963.3419 301.1924 969.191 301.1924 969.191 313.9278 963.3419 313.9278"></polygon>
                        <polygon id="Rectangle-path" fill="#E6E7E8" fill-rule="nonzero" points="1006.2809 300.2036 1012.13 300.2036 1012.13 314.9165 1006.2809 314.9165"></polygon>
                        <polygon id="Rectangle-path" fill="#E6E7E8" fill-rule="nonzero" points="1049.2198 299.2148 1055.0689 299.2148 1055.0689 315.9008 1049.2198 315.9008"></polygon>
                        <polygon id="Rectangle-path" fill="#E6E7E8" fill-rule="nonzero" points="1092.1588 298.2261 1098.0079 298.2261 1098.0079 316.8897 1092.1588 316.8897"></polygon>
                        <polygon id="Rectangle-path" fill="#E6E7E8" fill-rule="nonzero" points="1135.1 297.2373 1140.9491 297.2373 1140.9491 317.874 1135.1 317.874"></polygon>
                        <polygon id="Rectangle-path" fill="#E6E7E8" fill-rule="nonzero" points="1178.0389 296.2485 1183.888 296.2485 1183.888 318.8628 1178.0389 318.8628"></polygon>
                        <polygon id="Rectangle-path" fill="#E6E7E8" fill-rule="nonzero" points="1220.9779 295.2598 1226.827 295.2598 1226.827 319.8472 1220.9779 319.8472"></polygon>
                        <polygon id="Rectangle-path" fill="#E6E7E8" fill-rule="nonzero" points="1263.9169 294.271 1269.766 294.271 1269.766 320.8359 1263.9169 320.8359"></polygon>
                        <polygon id="Rectangle-path" fill="#E6E7E8" fill-rule="nonzero" points="1306.8558 293.2822 1312.7049 293.2822 1312.7049 321.8203 1306.8558 321.8203"></polygon>
                        <polygon id="Rectangle-path" fill="#E6E7E8" fill-rule="nonzero" points="1349.7948 292.2935 1355.6439 292.2935 1355.6439 322.8091 1349.7948 322.8091"></polygon>
                        <polygon id="Rectangle-path" fill="#E6E7E8" fill-rule="nonzero" points="1392.7338 291.3047 1398.5829 291.3047 1398.5829 323.7935 1392.7338 323.7935"></polygon>
                        <polygon id="Rectangle-path" fill="#E6E7E8" fill-rule="nonzero" points="1435.6727 290.3159 1441.5218 290.3159 1441.5218 324.7822 1435.6727 324.7822"></polygon>
                        <polygon id="Rectangle-path" fill="#E6E7E8" fill-rule="nonzero" points="748.6471 362.0522 754.4962 362.0522 754.4962 364.913 748.6471 364.913"></polygon>
                        <polygon id="Rectangle-path" fill="#E6E7E8" fill-rule="nonzero" points="791.5861 361.0635 797.4352 361.0635 797.4352 365.9019 791.5861 365.9019"></polygon>
                        <polygon id="Rectangle-path" fill="#E6E7E8" fill-rule="nonzero" points="834.525 360.0747 840.3741 360.0747 840.3741 366.8862 834.525 366.8862"></polygon>
                        <polygon id="Rectangle-path" fill="#E6E7E8" fill-rule="nonzero" points="877.464 359.0859 883.3131 359.0859 883.3131 367.875 877.464 367.875"></polygon>
                        <polygon id="Rectangle-path" fill="#E6E7E8" fill-rule="nonzero" points="920.403 358.0972 926.2521 358.0972 926.2521 368.8594 920.403 368.8594"></polygon>
                        <polygon id="Rectangle-path" fill="#E6E7E8" fill-rule="nonzero" points="963.3419 357.1084 969.191 357.1084 969.191 369.8481 963.3419 369.8481"></polygon>
                        <polygon id="Rectangle-path" fill="#E6E7E8" fill-rule="nonzero" points="1006.2809 356.1196 1012.13 356.1196 1012.13 370.8325 1006.2809 370.8325"></polygon>
                        <polygon id="Rectangle-path" fill="#E6E7E8" fill-rule="nonzero" points="1049.2198 355.1309 1055.0689 355.1309 1055.0689 371.8213 1049.2198 371.8213"></polygon>
                        <polygon id="Rectangle-path" fill="#E6E7E8" fill-rule="nonzero" points="1092.1588 354.1421 1098.0079 354.1421 1098.0079 372.8057 1092.1588 372.8057"></polygon>
                        <polygon id="Rectangle-path" fill="#E6E7E8" fill-rule="nonzero" points="1135.1 353.1533 1140.9491 353.1533 1140.9491 373.7944 1135.1 373.7944"></polygon>
                        <polygon id="Rectangle-path" fill="#E6E7E8" fill-rule="nonzero" points="1178.0389 352.1646 1183.888 352.1646 1183.888 374.7789 1178.0389 374.7789"></polygon>
                        <polygon id="Rectangle-path" fill="#E6E7E8" fill-rule="nonzero" points="1220.9779 351.1758 1226.827 351.1758 1226.827 375.7676 1220.9779 375.7676"></polygon>
                        <polygon id="Rectangle-path" fill="#E6E7E8" fill-rule="nonzero" points="1263.9169 350.187 1269.766 350.187 1269.766 376.7519 1263.9169 376.7519"></polygon>
                        <polygon id="Rectangle-path" fill="#E6E7E8" fill-rule="nonzero" points="1306.8558 349.1982 1312.7049 349.1982 1312.7049 377.7407 1306.8558 377.7407"></polygon>
                        <polygon id="Rectangle-path" fill="#E6E7E8" fill-rule="nonzero" points="1349.7948 348.2095 1355.6439 348.2095 1355.6439 378.7251 1349.7948 378.7251"></polygon>
                        <polygon id="Rectangle-path" fill="#E6E7E8" fill-rule="nonzero" points="1392.7338 347.2207 1398.5829 347.2207 1398.5829 379.7139 1392.7338 379.7139"></polygon>
                        <polygon id="Rectangle-path" fill="#E6E7E8" fill-rule="nonzero" points="1435.6727 346.2319 1441.5218 346.2319 1441.5218 380.6982 1435.6727 380.6982"></polygon>
                    </g>
                </g>
            </g>
        </g>
    </g>
</svg>