<?xml version="1.0" encoding="UTF-8"?>
<svg width="1410px" height="417px" viewBox="0 0 1410 417" version="1.1" xmlns="http://www.w3.org/2000/svg" xmlns:xlink="http://www.w3.org/1999/xlink">
    <!-- Generator: Sketch 53 (72520) - https://sketchapp.com -->
    <title>pattern/page/3</title>
    <desc>Created with Sketch.</desc>
    <g id="Page-1" stroke="none" stroke-width="1" fill="none" fill-rule="evenodd">
        <g id="patterns" transform="translate(-3588.000000, -3298.000000)" fill="#E6E7E8">
            <g id="Page-assets" transform="translate(147.000000, 3042.000000)">
                <g id="pattern/page/3" transform="translate(3441.000000, 256.000000)">
                    <g id="Asset-22">
                        <path d="M918.5254,68.9575 L961.0361,68.9575 C973.627319,68.9706708 983.831604,79.1738827 983.8461,91.7651 L983.8461,134.2734 C983.863788,150.09443 996.684271,162.915808 1012.5053,162.9346 L1055.0153,162.9346 C1067.60645,162.947936 1077.81064,173.151051 1077.8253,185.7422 L1077.8253,228.2549 C1077.84282,244.075788 1090.66311,256.897152 1106.484,256.916 L1148.9947,256.916 C1161.58592,256.929171 1171.7902,267.132383 1171.8047,279.7236 L1171.8047,322.2319 C1171.82211,338.05207 1184.64123,350.873205 1200.4614,350.8931 L1242.9722,350.8931 C1255.56325,350.906491 1265.76726,361.109655 1265.7817,373.7007 L1265.7817,416.209 L1271.6309,416.209 L1271.6309,373.7007 C1271.61343,357.879789 1258.79311,345.058393 1242.9722,345.0396 L1200.4614,345.0396 C1187.87106,345.025162 1177.66818,334.822243 1177.6538,322.2319 L1177.6538,279.7236 C1177.63633,263.902689 1164.81601,251.081293 1148.9951,251.0625 L1106.4844,251.0625 C1093.89318,251.049329 1083.6889,240.846117 1083.6744,228.2549 L1083.6744,185.7422 C1083.65666,169.921209 1070.83619,157.099892 1055.0152,157.0811 L1012.5052,157.0811 C999.914033,157.067709 989.709861,146.864565 989.6952,134.2734 L989.6952,91.7651 C989.677732,75.9440335 976.857165,63.1225724 961.0361,63.104 L918.5254,63.104 C905.934181,63.0908292 895.729896,52.8876173 895.7154,40.2964 L895.7154,0 L889.8663,0 L889.8663,40.2964 C889.883823,56.1174437 902.704358,68.9388726 918.5254,68.9575 Z" id="Shape" fill-rule="nonzero"></path>
                        <path d="M824.5483,68.9575 L867.0591,68.9575 C879.649404,68.9719381 889.852262,79.1747957 889.8667,91.7651 L889.8667,134.2734 C889.884168,150.094327 902.704475,162.915752 918.5254,162.9346 L961.0361,162.9346 C973.627342,162.947716 983.831659,173.15096 983.8461,185.7422 L983.8461,228.2549 C983.863843,244.075891 996.68431,256.897208 1012.5053,256.916 L1055.0153,256.916 C1067.60643,256.929391 1077.81058,267.132474 1077.8253,279.7236 L1077.8253,322.2319 C1077.84277,338.052827 1090.66307,350.874252 1106.484,350.8931 L1148.9947,350.8931 C1161.58594,350.906216 1171.79026,361.10946 1171.8047,373.7007 L1171.8047,416.209 L1177.6538,416.209 L1177.6538,373.7007 C1177.63633,357.879789 1164.81601,345.058393 1148.9951,345.0396 L1106.4844,345.0396 C1093.89314,345.026429 1083.68884,334.823156 1083.6744,322.2319 L1083.6744,279.7236 C1083.65666,263.902609 1070.83619,251.081292 1055.0152,251.0625 L1012.5052,251.0625 C999.914072,251.049109 989.709916,240.846026 989.6952,228.2549 L989.6952,185.7422 C989.677732,169.921289 976.857409,157.099893 961.0365,157.0811 L918.5254,157.0811 C905.934142,157.067929 895.729841,146.864656 895.7154,134.2734 L895.7154,91.7651 C895.698815,75.9447602 882.879437,63.1232352 867.0591,63.104 L824.5483,63.104 C811.957058,63.0908842 801.752741,52.8876401 801.7383,40.2964 L801.7383,0 L795.8883,0 L795.8883,40.2964 C795.905989,56.1177261 808.726975,68.9392035 824.5483,68.9575 L824.5483,68.9575 Z" id="Shape" fill-rule="nonzero"></path>
                        <path d="M730.5688,68.9575 L773.08,68.9575 C785.671219,68.9706708 795.875504,79.1738827 795.89,91.7651 L795.89,134.2734 C795.907688,150.094391 808.72811,162.915753 824.5491,162.9346 L867.0599,162.9346 C879.650227,162.948983 889.853117,173.151873 889.8675,185.7422 L889.8675,228.2549 C889.885023,244.075788 902.705314,256.897152 918.5262,256.916 L961.0369,256.916 C973.628119,256.929171 983.832404,267.132383 983.8469,279.7236 L983.8469,322.2319 C983.864588,338.05293 996.685071,350.874308 1012.5061,350.8931 L1055.0161,350.8931 C1067.60725,350.906436 1077.81144,361.109551 1077.8261,373.7007 L1077.8261,416.209 L1083.6752,416.209 L1083.6752,373.7007 C1083.65751,357.879686 1070.83701,345.058337 1055.016,345.0396 L1012.506,345.0396 C999.914833,345.026209 989.710661,334.823065 989.696,322.2319 L989.696,279.7236 C989.678532,263.902689 976.858209,251.081293 961.0373,251.0625 L918.5254,251.0625 C905.934181,251.049329 895.729896,240.846117 895.7154,228.2549 L895.7154,185.7422 C895.697989,169.922046 882.878851,157.10094 867.0587,157.0811 L824.5483,157.0811 C811.957042,157.067929 801.752741,146.864656 801.7383,134.2734 L801.7383,91.7651 C801.720558,75.9444594 788.900639,63.123288 773.08,63.104 L730.5688,63.104 C717.977754,63.0906087 707.77374,52.8874452 707.7593,40.2964 L707.7593,0 L701.91,0 L701.91,40.2964 C701.927468,56.1173495 714.747852,68.9387623 730.5688,68.9575 L730.5688,68.9575 Z" id="Shape" fill-rule="nonzero"></path>
                        <path d="M1012.5049,68.9575 L1055.0149,68.9575 C1067.60603,68.9708907 1077.81018,79.1739739 1077.8249,91.7651 L1077.8249,134.2734 C1077.84237,150.094327 1090.66267,162.915752 1106.4836,162.9346 L1148.9943,162.9346 C1161.58554,162.947716 1171.78986,173.15096 1171.8043,185.7422 L1171.8043,228.2549 C1171.82171,244.075054 1184.64085,256.89616 1200.461,256.916 L1242.9718,256.916 C1255.56285,256.929391 1265.76686,267.132555 1265.7813,279.7236 L1265.7813,322.2319 C1265.79904,338.052908 1278.61949,350.874253 1294.4405,350.8931 L1336.9505,350.8931 C1349.54165,350.906436 1359.74584,361.109551 1359.7605,373.7007 L1359.7605,416.209 L1365.6097,416.209 L1365.6097,373.7007 C1365.59196,357.879709 1352.77149,345.058392 1336.9505,345.0396 L1294.4405,345.0396 C1281.84933,345.026209 1271.64516,334.823065 1271.6305,322.2319 L1271.6305,279.7236 C1271.61298,263.902712 1258.79269,251.081348 1242.9718,251.0625 L1200.461,251.0625 C1187.8707,251.048062 1177.66784,240.845204 1177.6534,228.2549 L1177.6534,185.7422 C1177.63593,169.921289 1164.81561,157.099893 1148.9947,157.0811 L1106.484,157.0811 C1093.89274,157.067929 1083.68844,146.864656 1083.674,134.2734 L1083.674,91.7651 C1083.65626,75.9441086 1070.83579,63.1227922 1055.0148,63.104 L1012.5048,63.104 C999.913672,63.0906093 989.709516,52.8875261 989.6948,40.2964 L989.6948,0 L983.8457,0 L983.8457,40.2964 C983.863443,56.1173914 996.68391,68.9387078 1012.5049,68.9575 L1012.5049,68.9575 Z" id="Shape" fill-rule="nonzero"></path>
                        <path d="M1388.4194,68.9575 L1409.6694,68.9575 L1409.6694,63.104 L1388.4194,63.104 C1375.82816,63.0908842 1365.62384,52.8876401 1365.6094,40.2964 L1365.6094,0 L1359.7602,0 L1359.7602,40.2964 C1359.77772,56.1174827 1372.59832,68.9389277 1388.4194,68.9575 Z" id="Shape" fill-rule="nonzero"></path>
                        <path d="M1106.4839,68.9575 L1148.9946,68.9575 C1161.58582,68.9706708 1171.7901,79.1738827 1171.8046,91.7651 L1171.8046,134.2734 C1171.82201,150.09357 1184.64113,162.914705 1200.4613,162.9346 L1242.9721,162.9346 C1255.56315,162.947991 1265.76716,173.151155 1265.7816,185.7422 L1265.7816,228.2549 C1265.79934,244.07558 1278.61932,256.896767 1294.44,256.916 L1336.95,256.916 C1349.54113,256.929391 1359.74528,267.132474 1359.76,279.7236 L1359.76,322.2319 C1359.77747,338.052827 1372.59777,350.874252 1388.4187,350.8931 L1409.6687,350.8931 L1409.6687,345.04 L1388.4187,345.04 C1375.82744,345.026829 1365.62314,334.823556 1365.6087,322.2323 L1365.6087,279.7236 C1365.59096,263.902609 1352.77049,251.081292 1336.9495,251.0625 L1294.4395,251.0625 C1281.84837,251.049109 1271.64422,240.846026 1271.6295,228.2549 L1271.6295,185.7422 C1271.61198,169.921312 1258.79169,157.099948 1242.9708,157.0811 L1200.46,157.0811 C1187.86966,157.066662 1177.66678,146.863743 1177.6524,134.2734 L1177.6524,91.7651 C1177.63493,75.9441895 1164.81461,63.1227928 1148.9937,63.104 L1106.483,63.104 C1093.89178,63.0908292 1083.6875,52.8876173 1083.673,40.2964 L1083.673,0 L1077.8239,0 L1077.8239,40.2964 C1077.84142,56.1177946 1090.66251,68.9393685 1106.4839,68.9575 Z" id="Shape" fill-rule="nonzero"></path>
                        <path d="M636.59,68.9575 L679.1,68.9575 C691.691105,68.9709457 701.895229,79.1739968 701.91,91.7651 L701.91,134.2734 C701.927413,150.094311 714.747691,162.915752 730.5686,162.9346 L773.08,162.9346 C785.671219,162.947771 795.875504,173.150983 795.89,185.7422 L795.89,228.2549 C795.907688,244.075875 808.728126,256.897208 824.5491,256.916 L867.0599,256.916 C879.650204,256.930438 889.853062,267.133296 889.8675,279.7236 L889.8675,322.2319 C889.884968,338.052827 902.705275,350.874252 918.5262,350.8931 L961.0369,350.8931 C973.628142,350.906216 983.832459,361.10946 983.8469,373.7007 L983.8469,416.209 L989.696,416.209 L989.696,373.7007 C989.67831,357.879478 976.857322,345.058131 961.0361,345.04 L918.5254,345.04 C905.934142,345.026829 895.729841,334.823556 895.7154,322.2323 L895.7154,279.7236 C895.698814,263.903104 882.879193,251.081515 867.0587,251.0625 L824.5483,251.0625 C811.957058,251.049384 801.752741,240.84614 801.7383,228.2549 L801.7383,185.7422 C801.720558,169.921559 788.900639,157.100388 773.08,157.0811 L730.5688,157.0811 C717.977737,157.067654 707.77374,146.864461 707.7593,134.2734 L707.7593,91.7651 C707.741557,75.9440696 694.921029,63.1227371 679.1,63.104 L636.59,63.104 C623.998872,63.0906093 613.794716,52.8875261 613.78,40.2964 L613.78,0 L607.9314,0 L607.9314,40.2964 C607.948868,56.1172716 620.76913,68.9386522 636.59,68.9575 Z" id="Shape" fill-rule="nonzero"></path>
                        <path d="M1294.44,68.9575 L1336.95,68.9575 C1349.54113,68.9708907 1359.74528,79.1739739 1359.76,91.7651 L1359.76,134.2734 C1359.77747,150.094327 1372.59777,162.915752 1388.4187,162.9346 L1409.6687,162.9346 L1409.6687,157.0811 L1388.4187,157.0811 C1375.82744,157.067929 1365.62314,146.864656 1365.6087,134.2734 L1365.6087,91.7651 C1365.59096,75.9441086 1352.77049,63.1227922 1336.9495,63.104 L1294.4395,63.104 C1281.84837,63.0906093 1271.64422,52.8875261 1271.6295,40.2964 L1271.6295,0 L1265.7803,0 L1265.7803,40.2964 C1265.79804,56.1175864 1278.61881,68.9389832 1294.44,68.9575 L1294.44,68.9575 Z" id="Shape" fill-rule="nonzero"></path>
                        <path d="M1200.4609,68.9575 L1242.9717,68.9575 C1255.56275,68.9708913 1265.76676,79.1740548 1265.7812,91.7651 L1265.7812,134.2734 C1265.79894,150.094408 1278.61939,162.915753 1294.4404,162.9346 L1336.9504,162.9346 C1349.54155,162.947936 1359.74574,173.151051 1359.7604,185.7422 L1359.7604,228.2549 C1359.77792,244.075788 1372.59821,256.897152 1388.4191,256.916 L1409.6691,256.916 L1409.6691,251.0625 L1388.4191,251.0625 C1375.82786,251.049384 1365.62354,240.84614 1365.6091,228.2549 L1365.6091,185.7422 C1365.59136,169.921209 1352.77089,157.099892 1336.9499,157.0811 L1294.4399,157.0811 C1281.84873,157.067709 1271.64456,146.864565 1271.6299,134.2734 L1271.6299,91.7651 C1271.61238,75.9442123 1258.79209,63.1228477 1242.9712,63.104 L1200.4604,63.104 C1187.8701,63.0895619 1177.66724,52.8867043 1177.6528,40.2964 L1177.6528,0 L1171.8037,0 L1171.8037,40.2964 C1171.82111,56.1167486 1184.64055,68.9379359 1200.4609,68.9575 Z" id="Shape" fill-rule="nonzero"></path>
                        <path d="M44.06,373.7007 L44.06,416.209 L49.9086,416.209 L49.9086,373.7007 C49.8909118,357.879985 37.070714,345.058847 21.25,345.04 L0,345.04 L0,350.8935 L21.25,350.8935 C33.8409716,350.90689 44.045064,361.10973 44.06,373.7007 Z" id="Shape" fill-rule="nonzero"></path>
                        <path d="M44.06,91.7651 L44.06,134.2734 C44.0774678,150.094327 56.8977748,162.915752 72.7187,162.9346 L115.2287,162.9346 C127.81985,162.947936 138.024039,173.151051 138.0387,185.7422 L138.0387,228.2549 C138.056168,244.075811 150.876491,256.897207 166.6974,256.916 L209.2081,256.916 C221.799319,256.929171 232.003604,267.132383 232.0181,279.7236 L232.0181,322.2319 C232.035566,338.052242 244.854961,350.873426 260.6753,350.8931 L303.1853,350.8931 C315.77645,350.906436 325.980639,361.109551 325.9953,373.7007 L325.9953,416.209 L331.8439,416.209 L331.8439,373.7007 C331.826212,357.880063 319.006136,345.058958 303.1855,345.04 L260.6755,345.04 C248.085088,345.025727 237.882118,334.822712 237.8679,322.2323 L237.8679,279.7236 C237.850157,263.902609 225.02969,251.081292 209.2087,251.0625 L166.6978,251.0625 C154.106581,251.049329 143.902296,240.846117 143.8878,228.2549 L143.8878,185.7422 C143.870057,169.921209 131.04959,157.099892 115.2286,157.0811 L72.7186,157.0811 C60.1274335,157.067709 49.9232605,146.864565 49.9086,134.2734 L49.9086,91.7651 C49.8910772,75.9442512 37.0708472,63.1229028 21.25,63.104 L0,63.104 L0,68.9575 L21.25,68.9575 C33.8411047,68.9709457 44.0452294,79.1739968 44.06,91.7651 Z" id="Shape" fill-rule="nonzero"></path>
                        <path d="M44.06,185.7422 L44.06,228.2549 C44.077468,244.07585 56.8978519,256.897262 72.7188,256.916 L115.2288,256.916 C127.819928,256.929391 138.024084,267.132474 138.0388,279.7236 L138.0388,322.2319 C138.056268,338.052827 150.876575,350.874252 166.6975,350.8931 L209.2082,350.8931 C221.799419,350.906271 232.003704,361.109483 232.0182,373.7007 L232.0182,416.209 L237.8682,416.209 L237.8682,373.7007 C237.850236,357.87967 225.02953,345.058516 209.2085,345.04 L166.6978,345.04 C154.106542,345.026829 143.902241,334.823556 143.8878,322.2323 L143.8878,279.7236 C143.870057,263.902609 131.04959,251.081292 115.2286,251.0625 L72.7186,251.0625 C60.1274725,251.049109 49.9233156,240.846026 49.9086,228.2549 L49.9086,185.7422 C49.8910772,169.921351 37.0708472,157.100003 21.25,157.0811 L0,157.0811 L0,162.9346 L21.25,162.9346 C33.8411275,162.947991 44.0452844,173.151074 44.06,185.7422 Z" id="Shape" fill-rule="nonzero"></path>
                        <path d="M72.7188,68.9575 L115.2288,68.9575 C127.819928,68.9708907 138.024084,79.1739739 138.0388,91.7651 L138.0388,134.2734 C138.056268,150.094327 150.876575,162.915752 166.6975,162.9346 L209.2082,162.9346 C221.799419,162.947771 232.003704,173.150983 232.0182,185.7422 L232.0182,228.2549 C232.035666,244.075226 244.855077,256.896381 260.6754,256.916 L303.1854,256.916 C315.776528,256.929391 325.980684,267.132474 325.9954,279.7236 L325.9954,322.2319 C326.012868,338.052827 338.833175,350.874252 354.6541,350.8931 L397.1641,350.8931 C409.75525,350.906436 419.959439,361.109551 419.9741,373.7007 L419.9741,416.209 L425.8232,416.209 L425.8232,373.7007 C425.805292,357.880076 412.985223,345.059067 397.1646,345.04 L354.6546,345.04 C342.063433,345.026609 331.859261,334.823465 331.8446,322.2323 L331.8446,279.7236 C331.827132,263.902689 319.006809,251.081293 303.1859,251.0625 L260.6759,251.0625 C248.085504,251.048282 237.882518,240.845296 237.8683,228.2549 L237.8683,185.7422 C237.850557,169.921209 225.03009,157.099892 209.2091,157.0811 L166.6978,157.0811 C154.106542,157.067929 143.902241,146.864656 143.8878,134.2734 L143.8878,91.7651 C143.870057,75.9442645 131.049834,63.1230126 115.229,63.104 L72.719,63.104 C60.1278725,63.0906093 49.9237156,52.8875261 49.909,40.2964 L49.909,0 L44.06,0 L44.06,40.2964 C44.077468,56.1173495 56.8978519,68.9387623 72.7188,68.9575 Z" id="Shape" fill-rule="nonzero"></path>
                        <path d="M44.06,279.7236 L44.06,322.2319 C44.0774678,338.052827 56.8977748,350.874252 72.7187,350.8931 L115.2287,350.8931 C127.81985,350.906436 138.024039,361.109551 138.0387,373.7007 L138.0387,416.209 L143.8878,416.209 L143.8878,373.7007 C143.869837,357.880021 131.049678,345.059012 115.229,345.04 L72.719,345.04 C60.1278335,345.026609 49.9236605,334.823465 49.909,322.2323 L49.909,279.7236 C49.8914768,263.902595 37.0710034,251.081182 21.25,251.0625 L0,251.0625 L0,256.916 L21.25,256.916 C33.8411047,256.929446 44.0452294,267.132497 44.06,279.7236 L44.06,279.7236 Z" id="Shape" fill-rule="nonzero"></path>
                        <path d="M542.6128,68.9575 L585.1211,68.9575 C597.712205,68.9709457 607.916329,79.1739968 607.9311,91.7651 L607.9311,134.2734 C607.948513,150.094428 620.768974,162.915917 636.59,162.9346 L679.1,162.9346 C691.691128,162.947991 701.895284,173.151074 701.91,185.7422 L701.91,228.2549 C701.927468,244.075772 714.74773,256.897152 730.5686,256.916 L773.08,256.916 C785.671219,256.929171 795.875504,267.132383 795.89,279.7236 L795.89,322.2319 C795.907688,338.052891 808.72811,350.874253 824.5491,350.8931 L867.0599,350.8931 C879.650227,350.907483 889.853117,361.110373 889.8675,373.7007 L889.8675,416.209 L895.7166,416.209 L895.7166,373.7007 C895.698968,357.880391 882.879407,345.059398 867.0591,345.04 L824.5483,345.04 C811.957042,345.026829 801.752741,334.823556 801.7383,322.2323 L801.7383,279.7236 C801.720558,263.902959 788.900639,251.081788 773.08,251.0625 L730.5688,251.0625 C717.977754,251.049109 707.77374,240.845945 707.7593,228.2549 L707.7593,185.7422 C707.741557,169.92117 694.921029,157.099837 679.1,157.0811 L636.59,157.0811 C623.998833,157.067709 613.794661,146.864565 613.78,134.2734 L613.78,91.7651 C613.762477,75.9441343 600.942064,63.1227376 585.1211,63.104 L542.6128,63.104 C530.021581,63.0908292 519.817296,52.8876173 519.8028,40.2964 L519.8028,0 L513.9528,0 L513.9528,40.2964 C513.970544,56.1177033 526.791497,68.9391485 542.6128,68.9575 Z" id="Shape" fill-rule="nonzero"></path>
                        <path d="M354.6543,68.9575 L397.1643,68.9575 C409.755428,68.9708907 419.959584,79.1739739 419.9743,91.7651 L419.9743,134.2734 C419.991768,150.094327 432.812075,162.915752 448.633,162.9346 L491.144,162.9346 C503.735242,162.947716 513.939559,173.15096 513.954,185.7422 L513.954,228.2549 C513.971743,244.075891 526.79221,256.897208 542.6132,256.916 L585.1215,256.916 C597.712605,256.929446 607.916729,267.132497 607.9315,279.7236 L607.9315,322.2319 C607.948913,338.052772 620.76913,350.874197 636.59,350.8931 L679.1,350.8931 C691.691128,350.906491 701.895284,361.109574 701.91,373.7007 L701.91,416.209 L707.7591,416.209 L707.7591,373.7007 C707.741136,357.879904 694.920795,345.058847 679.1,345.04 L636.59,345.04 C623.998833,345.026609 613.794661,334.823465 613.78,322.2323 L613.78,279.7236 C613.762477,263.902712 600.942186,251.081348 585.1213,251.0625 L542.6128,251.0625 C530.021581,251.049329 519.817296,240.846117 519.8028,228.2549 L519.8028,185.7422 C519.785057,169.921209 506.96459,157.099892 491.1436,157.0811 L448.6333,157.0811 C436.042042,157.067929 425.837741,146.864656 425.8233,134.2734 L425.8233,91.7651 C425.805612,75.9442807 412.985418,63.1230127 397.1646,63.104 L354.6546,63.104 C342.063472,63.0906093 331.859316,52.8875261 331.8446,40.2964 L331.8446,0 L325.996,0 L325.996,40.2964 C326.013522,56.1171318 338.83357,68.9384319 354.6543,68.9575 Z" id="Shape" fill-rule="nonzero"></path>
                        <path d="M448.6333,68.9575 L491.144,68.9575 C503.735219,68.9706708 513.939504,79.1738827 513.954,91.7651 L513.954,134.2734 C513.971743,150.094408 526.792194,162.915753 542.6132,162.9346 L585.1215,162.9346 C597.712628,162.947991 607.916784,173.151074 607.9315,185.7422 L607.9315,228.2549 C607.948968,244.075733 620.769169,256.897097 636.59,256.916 L679.1,256.916 C691.691105,256.929446 701.895229,267.132497 701.91,279.7236 L701.91,322.2319 C701.927413,338.052811 714.747691,350.874252 730.5686,350.8931 L773.08,350.8931 C785.671219,350.906271 795.875504,361.109483 795.89,373.7007 L795.89,416.209 L801.74,416.209 L801.74,373.7007 C801.722035,357.879553 788.901147,345.058351 773.08,345.04 L730.5688,345.04 C717.977737,345.026554 707.77374,334.823361 707.7593,322.2323 L707.7593,279.7236 C707.741557,263.90257 694.921029,251.081237 679.1,251.0625 L636.59,251.0625 C623.998872,251.049109 613.794716,240.846026 613.78,228.2549 L613.78,185.7422 C613.762477,169.921312 600.942186,157.099948 585.1213,157.0811 L542.6128,157.0811 C530.021542,157.067929 519.817241,146.864656 519.8028,134.2734 L519.8028,91.7651 C519.785057,75.9442645 506.964834,63.1230126 491.144,63.104 L448.6333,63.104 C436.042081,63.0908292 425.837796,52.8876173 425.8233,40.2964 L425.8233,0 L419.9742,0 L419.9742,40.2964 C419.991723,56.1174437 432.812258,68.9388726 448.6333,68.9575 Z" id="Shape" fill-rule="nonzero"></path>
                        <path d="M260.6753,68.9575 L303.1853,68.9575 C315.776428,68.9708907 325.980584,79.1739739 325.9953,91.7651 L325.9953,134.2734 C326.012768,150.094327 338.833075,162.915752 354.654,162.9346 L397.164,162.9346 C409.75515,162.947936 419.959339,173.151051 419.974,185.7422 L419.974,228.2549 C419.991523,244.075788 432.811814,256.897152 448.6327,256.916 L491.144,256.916 C503.735219,256.929171 513.939504,267.132383 513.954,279.7236 L513.954,322.2319 C513.971743,338.052908 526.792194,350.874253 542.6132,350.8931 L585.1215,350.8931 C597.712628,350.906491 607.916784,361.109574 607.9315,373.7007 L607.9315,416.209 L613.78,416.209 L613.78,373.7007 C613.762312,357.879868 600.941931,345.058682 585.1211,345.04 L542.6128,345.04 C530.021542,345.026829 519.817241,334.823556 519.8028,322.2323 L519.8028,279.7236 C519.785057,263.902609 506.96459,251.081292 491.1436,251.0625 L448.6333,251.0625 C436.042081,251.049329 425.837796,240.846117 425.8233,228.2549 L425.8233,185.7422 C425.805612,169.921225 412.985174,157.099892 397.1642,157.0811 L354.6542,157.0811 C342.063033,157.067709 331.858861,146.864565 331.8442,134.2734 L331.8442,91.7651 C331.826732,75.9441895 319.006409,63.1227928 303.1855,63.104 L260.6755,63.104 C248.085104,63.0897818 237.882118,52.8867956 237.8679,40.2964 L237.8679,0 L232.0179,0 L232.0179,40.2964 C232.035366,56.1168037 244.854899,68.9379911 260.6753,68.9575 Z" id="Shape" fill-rule="nonzero"></path>
                        <path d="M166.6978,68.9575 L209.2085,68.9575 C221.799719,68.9706708 232.004004,79.1738827 232.0185,91.7651 L232.0185,134.2734 C232.035966,150.093742 244.855361,162.914926 260.6757,162.9346 L303.1857,162.9346 C315.77685,162.947936 325.981039,173.151051 325.9957,185.7422 L325.9957,228.2549 C326.013223,244.075788 338.833514,256.897152 354.6544,256.916 L397.1644,256.916 C409.755528,256.929391 419.959684,267.132474 419.9744,279.7236 L419.9744,322.2319 C419.991868,338.052827 432.812175,350.874252 448.6331,350.8931 L491.144,350.8931 C503.735242,350.906216 513.939559,361.10946 513.954,373.7007 L513.954,416.209 L519.804,416.209 L519.804,373.7007 C519.78609,357.87953 506.965169,345.058296 491.144,345.04 L448.6333,345.04 C436.042042,345.026829 425.837741,334.823556 425.8233,322.2323 L425.8233,279.7236 C425.805612,263.902625 412.985174,251.081292 397.1642,251.0625 L354.6542,251.0625 C342.063072,251.049109 331.858916,240.846026 331.8442,228.2549 L331.8442,185.7422 C331.826732,169.921289 319.006409,157.099893 303.1855,157.0811 L260.6755,157.0811 C248.085088,157.066827 237.882118,146.863812 237.8679,134.2734 L237.8679,91.7651 C237.850156,75.9440306 225.029568,63.122682 209.2085,63.104 L166.6978,63.104 C154.106581,63.0908292 143.902296,52.8876173 143.8878,40.2964 L143.8878,0 L138.0387,0 L138.0387,40.2964 C138.056168,56.1174665 150.876735,68.9389276 166.6978,68.9575 Z" id="Shape" fill-rule="nonzero"></path>
                    </g>
                </g>
            </g>
        </g>
    </g>
</svg>