<?xml version="1.0" encoding="UTF-8"?>
<svg width="1440px" height="513px" viewBox="0 0 1440 513" version="1.1" xmlns="http://www.w3.org/2000/svg" xmlns:xlink="http://www.w3.org/1999/xlink">
    <!-- Generator: Sketch 51.3 (57544) - http://www.bohemiancoding.com/sketch -->
    <title>pattern/header/4</title>
    <desc>Created with Sketch.</desc>
    <defs></defs>
    <g id="wave-1-desktop---Expertise" stroke="none" stroke-width="1" fill="none" fill-rule="evenodd">
        <g id="Expertise-a" transform="translate(0.000000, -72.000000)">
            <g id="header" transform="translate(0.000000, 71.000000)">
                <g id="pattern/header/1" transform="translate(0.000000, 1.000000)">
                    <g id="Asset-6">
                        <rect id="Rectangle-path" fill="#1D283C" fill-rule="nonzero" x="0" y="0" width="1460" height="513"></rect>
                        <rect id="Rectangle-path" fill="#16638A" fill-rule="nonzero" x="705.5038" y="422.8066" width="5.8491" height="2.8608"></rect>
                        <rect id="Rectangle-path" fill="#16638A" fill-rule="nonzero" x="662.5648" y="421.8179" width="5.8491" height="4.8384"></rect>
                        <rect id="Rectangle-path" fill="#16638A" fill-rule="nonzero" x="619.6259" y="420.8335" width="5.8491" height="6.8115"></rect>
                        <rect id="Rectangle-path" fill="#16638A" fill-rule="nonzero" x="576.6869" y="419.8447" width="5.8491" height="8.7891"></rect>
                        <rect id="Rectangle-path" fill="#16638A" fill-rule="nonzero" x="533.7479" y="418.8604" width="5.8491" height="10.7622"></rect>
                        <rect id="Rectangle-path" fill="#16638A" fill-rule="nonzero" x="490.809" y="417.8716" width="5.8491" height="12.7397"></rect>
                        <rect id="Rectangle-path" fill="#16638A" fill-rule="nonzero" x="447.87" y="416.8872" width="5.8491" height="14.7129"></rect>
                        <rect id="Rectangle-path" fill="#16638A" fill-rule="nonzero" x="404.931" y="415.8984" width="5.8491" height="16.6904"></rect>
                        <rect id="Rectangle-path" fill="#16638A" fill-rule="nonzero" x="361.9921" y="414.9141" width="5.8491" height="18.6636"></rect>
                        <rect id="Rectangle-path" fill="#16638A" fill-rule="nonzero" x="319.0531" y="413.9253" width="5.8491" height="20.6411"></rect>
                        <rect id="Rectangle-path" fill="#16638A" fill-rule="nonzero" x="276.1141" y="412.9409" width="5.8491" height="22.6143"></rect>
                        <rect id="Rectangle-path" fill="#16638A" fill-rule="nonzero" x="233.1752" y="411.9521" width="5.8491" height="24.5918"></rect>
                        <rect id="Rectangle-path" fill="#16638A" fill-rule="nonzero" x="190.2362" y="410.9678" width="5.8491" height="26.5649"></rect>
                        <rect id="Rectangle-path" fill="#16638A" fill-rule="nonzero" x="147.2972" y="409.979" width="5.8491" height="28.5425"></rect>
                        <rect id="Rectangle-path" fill="#16638A" fill-rule="nonzero" x="104.3583" y="408.9946" width="5.8491" height="30.5156"></rect>
                        <rect id="Rectangle-path" fill="#16638A" fill-rule="nonzero" x="61.4193" y="408.0059" width="5.8491" height="32.4932"></rect>
                        <rect id="Rectangle-path" fill="#16638A" fill-rule="nonzero" x="18.4781" y="407.0215" width="5.8491" height="34.4663"></rect>
                        <rect id="Rectangle-path" fill="#16638A" fill-rule="nonzero" x="705.5038" y="478.7227" width="5.8491" height="2.8608"></rect>
                        <rect id="Rectangle-path" fill="#16638A" fill-rule="nonzero" x="662.5648" y="477.7383" width="5.8491" height="4.834"></rect>
                        <rect id="Rectangle-path" fill="#16638A" fill-rule="nonzero" x="619.6259" y="476.7495" width="5.8491" height="6.8115"></rect>
                        <rect id="Rectangle-path" fill="#16638A" fill-rule="nonzero" x="576.6869" y="475.7651" width="5.8491" height="8.7847"></rect>
                        <rect id="Rectangle-path" fill="#16638A" fill-rule="nonzero" x="533.7479" y="474.7764" width="5.8491" height="10.7622"></rect>
                        <rect id="Rectangle-path" fill="#16638A" fill-rule="nonzero" x="490.809" y="473.792" width="5.8491" height="12.7354"></rect>
                        <rect id="Rectangle-path" fill="#16638A" fill-rule="nonzero" x="447.87" y="472.8032" width="5.8491" height="14.7129"></rect>
                        <rect id="Rectangle-path" fill="#16638A" fill-rule="nonzero" x="404.931" y="471.8188" width="5.8491" height="16.686"></rect>
                        <rect id="Rectangle-path" fill="#16638A" fill-rule="nonzero" x="361.9921" y="470.8301" width="5.8491" height="18.6636"></rect>
                        <rect id="Rectangle-path" fill="#16638A" fill-rule="nonzero" x="319.0531" y="469.8457" width="5.8491" height="20.6367"></rect>
                        <rect id="Rectangle-path" fill="#16638A" fill-rule="nonzero" x="276.1141" y="468.8569" width="5.8491" height="22.6143"></rect>
                        <rect id="Rectangle-path" fill="#16638A" fill-rule="nonzero" x="233.1752" y="467.8726" width="5.8491" height="24.5874"></rect>
                        <rect id="Rectangle-path" fill="#16638A" fill-rule="nonzero" x="190.2362" y="466.8838" width="5.8491" height="26.5649"></rect>
                        <rect id="Rectangle-path" fill="#16638A" fill-rule="nonzero" x="147.2972" y="465.8994" width="5.8491" height="28.5381"></rect>
                        <rect id="Rectangle-path" fill="#16638A" fill-rule="nonzero" x="104.3583" y="464.9106" width="5.8491" height="30.5156"></rect>
                        <rect id="Rectangle-path" fill="#16638A" fill-rule="nonzero" x="61.4193" y="463.9263" width="5.8491" height="32.4932"></rect>
                        <rect id="Rectangle-path" fill="#16638A" fill-rule="nonzero" x="18.4781" y="462.9375" width="5.8491" height="34.4707"></rect>
                        <rect id="Rectangle-path" fill="#16638A" fill-rule="nonzero" x="705.5038" y="366.8862" width="5.8491" height="2.8608"></rect>
                        <rect id="Rectangle-path" fill="#16638A" fill-rule="nonzero" x="662.5648" y="365.9019" width="5.8491" height="4.834"></rect>
                        <rect id="Rectangle-path" fill="#16638A" fill-rule="nonzero" x="619.6259" y="364.9131" width="5.8491" height="6.8115"></rect>
                        <rect id="Rectangle-path" fill="#16638A" fill-rule="nonzero" x="576.6869" y="363.9287" width="5.8491" height="8.7847"></rect>
                        <rect id="Rectangle-path" fill="#16638A" fill-rule="nonzero" x="533.7479" y="362.9399" width="5.8491" height="10.7622"></rect>
                        <rect id="Rectangle-path" fill="#16638A" fill-rule="nonzero" x="490.809" y="361.9556" width="5.8491" height="12.7354"></rect>
                        <rect id="Rectangle-path" fill="#16638A" fill-rule="nonzero" x="447.87" y="360.9668" width="5.8491" height="14.7129"></rect>
                        <rect id="Rectangle-path" fill="#16638A" fill-rule="nonzero" x="404.931" y="359.9824" width="5.8491" height="16.686"></rect>
                        <rect id="Rectangle-path" fill="#16638A" fill-rule="nonzero" x="361.9921" y="358.9937" width="5.8491" height="18.6636"></rect>
                        <rect id="Rectangle-path" fill="#16638A" fill-rule="nonzero" x="319.0531" y="358.0093" width="5.8491" height="20.6367"></rect>
                        <rect id="Rectangle-path" fill="#16638A" fill-rule="nonzero" x="276.1141" y="357.0205" width="5.8491" height="22.6143"></rect>
                        <rect id="Rectangle-path" fill="#16638A" fill-rule="nonzero" x="233.1752" y="356.0361" width="5.8491" height="24.5874"></rect>
                        <rect id="Rectangle-path" fill="#16638A" fill-rule="nonzero" x="190.2362" y="355.0474" width="5.8491" height="26.5649"></rect>
                        <rect id="Rectangle-path" fill="#16638A" fill-rule="nonzero" x="147.2972" y="354.063" width="5.8491" height="28.5381"></rect>
                        <rect id="Rectangle-path" fill="#16638A" fill-rule="nonzero" x="104.3583" y="353.0742" width="5.8491" height="30.5156"></rect>
                        <rect id="Rectangle-path" fill="#16638A" fill-rule="nonzero" x="61.4193" y="352.0898" width="5.8491" height="32.4888"></rect>
                        <rect id="Rectangle-path" fill="#16638A" fill-rule="nonzero" x="18.4781" y="351.1011" width="5.8491" height="34.4663"></rect>
                        <rect id="Rectangle-path" fill="#16638A" fill-rule="nonzero" x="705.5038" y="310.9702" width="5.8491" height="2.8608"></rect>
                        <rect id="Rectangle-path" fill="#16638A" fill-rule="nonzero" x="662.5648" y="309.9814" width="5.8491" height="4.8384"></rect>
                        <rect id="Rectangle-path" fill="#16638A" fill-rule="nonzero" x="619.6259" y="308.9971" width="5.8491" height="6.8115"></rect>
                        <rect id="Rectangle-path" fill="#16638A" fill-rule="nonzero" x="576.6869" y="308.0083" width="5.8491" height="8.7891"></rect>
                        <rect id="Rectangle-path" fill="#16638A" fill-rule="nonzero" x="533.7479" y="307.0239" width="5.8491" height="10.7622"></rect>
                        <rect id="Rectangle-path" fill="#16638A" fill-rule="nonzero" x="490.809" y="306.0352" width="5.8491" height="12.7397"></rect>
                        <rect id="Rectangle-path" fill="#16638A" fill-rule="nonzero" x="447.87" y="305.0508" width="5.8491" height="14.7129"></rect>
                        <rect id="Rectangle-path" fill="#16638A" fill-rule="nonzero" x="404.931" y="304.062" width="5.8491" height="16.6904"></rect>
                        <rect id="Rectangle-path" fill="#16638A" fill-rule="nonzero" x="361.9921" y="303.0776" width="5.8491" height="18.6636"></rect>
                        <rect id="Rectangle-path" fill="#16638A" fill-rule="nonzero" x="319.0531" y="302.0889" width="5.8491" height="20.6411"></rect>
                        <rect id="Rectangle-path" fill="#16638A" fill-rule="nonzero" x="276.1141" y="301.1045" width="5.8491" height="22.6143"></rect>
                        <rect id="Rectangle-path" fill="#16638A" fill-rule="nonzero" x="233.1752" y="300.1157" width="5.8491" height="24.5918"></rect>
                        <rect id="Rectangle-path" fill="#16638A" fill-rule="nonzero" x="190.2362" y="299.1313" width="5.8491" height="26.5649"></rect>
                        <rect id="Rectangle-path" fill="#16638A" fill-rule="nonzero" x="147.2972" y="298.1426" width="5.8491" height="28.5425"></rect>
                        <rect id="Rectangle-path" fill="#16638A" fill-rule="nonzero" x="104.3583" y="297.1582" width="5.8491" height="30.5156"></rect>
                        <rect id="Rectangle-path" fill="#16638A" fill-rule="nonzero" x="61.4193" y="296.1694" width="5.8491" height="32.4932"></rect>
                        <rect id="Rectangle-path" fill="#16638A" fill-rule="nonzero" x="18.4781" y="295.1851" width="5.8491" height="34.4663"></rect>
                        <rect id="Rectangle-path" fill="#16638A" fill-rule="nonzero" x="705.5038" y="255.0498" width="5.8491" height="2.8608"></rect>
                        <rect id="Rectangle-path" fill="#16638A" fill-rule="nonzero" x="662.5648" y="254.0654" width="5.8491" height="4.834"></rect>
                        <rect id="Rectangle-path" fill="#16638A" fill-rule="nonzero" x="619.6259" y="253.0767" width="5.8491" height="6.8115"></rect>
                        <rect id="Rectangle-path" fill="#16638A" fill-rule="nonzero" x="576.6869" y="252.0923" width="5.8491" height="8.7847"></rect>
                        <rect id="Rectangle-path" fill="#16638A" fill-rule="nonzero" x="533.7479" y="251.1035" width="5.8491" height="10.7622"></rect>
                        <rect id="Rectangle-path" fill="#16638A" fill-rule="nonzero" x="490.809" y="250.1191" width="5.8491" height="12.7354"></rect>
                        <rect id="Rectangle-path" fill="#16638A" fill-rule="nonzero" x="447.87" y="249.1304" width="5.8491" height="14.7129"></rect>
                        <rect id="Rectangle-path" fill="#16638A" fill-rule="nonzero" x="404.931" y="248.146" width="5.8491" height="16.686"></rect>
                        <rect id="Rectangle-path" fill="#16638A" fill-rule="nonzero" x="361.9921" y="247.1572" width="5.8491" height="18.6636"></rect>
                        <rect id="Rectangle-path" fill="#16638A" fill-rule="nonzero" x="319.0531" y="246.1729" width="5.8491" height="20.6367"></rect>
                        <rect id="Rectangle-path" fill="#16638A" fill-rule="nonzero" x="276.1141" y="245.1841" width="5.8491" height="22.6143"></rect>
                        <rect id="Rectangle-path" fill="#16638A" fill-rule="nonzero" x="233.1752" y="244.1997" width="5.8491" height="24.5874"></rect>
                        <rect id="Rectangle-path" fill="#16638A" fill-rule="nonzero" x="190.2362" y="243.2109" width="5.8491" height="26.5649"></rect>
                        <rect id="Rectangle-path" fill="#16638A" fill-rule="nonzero" x="147.2972" y="242.2266" width="5.8491" height="28.5381"></rect>
                        <rect id="Rectangle-path" fill="#16638A" fill-rule="nonzero" x="104.3583" y="241.2378" width="5.8491" height="30.5156"></rect>
                        <rect id="Rectangle-path" fill="#16638A" fill-rule="nonzero" x="61.4193" y="240.2534" width="5.8491" height="32.4888"></rect>
                        <rect id="Rectangle-path" fill="#16638A" fill-rule="nonzero" x="18.4781" y="239.2646" width="5.8491" height="34.4663"></rect>
                        <rect id="Rectangle-path" fill="#16638A" fill-rule="nonzero" x="705.5038" y="199.1338" width="5.8491" height="2.8608"></rect>
                        <rect id="Rectangle-path" fill="#16638A" fill-rule="nonzero" x="662.5648" y="198.145" width="5.8491" height="4.8384"></rect>
                        <rect id="Rectangle-path" fill="#16638A" fill-rule="nonzero" x="619.6259" y="197.1606" width="5.8491" height="6.8115"></rect>
                        <rect id="Rectangle-path" fill="#16638A" fill-rule="nonzero" x="576.6869" y="196.1719" width="5.8491" height="8.7891"></rect>
                        <rect id="Rectangle-path" fill="#16638A" fill-rule="nonzero" x="533.7479" y="195.1875" width="5.8491" height="10.7622"></rect>
                        <rect id="Rectangle-path" fill="#16638A" fill-rule="nonzero" x="490.809" y="194.1987" width="5.8491" height="12.7397"></rect>
                        <rect id="Rectangle-path" fill="#16638A" fill-rule="nonzero" x="447.87" y="193.2144" width="5.8491" height="14.7129"></rect>
                        <rect id="Rectangle-path" fill="#16638A" fill-rule="nonzero" x="404.931" y="192.2256" width="5.8491" height="16.6904"></rect>
                        <rect id="Rectangle-path" fill="#16638A" fill-rule="nonzero" x="361.9921" y="191.2412" width="5.8491" height="18.6636"></rect>
                        <rect id="Rectangle-path" fill="#16638A" fill-rule="nonzero" x="319.0531" y="190.2524" width="5.8491" height="20.6411"></rect>
                        <rect id="Rectangle-path" fill="#16638A" fill-rule="nonzero" x="276.1141" y="189.2681" width="5.8491" height="22.6143"></rect>
                        <rect id="Rectangle-path" fill="#16638A" fill-rule="nonzero" x="233.1752" y="188.2793" width="5.8491" height="24.5918"></rect>
                        <rect id="Rectangle-path" fill="#16638A" fill-rule="nonzero" x="190.2362" y="187.2949" width="5.8491" height="26.5649"></rect>
                        <rect id="Rectangle-path" fill="#16638A" fill-rule="nonzero" x="147.2972" y="186.3062" width="5.8491" height="28.5425"></rect>
                        <rect id="Rectangle-path" fill="#16638A" fill-rule="nonzero" x="104.3583" y="185.3218" width="5.8491" height="30.5156"></rect>
                        <rect id="Rectangle-path" fill="#16638A" fill-rule="nonzero" x="61.4193" y="184.333" width="5.8491" height="32.4932"></rect>
                        <rect id="Rectangle-path" fill="#16638A" fill-rule="nonzero" x="18.4781" y="183.3486" width="5.8491" height="34.4663"></rect>
                        <rect id="Rectangle-path" fill="#16638A" fill-rule="nonzero" x="705.5038" y="143.2134" width="5.8491" height="2.8608"></rect>
                        <rect id="Rectangle-path" fill="#16638A" fill-rule="nonzero" x="662.5648" y="142.229" width="5.8491" height="4.834"></rect>
                        <rect id="Rectangle-path" fill="#16638A" fill-rule="nonzero" x="619.6259" y="141.2402" width="5.8491" height="6.8115"></rect>
                        <rect id="Rectangle-path" fill="#16638A" fill-rule="nonzero" x="576.6869" y="140.2559" width="5.8491" height="8.7847"></rect>
                        <rect id="Rectangle-path" fill="#16638A" fill-rule="nonzero" x="533.7479" y="139.2671" width="5.8491" height="10.7622"></rect>
                        <rect id="Rectangle-path" fill="#16638A" fill-rule="nonzero" x="490.809" y="138.2827" width="5.8491" height="12.7354"></rect>
                        <rect id="Rectangle-path" fill="#16638A" fill-rule="nonzero" x="447.87" y="137.2939" width="5.8491" height="14.7129"></rect>
                        <rect id="Rectangle-path" fill="#16638A" fill-rule="nonzero" x="404.931" y="136.3096" width="5.8491" height="16.686"></rect>
                        <rect id="Rectangle-path" fill="#16638A" fill-rule="nonzero" x="361.9921" y="135.3208" width="5.8491" height="18.6636"></rect>
                        <rect id="Rectangle-path" fill="#16638A" fill-rule="nonzero" x="319.0531" y="134.3364" width="5.8491" height="20.6367"></rect>
                        <rect id="Rectangle-path" fill="#16638A" fill-rule="nonzero" x="276.1141" y="133.3477" width="5.8491" height="22.6143"></rect>
                        <rect id="Rectangle-path" fill="#16638A" fill-rule="nonzero" x="233.1752" y="132.3633" width="5.8491" height="24.5874"></rect>
                        <rect id="Rectangle-path" fill="#16638A" fill-rule="nonzero" x="190.2362" y="131.3745" width="5.8491" height="26.5649"></rect>
                        <rect id="Rectangle-path" fill="#16638A" fill-rule="nonzero" x="147.2972" y="130.3901" width="5.8491" height="28.5381"></rect>
                        <rect id="Rectangle-path" fill="#16638A" fill-rule="nonzero" x="104.3583" y="129.4014" width="5.8491" height="30.5156"></rect>
                        <rect id="Rectangle-path" fill="#16638A" fill-rule="nonzero" x="61.4193" y="128.417" width="5.8491" height="32.4888"></rect>
                        <rect id="Rectangle-path" fill="#16638A" fill-rule="nonzero" x="18.4781" y="127.4282" width="5.8491" height="34.4663"></rect>
                        <rect id="Rectangle-path" fill="#16638A" fill-rule="nonzero" x="705.5038" y="87.2974" width="5.8491" height="2.8608"></rect>
                        <rect id="Rectangle-path" fill="#16638A" fill-rule="nonzero" x="662.5648" y="86.3086" width="5.8491" height="4.8384"></rect>
                        <rect id="Rectangle-path" fill="#16638A" fill-rule="nonzero" x="619.6259" y="85.3242" width="5.8491" height="6.8115"></rect>
                        <rect id="Rectangle-path" fill="#16638A" fill-rule="nonzero" x="576.6869" y="84.3354" width="5.8491" height="8.7891"></rect>
                        <rect id="Rectangle-path" fill="#16638A" fill-rule="nonzero" x="533.7479" y="83.3511" width="5.8491" height="10.7622"></rect>
                        <rect id="Rectangle-path" fill="#16638A" fill-rule="nonzero" x="490.809" y="82.3623" width="5.8491" height="12.7397"></rect>
                        <rect id="Rectangle-path" fill="#16638A" fill-rule="nonzero" x="447.87" y="81.3779" width="5.8491" height="14.7129"></rect>
                        <rect id="Rectangle-path" fill="#16638A" fill-rule="nonzero" x="404.931" y="80.3892" width="5.8491" height="16.6904"></rect>
                        <rect id="Rectangle-path" fill="#16638A" fill-rule="nonzero" x="361.9921" y="79.4048" width="5.8491" height="18.6636"></rect>
                        <rect id="Rectangle-path" fill="#16638A" fill-rule="nonzero" x="319.0531" y="78.416" width="5.8491" height="20.6411"></rect>
                        <rect id="Rectangle-path" fill="#16638A" fill-rule="nonzero" x="276.1141" y="77.4316" width="5.8491" height="22.6143"></rect>
                        <rect id="Rectangle-path" fill="#16638A" fill-rule="nonzero" x="233.1752" y="76.4429" width="5.8491" height="24.5918"></rect>
                        <rect id="Rectangle-path" fill="#16638A" fill-rule="nonzero" x="190.2362" y="75.4541" width="5.8491" height="26.5693"></rect>
                        <rect id="Rectangle-path" fill="#16638A" fill-rule="nonzero" x="147.2972" y="74.4697" width="5.8491" height="28.5425"></rect>
                        <rect id="Rectangle-path" fill="#16638A" fill-rule="nonzero" x="104.3583" y="73.481" width="5.8491" height="30.52"></rect>
                        <rect id="Rectangle-path" fill="#16638A" fill-rule="nonzero" x="61.4193" y="72.4966" width="5.8491" height="32.4932"></rect>
                        <rect id="Rectangle-path" fill="#16638A" fill-rule="nonzero" x="18.4781" y="71.5078" width="5.8491" height="34.4707"></rect>
                        <rect id="Rectangle-path" fill="#16638A" fill-rule="nonzero" x="705.5038" y="31.377" width="5.8491" height="2.8608"></rect>
                        <rect id="Rectangle-path" fill="#16638A" fill-rule="nonzero" x="662.5648" y="30.3882" width="5.8491" height="4.8384"></rect>
                        <rect id="Rectangle-path" fill="#16638A" fill-rule="nonzero" x="619.6259" y="29.4038" width="5.8491" height="6.8115"></rect>
                        <rect id="Rectangle-path" fill="#16638A" fill-rule="nonzero" x="576.6869" y="28.415" width="5.8491" height="8.7891"></rect>
                        <rect id="Rectangle-path" fill="#16638A" fill-rule="nonzero" x="533.7479" y="27.4307" width="5.8491" height="10.7622"></rect>
                        <rect id="Rectangle-path" fill="#16638A" fill-rule="nonzero" x="490.809" y="26.4419" width="5.8491" height="12.7397"></rect>
                        <rect id="Rectangle-path" fill="#16638A" fill-rule="nonzero" x="447.87" y="25.4575" width="5.8491" height="14.7129"></rect>
                        <rect id="Rectangle-path" fill="#16638A" fill-rule="nonzero" x="404.931" y="24.4688" width="5.8491" height="16.6904"></rect>
                        <rect id="Rectangle-path" fill="#16638A" fill-rule="nonzero" x="361.9921" y="23.4844" width="5.8491" height="18.6636"></rect>
                        <rect id="Rectangle-path" fill="#16638A" fill-rule="nonzero" x="319.0531" y="22.4956" width="5.8491" height="20.6411"></rect>
                        <rect id="Rectangle-path" fill="#16638A" fill-rule="nonzero" x="276.1141" y="21.5112" width="5.8491" height="22.6143"></rect>
                        <rect id="Rectangle-path" fill="#16638A" fill-rule="nonzero" x="233.1752" y="20.5225" width="5.8491" height="24.5918"></rect>
                        <rect id="Rectangle-path" fill="#16638A" fill-rule="nonzero" x="190.2362" y="19.5381" width="5.8491" height="26.5649"></rect>
                        <rect id="Rectangle-path" fill="#16638A" fill-rule="nonzero" x="147.2972" y="18.5493" width="5.8491" height="28.5425"></rect>
                        <rect id="Rectangle-path" fill="#16638A" fill-rule="nonzero" x="104.3583" y="17.5649" width="5.8491" height="30.5156"></rect>
                        <rect id="Rectangle-path" fill="#16638A" fill-rule="nonzero" x="61.4193" y="16.5762" width="5.8491" height="32.4932"></rect>
                        <rect id="Rectangle-path" fill="#16638A" fill-rule="nonzero" x="18.4781" y="15.5918" width="5.8491" height="34.4663"></rect>
                        <rect id="Rectangle-path" fill="#16638A" fill-rule="nonzero" x="748.6471" y="87.3325" width="5.8491" height="2.8608"></rect>
                        <rect id="Rectangle-path" fill="#16638A" fill-rule="nonzero" x="791.5861" y="86.3438" width="5.8491" height="4.834"></rect>
                        <rect id="Rectangle-path" fill="#16638A" fill-rule="nonzero" x="834.525" y="85.355" width="5.8491" height="6.8115"></rect>
                        <rect id="Rectangle-path" fill="#16638A" fill-rule="nonzero" x="877.464" y="84.3662" width="5.8491" height="8.7847"></rect>
                        <rect id="Rectangle-path" fill="#16638A" fill-rule="nonzero" x="920.403" y="83.3774" width="5.8491" height="10.7622"></rect>
                        <rect id="Rectangle-path" fill="#16638A" fill-rule="nonzero" x="963.3419" y="82.3887" width="5.8491" height="12.7354"></rect>
                        <rect id="Rectangle-path" fill="#16638A" fill-rule="nonzero" x="1006.2809" y="81.3999" width="5.8491" height="14.7129"></rect>
                        <rect id="Rectangle-path" fill="#16638A" fill-rule="nonzero" x="1049.2198" y="80.4111" width="5.8491" height="16.686"></rect>
                        <rect id="Rectangle-path" fill="#16638A" fill-rule="nonzero" x="1092.1588" y="79.4224" width="5.8491" height="18.6636"></rect>
                        <rect id="Rectangle-path" fill="#16638A" fill-rule="nonzero" x="1135.1" y="78.4336" width="5.8491" height="20.6367"></rect>
                        <rect id="Rectangle-path" fill="#16638A" fill-rule="nonzero" x="1178.0389" y="77.4448" width="5.8491" height="22.6143"></rect>
                        <rect id="Rectangle-path" fill="#16638A" fill-rule="nonzero" x="1220.9779" y="76.4517" width="5.8491" height="24.5918"></rect>
                        <rect id="Rectangle-path" fill="#16638A" fill-rule="nonzero" x="1263.9169" y="75.4629" width="5.8491" height="26.5693"></rect>
                        <rect id="Rectangle-path" fill="#16638A" fill-rule="nonzero" x="1306.8558" y="74.4741" width="5.8491" height="28.5425"></rect>
                        <rect id="Rectangle-path" fill="#16638A" fill-rule="nonzero" x="1349.7948" y="73.4854" width="5.8491" height="30.52"></rect>
                        <rect id="Rectangle-path" fill="#16638A" fill-rule="nonzero" x="1392.7338" y="72.4966" width="5.8491" height="32.4932"></rect>
                        <rect id="Rectangle-path" fill="#16638A" fill-rule="nonzero" x="1435.6727" y="71.5078" width="5.8491" height="34.4707"></rect>
                        <rect id="Rectangle-path" fill="#16638A" fill-rule="nonzero" x="748.6471" y="31.4121" width="5.8491" height="2.8608"></rect>
                        <rect id="Rectangle-path" fill="#16638A" fill-rule="nonzero" x="791.5861" y="30.4233" width="5.8491" height="4.8384"></rect>
                        <rect id="Rectangle-path" fill="#16638A" fill-rule="nonzero" x="834.525" y="29.4346" width="5.8491" height="6.8115"></rect>
                        <rect id="Rectangle-path" fill="#16638A" fill-rule="nonzero" x="877.464" y="28.4458" width="5.8491" height="8.7891"></rect>
                        <rect id="Rectangle-path" fill="#16638A" fill-rule="nonzero" x="920.403" y="27.457" width="5.8491" height="10.7622"></rect>
                        <rect id="Rectangle-path" fill="#16638A" fill-rule="nonzero" x="963.3419" y="26.4683" width="5.8491" height="12.7397"></rect>
                        <rect id="Rectangle-path" fill="#16638A" fill-rule="nonzero" x="1006.2809" y="25.4795" width="5.8491" height="14.7129"></rect>
                        <rect id="Rectangle-path" fill="#16638A" fill-rule="nonzero" x="1049.2198" y="24.4907" width="5.8491" height="16.6904"></rect>
                        <rect id="Rectangle-path" fill="#16638A" fill-rule="nonzero" x="1092.1588" y="23.502" width="5.8491" height="18.6636"></rect>
                        <rect id="Rectangle-path" fill="#16638A" fill-rule="nonzero" x="1135.1" y="22.5132" width="5.8491" height="20.6411"></rect>
                        <rect id="Rectangle-path" fill="#16638A" fill-rule="nonzero" x="1178.0389" y="21.5244" width="5.8491" height="22.6143"></rect>
                        <rect id="Rectangle-path" fill="#16638A" fill-rule="nonzero" x="1220.9779" y="20.5356" width="5.8491" height="24.5918"></rect>
                        <rect id="Rectangle-path" fill="#16638A" fill-rule="nonzero" x="1263.9169" y="19.5469" width="5.8491" height="26.5649"></rect>
                        <rect id="Rectangle-path" fill="#16638A" fill-rule="nonzero" x="1306.8558" y="18.5581" width="5.8491" height="28.5425"></rect>
                        <rect id="Rectangle-path" fill="#16638A" fill-rule="nonzero" x="1349.7948" y="17.5693" width="5.8491" height="30.5156"></rect>
                        <rect id="Rectangle-path" fill="#16638A" fill-rule="nonzero" x="1392.7338" y="16.5806" width="5.8491" height="32.4932"></rect>
                        <rect id="Rectangle-path" fill="#16638A" fill-rule="nonzero" x="1435.6727" y="15.5918" width="5.8491" height="34.4663"></rect>
                        <rect id="Rectangle-path" fill="#16638A" fill-rule="nonzero" x="748.6471" y="143.2485" width="5.8491" height="2.8608"></rect>
                        <rect id="Rectangle-path" fill="#16638A" fill-rule="nonzero" x="791.5861" y="142.2598" width="5.8491" height="4.8384"></rect>
                        <rect id="Rectangle-path" fill="#16638A" fill-rule="nonzero" x="834.525" y="141.271" width="5.8491" height="6.8115"></rect>
                        <rect id="Rectangle-path" fill="#16638A" fill-rule="nonzero" x="877.464" y="140.2822" width="5.8491" height="8.7891"></rect>
                        <rect id="Rectangle-path" fill="#16638A" fill-rule="nonzero" x="920.403" y="139.2935" width="5.8491" height="10.7622"></rect>
                        <rect id="Rectangle-path" fill="#16638A" fill-rule="nonzero" x="963.3419" y="138.3047" width="5.8491" height="12.7397"></rect>
                        <rect id="Rectangle-path" fill="#16638A" fill-rule="nonzero" x="1006.2809" y="137.3159" width="5.8491" height="14.7129"></rect>
                        <rect id="Rectangle-path" fill="#16638A" fill-rule="nonzero" x="1049.2198" y="136.3271" width="5.8491" height="16.6904"></rect>
                        <rect id="Rectangle-path" fill="#16638A" fill-rule="nonzero" x="1092.1588" y="135.3384" width="5.8491" height="18.6636"></rect>
                        <rect id="Rectangle-path" fill="#16638A" fill-rule="nonzero" x="1135.1" y="134.3496" width="5.8491" height="20.6411"></rect>
                        <rect id="Rectangle-path" fill="#16638A" fill-rule="nonzero" x="1178.0389" y="133.3608" width="5.8491" height="22.6143"></rect>
                        <rect id="Rectangle-path" fill="#16638A" fill-rule="nonzero" x="1220.9779" y="132.3721" width="5.8491" height="24.5918"></rect>
                        <rect id="Rectangle-path" fill="#16638A" fill-rule="nonzero" x="1263.9169" y="131.3833" width="5.8491" height="26.5649"></rect>
                        <rect id="Rectangle-path" fill="#16638A" fill-rule="nonzero" x="1306.8558" y="130.3945" width="5.8491" height="28.5425"></rect>
                        <rect id="Rectangle-path" fill="#16638A" fill-rule="nonzero" x="1349.7948" y="129.4058" width="5.8491" height="30.5156"></rect>
                        <rect id="Rectangle-path" fill="#16638A" fill-rule="nonzero" x="1392.7338" y="128.417" width="5.8491" height="32.4932"></rect>
                        <rect id="Rectangle-path" fill="#16638A" fill-rule="nonzero" x="1435.6727" y="127.4282" width="5.8491" height="34.4663"></rect>
                        <rect id="Rectangle-path" fill="#16638A" fill-rule="nonzero" x="748.6471" y="199.1689" width="5.8491" height="2.8608"></rect>
                        <rect id="Rectangle-path" fill="#16638A" fill-rule="nonzero" x="791.5861" y="198.1802" width="5.8491" height="4.834"></rect>
                        <rect id="Rectangle-path" fill="#16638A" fill-rule="nonzero" x="834.525" y="197.1914" width="5.8491" height="6.8115"></rect>
                        <rect id="Rectangle-path" fill="#16638A" fill-rule="nonzero" x="877.464" y="196.2026" width="5.8491" height="8.7847"></rect>
                        <rect id="Rectangle-path" fill="#16638A" fill-rule="nonzero" x="920.403" y="195.2139" width="5.8491" height="10.7622"></rect>
                        <rect id="Rectangle-path" fill="#16638A" fill-rule="nonzero" x="963.3419" y="194.2251" width="5.8491" height="12.7354"></rect>
                        <rect id="Rectangle-path" fill="#16638A" fill-rule="nonzero" x="1006.2809" y="193.2363" width="5.8491" height="14.7129"></rect>
                        <rect id="Rectangle-path" fill="#16638A" fill-rule="nonzero" x="1049.2198" y="192.2476" width="5.8491" height="16.686"></rect>
                        <rect id="Rectangle-path" fill="#16638A" fill-rule="nonzero" x="1092.1588" y="191.2588" width="5.8491" height="18.6636"></rect>
                        <rect id="Rectangle-path" fill="#16638A" fill-rule="nonzero" x="1135.1" y="190.27" width="5.8491" height="20.6367"></rect>
                        <rect id="Rectangle-path" fill="#16638A" fill-rule="nonzero" x="1178.0389" y="189.2813" width="5.8491" height="22.6143"></rect>
                        <rect id="Rectangle-path" fill="#16638A" fill-rule="nonzero" x="1220.9779" y="188.2925" width="5.8491" height="24.5874"></rect>
                        <rect id="Rectangle-path" fill="#16638A" fill-rule="nonzero" x="1263.9169" y="187.3037" width="5.8491" height="26.5649"></rect>
                        <rect id="Rectangle-path" fill="#16638A" fill-rule="nonzero" x="1306.8558" y="186.3149" width="5.8491" height="28.5381"></rect>
                        <rect id="Rectangle-path" fill="#16638A" fill-rule="nonzero" x="1349.7948" y="185.3262" width="5.8491" height="30.5156"></rect>
                        <rect id="Rectangle-path" fill="#16638A" fill-rule="nonzero" x="1392.7338" y="184.3374" width="5.8491" height="32.4888"></rect>
                        <rect id="Rectangle-path" fill="#16638A" fill-rule="nonzero" x="1435.6727" y="183.3486" width="5.8491" height="34.4663"></rect>
                        <rect id="Rectangle-path" fill="#16638A" fill-rule="nonzero" x="748.6471" y="255.085" width="5.8491" height="2.8608"></rect>
                        <rect id="Rectangle-path" fill="#16638A" fill-rule="nonzero" x="791.5861" y="254.0962" width="5.8491" height="4.8384"></rect>
                        <rect id="Rectangle-path" fill="#16638A" fill-rule="nonzero" x="834.525" y="253.1074" width="5.8491" height="6.8115"></rect>
                        <rect id="Rectangle-path" fill="#16638A" fill-rule="nonzero" x="877.464" y="252.1187" width="5.8491" height="8.7891"></rect>
                        <rect id="Rectangle-path" fill="#16638A" fill-rule="nonzero" x="920.403" y="251.1299" width="5.8491" height="10.7622"></rect>
                        <rect id="Rectangle-path" fill="#16638A" fill-rule="nonzero" x="963.3419" y="250.1411" width="5.8491" height="12.7397"></rect>
                        <rect id="Rectangle-path" fill="#16638A" fill-rule="nonzero" x="1006.2809" y="249.1523" width="5.8491" height="14.7129"></rect>
                        <rect id="Rectangle-path" fill="#16638A" fill-rule="nonzero" x="1049.2198" y="248.1636" width="5.8491" height="16.6904"></rect>
                        <rect id="Rectangle-path" fill="#16638A" fill-rule="nonzero" x="1092.1588" y="247.1748" width="5.8491" height="18.6636"></rect>
                        <rect id="Rectangle-path" fill="#16638A" fill-rule="nonzero" x="1135.1" y="246.186" width="5.8491" height="20.6411"></rect>
                        <rect id="Rectangle-path" fill="#16638A" fill-rule="nonzero" x="1178.0389" y="245.1973" width="5.8491" height="22.6143"></rect>
                        <rect id="Rectangle-path" fill="#16638A" fill-rule="nonzero" x="1220.9779" y="244.2085" width="5.8491" height="24.5918"></rect>
                        <rect id="Rectangle-path" fill="#16638A" fill-rule="nonzero" x="1263.9169" y="243.2197" width="5.8491" height="26.5649"></rect>
                        <rect id="Rectangle-path" fill="#16638A" fill-rule="nonzero" x="1306.8558" y="242.231" width="5.8491" height="28.5425"></rect>
                        <rect id="Rectangle-path" fill="#16638A" fill-rule="nonzero" x="1349.7948" y="241.2422" width="5.8491" height="30.5156"></rect>
                        <rect id="Rectangle-path" fill="#16638A" fill-rule="nonzero" x="1392.7338" y="240.2534" width="5.8491" height="32.4932"></rect>
                        <rect id="Rectangle-path" fill="#16638A" fill-rule="nonzero" x="1435.6727" y="239.2646" width="5.8491" height="34.4663"></rect>
                        <rect id="Rectangle-path" fill="#16638A" fill-rule="nonzero" x="748.6471" y="311.0054" width="5.8491" height="2.8608"></rect>
                        <rect id="Rectangle-path" fill="#16638A" fill-rule="nonzero" x="791.5861" y="310.0166" width="5.8491" height="4.834"></rect>
                        <rect id="Rectangle-path" fill="#16638A" fill-rule="nonzero" x="834.525" y="309.0278" width="5.8491" height="6.8115"></rect>
                        <rect id="Rectangle-path" fill="#16638A" fill-rule="nonzero" x="877.464" y="308.0391" width="5.8491" height="8.7847"></rect>
                        <rect id="Rectangle-path" fill="#16638A" fill-rule="nonzero" x="920.403" y="307.0503" width="5.8491" height="10.7622"></rect>
                        <rect id="Rectangle-path" fill="#16638A" fill-rule="nonzero" x="963.3419" y="306.0615" width="5.8491" height="12.7354"></rect>
                        <rect id="Rectangle-path" fill="#16638A" fill-rule="nonzero" x="1006.2809" y="305.0728" width="5.8491" height="14.7129"></rect>
                        <rect id="Rectangle-path" fill="#16638A" fill-rule="nonzero" x="1049.2198" y="304.084" width="5.8491" height="16.686"></rect>
                        <rect id="Rectangle-path" fill="#16638A" fill-rule="nonzero" x="1092.1588" y="303.0952" width="5.8491" height="18.6636"></rect>
                        <rect id="Rectangle-path" fill="#16638A" fill-rule="nonzero" x="1135.1" y="302.1064" width="5.8491" height="20.6367"></rect>
                        <rect id="Rectangle-path" fill="#16638A" fill-rule="nonzero" x="1178.0389" y="301.1177" width="5.8491" height="22.6143"></rect>
                        <rect id="Rectangle-path" fill="#16638A" fill-rule="nonzero" x="1220.9779" y="300.1289" width="5.8491" height="24.5874"></rect>
                        <rect id="Rectangle-path" fill="#16638A" fill-rule="nonzero" x="1263.9169" y="299.1401" width="5.8491" height="26.5649"></rect>
                        <rect id="Rectangle-path" fill="#16638A" fill-rule="nonzero" x="1306.8558" y="298.1514" width="5.8491" height="28.5381"></rect>
                        <rect id="Rectangle-path" fill="#16638A" fill-rule="nonzero" x="1349.7948" y="297.1626" width="5.8491" height="30.5156"></rect>
                        <rect id="Rectangle-path" fill="#16638A" fill-rule="nonzero" x="1392.7338" y="296.1738" width="5.8491" height="32.4888"></rect>
                        <rect id="Rectangle-path" fill="#16638A" fill-rule="nonzero" x="1435.6727" y="295.1851" width="5.8491" height="34.4663"></rect>
                        <rect id="Rectangle-path" fill="#16638A" fill-rule="nonzero" x="748.6471" y="366.9214" width="5.8491" height="2.8608"></rect>
                        <rect id="Rectangle-path" fill="#16638A" fill-rule="nonzero" x="791.5861" y="365.9326" width="5.8491" height="4.8384"></rect>
                        <rect id="Rectangle-path" fill="#16638A" fill-rule="nonzero" x="834.525" y="364.9438" width="5.8491" height="6.8115"></rect>
                        <rect id="Rectangle-path" fill="#16638A" fill-rule="nonzero" x="877.464" y="363.9551" width="5.8491" height="8.7891"></rect>
                        <rect id="Rectangle-path" fill="#16638A" fill-rule="nonzero" x="920.403" y="362.9663" width="5.8491" height="10.7622"></rect>
                        <rect id="Rectangle-path" fill="#16638A" fill-rule="nonzero" x="963.3419" y="361.9775" width="5.8491" height="12.7397"></rect>
                        <rect id="Rectangle-path" fill="#16638A" fill-rule="nonzero" x="1006.2809" y="360.9888" width="5.8491" height="14.7129"></rect>
                        <rect id="Rectangle-path" fill="#16638A" fill-rule="nonzero" x="1049.2198" y="360" width="5.8491" height="16.6904"></rect>
                        <rect id="Rectangle-path" fill="#16638A" fill-rule="nonzero" x="1092.1588" y="359.0112" width="5.8491" height="18.6636"></rect>
                        <rect id="Rectangle-path" fill="#16638A" fill-rule="nonzero" x="1135.1" y="358.0225" width="5.8491" height="20.6411"></rect>
                        <rect id="Rectangle-path" fill="#16638A" fill-rule="nonzero" x="1178.0389" y="357.0337" width="5.8491" height="22.6143"></rect>
                        <rect id="Rectangle-path" fill="#16638A" fill-rule="nonzero" x="1220.9779" y="356.0449" width="5.8491" height="24.5918"></rect>
                        <rect id="Rectangle-path" fill="#16638A" fill-rule="nonzero" x="1263.9169" y="355.0562" width="5.8491" height="26.5649"></rect>
                        <rect id="Rectangle-path" fill="#16638A" fill-rule="nonzero" x="1306.8558" y="354.0674" width="5.8491" height="28.5425"></rect>
                        <rect id="Rectangle-path" fill="#16638A" fill-rule="nonzero" x="1349.7948" y="353.0786" width="5.8491" height="30.5156"></rect>
                        <rect id="Rectangle-path" fill="#16638A" fill-rule="nonzero" x="1392.7338" y="352.0898" width="5.8491" height="32.4932"></rect>
                        <rect id="Rectangle-path" fill="#16638A" fill-rule="nonzero" x="1435.6727" y="351.1011" width="5.8491" height="34.4663"></rect>
                        <rect id="Rectangle-path" fill="#16638A" fill-rule="nonzero" x="748.6471" y="422.8418" width="5.8491" height="2.8608"></rect>
                        <rect id="Rectangle-path" fill="#16638A" fill-rule="nonzero" x="791.5861" y="421.853" width="5.8491" height="4.834"></rect>
                        <rect id="Rectangle-path" fill="#16638A" fill-rule="nonzero" x="834.525" y="420.8643" width="5.8491" height="6.8115"></rect>
                        <rect id="Rectangle-path" fill="#16638A" fill-rule="nonzero" x="877.464" y="419.8755" width="5.8491" height="8.7847"></rect>
                        <rect id="Rectangle-path" fill="#16638A" fill-rule="nonzero" x="920.403" y="418.8867" width="5.8491" height="10.7622"></rect>
                        <rect id="Rectangle-path" fill="#16638A" fill-rule="nonzero" x="963.3419" y="417.8979" width="5.8491" height="12.7354"></rect>
                        <rect id="Rectangle-path" fill="#16638A" fill-rule="nonzero" x="1006.2809" y="416.9092" width="5.8491" height="14.7129"></rect>
                        <rect id="Rectangle-path" fill="#16638A" fill-rule="nonzero" x="1049.2198" y="415.9204" width="5.8491" height="16.686"></rect>
                        <rect id="Rectangle-path" fill="#16638A" fill-rule="nonzero" x="1092.1588" y="414.9316" width="5.8491" height="18.6636"></rect>
                        <rect id="Rectangle-path" fill="#16638A" fill-rule="nonzero" x="1135.1" y="413.9429" width="5.8491" height="20.6367"></rect>
                        <rect id="Rectangle-path" fill="#16638A" fill-rule="nonzero" x="1178.0389" y="412.9541" width="5.8491" height="22.6143"></rect>
                        <rect id="Rectangle-path" fill="#16638A" fill-rule="nonzero" x="1220.9779" y="411.9653" width="5.8491" height="24.5874"></rect>
                        <rect id="Rectangle-path" fill="#16638A" fill-rule="nonzero" x="1263.9169" y="410.9766" width="5.8491" height="26.5649"></rect>
                        <rect id="Rectangle-path" fill="#16638A" fill-rule="nonzero" x="1306.8558" y="409.9878" width="5.8491" height="28.5381"></rect>
                        <rect id="Rectangle-path" fill="#16638A" fill-rule="nonzero" x="1349.7948" y="408.999" width="5.8491" height="30.5156"></rect>
                        <rect id="Rectangle-path" fill="#16638A" fill-rule="nonzero" x="1392.7338" y="408.0103" width="5.8491" height="32.4888"></rect>
                        <rect id="Rectangle-path" fill="#16638A" fill-rule="nonzero" x="1435.6727" y="407.0215" width="5.8491" height="34.4663"></rect>
                        <rect id="Rectangle-path" fill="#16638A" fill-rule="nonzero" x="748.6471" y="478.7578" width="5.8491" height="2.8608"></rect>
                        <rect id="Rectangle-path" fill="#16638A" fill-rule="nonzero" x="791.5861" y="477.769" width="5.8491" height="4.8384"></rect>
                        <rect id="Rectangle-path" fill="#16638A" fill-rule="nonzero" x="834.525" y="476.7803" width="5.8491" height="6.8115"></rect>
                        <rect id="Rectangle-path" fill="#16638A" fill-rule="nonzero" x="877.464" y="475.7915" width="5.8491" height="8.7891"></rect>
                        <rect id="Rectangle-path" fill="#16638A" fill-rule="nonzero" x="920.403" y="474.8027" width="5.8491" height="10.7622"></rect>
                        <rect id="Rectangle-path" fill="#16638A" fill-rule="nonzero" x="963.3419" y="473.814" width="5.8491" height="12.7397"></rect>
                        <rect id="Rectangle-path" fill="#16638A" fill-rule="nonzero" x="1006.2809" y="472.8252" width="5.8491" height="14.7129"></rect>
                        <rect id="Rectangle-path" fill="#16638A" fill-rule="nonzero" x="1049.2198" y="471.8364" width="5.8491" height="16.6904"></rect>
                        <rect id="Rectangle-path" fill="#16638A" fill-rule="nonzero" x="1092.1588" y="470.8477" width="5.8491" height="18.6636"></rect>
                        <rect id="Rectangle-path" fill="#16638A" fill-rule="nonzero" x="1135.1" y="469.8589" width="5.8491" height="20.6411"></rect>
                        <rect id="Rectangle-path" fill="#16638A" fill-rule="nonzero" x="1178.0389" y="468.8701" width="5.8491" height="22.6143"></rect>
                        <rect id="Rectangle-path" fill="#16638A" fill-rule="nonzero" x="1220.9779" y="467.8813" width="5.8491" height="24.5918"></rect>
                        <rect id="Rectangle-path" fill="#16638A" fill-rule="nonzero" x="1263.9169" y="466.8926" width="5.8491" height="26.5649"></rect>
                        <rect id="Rectangle-path" fill="#16638A" fill-rule="nonzero" x="1306.8558" y="465.9038" width="5.8491" height="28.5425"></rect>
                        <rect id="Rectangle-path" fill="#16638A" fill-rule="nonzero" x="1349.7948" y="464.915" width="5.8491" height="30.5156"></rect>
                        <rect id="Rectangle-path" fill="#16638A" fill-rule="nonzero" x="1392.7338" y="463.9263" width="5.8491" height="32.4932"></rect>
                        <rect id="Rectangle-path" fill="#16638A" fill-rule="nonzero" x="1435.6727" y="462.9375" width="5.8491" height="34.4707"></rect>
                    </g>
                </g>
            </g>
        </g>
    </g>
</svg>