<?xml version="1.0" encoding="utf-8"?>
<!-- Generator: Adobe Illustrator 23.0.2, SVG Export Plug-In . SVG Version: 6.00 Build 0)  -->
<svg version="1.1" id="Layer_1" xmlns="http://www.w3.org/2000/svg" xmlns:xlink="http://www.w3.org/1999/xlink" x="0px" y="0px"
	 viewBox="0 0 680 404" style="enable-background:new 0 0 680 404;" xml:space="preserve">
<style type="text/css">
	.st0{fill:#71BCC2;}
	.st1{enable-background:new    ;}
	.st2{clip-path:url(#SVGID_2_);}
	.st3{clip-path:url(#SVGID_4_);fill:#BDDCE0;stroke:#FFFFFF;stroke-width:5;stroke-miterlimit:10;}
	.st4{fill:none;stroke:#FFFFFF;stroke-width:5;stroke-miterlimit:10;}
	.st5{clip-path:url(#SVGID_6_);}
	.st6{clip-path:url(#SVGID_8_);fill:#AA1F25;}
	.st7{clip-path:url(#SVGID_10_);}
	.st8{clip-path:url(#SVGID_12_);fill:#FFFFFF;}
	.st9{fill:none;stroke:#FFFFFF;stroke-width:1.236;stroke-miterlimit:10;}
	.st10{clip-path:url(#SVGID_14_);}
	.st11{clip-path:url(#SVGID_16_);fill:#FFFFFF;}
	.st12{clip-path:url(#SVGID_18_);}
	.st13{clip-path:url(#SVGID_20_);fill:#FFFFFF;}
	.st14{clip-path:url(#SVGID_22_);}
	.st15{clip-path:url(#SVGID_24_);fill:#FFFFFF;}
	.st16{clip-path:url(#SVGID_26_);}
	.st17{clip-path:url(#SVGID_28_);fill:#FFFFFF;}
	.st18{clip-path:url(#SVGID_30_);}
	.st19{clip-path:url(#SVGID_32_);fill:#FFFFFF;}
	.st20{clip-path:url(#SVGID_34_);}
	.st21{clip-path:url(#SVGID_36_);fill:#FFFFFF;}
	.st22{clip-path:url(#SVGID_38_);}
	.st23{clip-path:url(#SVGID_40_);fill:#FFFFFF;}
	.st24{clip-path:url(#SVGID_42_);}
	.st25{fill:#FFFFFF;}
</style>
<rect class="st0" width="680" height="404"/>
<g>
	<g>
		<g>
			<g class="st1">
				<g>
					<g>
						<g>
							<g class="st1">
								<g>
									<g>
										<g>
											<defs>
												<path id="SVGID_1_" d="M215.7,168.2c0-12.9-10.5-23.4-23.4-23.4c-1.3,0-2.5,0.1-3.7,0.3c-4.5-14.9-18.2-25.7-34.5-25.7
													c-19.9,0-36,16.1-36,36.1c0,0.7,0,1.3,0.1,2c-0.2,0-0.4,0-0.7,0c-9.4,0-17,7.6-17,17s7.6,17,17,17l0,0h75
													C205.3,191.5,215.7,181.1,215.7,168.2"/>
											</defs>
											<clipPath id="SVGID_2_">
												<use xlink:href="#SVGID_1_"  style="overflow:visible;"/>
											</clipPath>
											<g class="st2">
												<g>
													<defs>
														<rect id="SVGID_3_" x="-545.2" y="26.3" width="1214.6" height="353.4"/>
													</defs>
													<clipPath id="SVGID_4_">
														<use xlink:href="#SVGID_3_"  style="overflow:visible;"/>
													</clipPath>
													<rect x="96.2" y="115.3" class="st3" width="123.8" height="80.5"/>
												</g>
											</g>
										</g>
									</g>
									<g>
										<path class="st4" d="M215.7,168.2c0-12.9-10.5-23.4-23.4-23.4c-1.3,0-2.5,0.1-3.7,0.3c-4.5-14.9-18.2-25.7-34.5-25.7
											c-19.9,0-36,16.1-36,36.1c0,0.7,0,1.3,0.1,2c-0.2,0-0.4,0-0.7,0c-9.4,0-17,7.6-17,17s7.6,17,17,17l0,0h75
											C205.3,191.5,215.7,181.1,215.7,168.2z"/>
									</g>
									<g>
										<g>
											<defs>
												<polygon id="SVGID_5_" points="167.1,143.6 149.1,143.6 149.1,158.1 139.8,158.1 158.1,179.3 176.3,158.1 167.1,158.1 
																									"/>
											</defs>
											<clipPath id="SVGID_6_">
												<use xlink:href="#SVGID_5_"  style="overflow:visible;"/>
											</clipPath>
											<g class="st5">
												<g>
													<defs>
														<rect id="SVGID_7_" x="-545.2" y="26.3" width="1214.6" height="353.4"/>
													</defs>
													<clipPath id="SVGID_8_">
														<use xlink:href="#SVGID_7_"  style="overflow:visible;"/>
													</clipPath>
													<rect x="135.6" y="139.4" class="st6" width="44.9" height="44.1"/>
												</g>
											</g>
										</g>
									</g>
									<g>
										<g>
											<defs>
												<path id="SVGID_9_" d="M102.6,207h20.1c4.1,0,7.6,0.5,10.7,1.4c3.1,0.9,5.7,2.2,8,3.7c2.2,1.5,4.1,3.3,5.6,5.3
													s2.7,4.1,3.5,6.2c0.9,2.1,1.5,4.2,1.9,6.3s0.6,4.1,0.6,5.8c0,3.7-0.7,7.2-2,10.7c-1.4,3.4-3.4,6.5-6,9.2
													c-2.7,2.7-5.9,4.8-9.9,6.5c-3.9,1.6-8.5,2.4-13.6,2.4h-18.8V207H102.6z M110.4,257.1h9.8c3.3,0,6.4-0.4,9.4-1.3
													c2.9-0.9,5.5-2.2,7.8-4c2.2-1.8,4-4,5.3-6.7s1.9-5.8,1.9-9.4c0-1.8-0.3-4-0.9-6.5c-0.6-2.5-1.7-4.8-3.4-7
													s-3.9-4.1-6.9-5.6c-2.9-1.5-6.7-2.3-11.4-2.3h-11.7L110.4,257.1L110.4,257.1z"/>
											</defs>
											<clipPath id="SVGID_10_">
												<use xlink:href="#SVGID_9_"  style="overflow:visible;"/>
											</clipPath>
											<g class="st7">
												<g>
													<defs>
														<rect id="SVGID_11_" x="-545.2" y="26.3" width="1214.6" height="353.4"/>
													</defs>
													<clipPath id="SVGID_12_">
														<use xlink:href="#SVGID_11_"  style="overflow:visible;"/>
													</clipPath>
													<rect x="98.4" y="202.7" class="st8" width="58.7" height="65.9"/>
												</g>
											</g>
										</g>
									</g>
									<g>
										<path class="st9" d="M102.6,207h20.1c4.1,0,7.6,0.5,10.7,1.4c3.1,0.9,5.7,2.2,8,3.7c2.2,1.5,4.1,3.3,5.6,5.3
											s2.7,4.1,3.5,6.2c0.9,2.1,1.5,4.2,1.9,6.3s0.6,4.1,0.6,5.8c0,3.7-0.7,7.2-2,10.7c-1.4,3.4-3.4,6.5-6,9.2
											c-2.7,2.7-5.9,4.8-9.9,6.5c-3.9,1.6-8.5,2.4-13.6,2.4h-18.8V207H102.6z M110.4,257.1h9.8c3.3,0,6.4-0.4,9.4-1.3
											c2.9-0.9,5.5-2.2,7.8-4c2.2-1.8,4-4,5.3-6.7s1.9-5.8,1.9-9.4c0-1.8-0.3-4-0.9-6.5c-0.6-2.5-1.7-4.8-3.4-7
											s-3.9-4.1-6.9-5.6c-2.9-1.5-6.7-2.3-11.4-2.3h-11.7L110.4,257.1L110.4,257.1z"/>
									</g>
									<g>
										<g>
											<defs>
												<path id="SVGID_13_" d="M188,265.9c-4.4,0-8.4-0.8-12.1-2.3c-3.7-1.5-6.8-3.7-9.5-6.4c-2.6-2.7-4.7-5.9-6.2-9.6
													c-1.5-3.7-2.2-7.7-2.2-11.9c0-4.3,0.7-8.3,2.2-11.9c1.5-3.7,3.5-6.9,6.2-9.6c2.6-2.7,5.8-4.8,9.5-6.4
													c3.7-1.5,7.7-2.3,12.1-2.3c4.4,0,8.4,0.8,12.1,2.3c3.7,1.5,6.8,3.7,9.5,6.4c2.6,2.7,4.7,5.9,6.2,9.6
													c1.5,3.7,2.2,7.7,2.2,11.9c0,4.3-0.7,8.3-2.2,11.9c-1.5,3.7-3.5,6.9-6.2,9.6c-2.6,2.7-5.8,4.8-9.5,6.4
													C196.5,265.1,192.4,265.9,188,265.9 M188,258.6c3.3,0,6.3-0.6,8.9-1.8c2.7-1.2,4.9-2.9,6.8-4.9c1.9-2.1,3.4-4.5,4.4-7.3
													s1.5-5.8,1.5-8.9s-0.5-6.1-1.5-8.9c-1-2.8-2.5-5.2-4.4-7.3s-4.2-3.7-6.8-4.9c-2.7-1.2-5.6-1.8-8.9-1.8
													c-3.3,0-6.3,0.6-8.9,1.8c-2.7,1.2-4.9,2.9-6.8,4.9c-1.9,2.1-3.4,4.5-4.4,7.3s-1.5,5.8-1.5,8.9s0.5,6.1,1.5,8.9
													c1,2.8,2.5,5.2,4.4,7.3s4.2,3.7,6.8,4.9C181.8,258,184.7,258.6,188,258.6"/>
											</defs>
											<clipPath id="SVGID_14_">
												<use xlink:href="#SVGID_13_"  style="overflow:visible;"/>
											</clipPath>
											<g class="st10">
												<g>
													<defs>
														<rect id="SVGID_15_" x="-545.2" y="26.3" width="1214.6" height="353.4"/>
													</defs>
													<clipPath id="SVGID_16_">
														<use xlink:href="#SVGID_15_"  style="overflow:visible;"/>
													</clipPath>
													<rect x="153.9" y="201.3" class="st11" width="68.4" height="68.8"/>
												</g>
											</g>
										</g>
									</g>
									<g>
										<path class="st9" d="M188,265.9c-4.4,0-8.4-0.8-12.1-2.3c-3.7-1.5-6.8-3.7-9.5-6.4c-2.6-2.7-4.7-5.9-6.2-9.6
											c-1.5-3.7-2.2-7.7-2.2-11.9s0.7-8.3,2.2-11.9c1.5-3.7,3.5-6.9,6.2-9.6c2.6-2.7,5.8-4.8,9.5-6.4c3.7-1.5,7.7-2.3,12.1-2.3
											c4.4,0,8.4,0.8,12.1,2.3c3.7,1.5,6.8,3.7,9.5,6.4c2.6,2.7,4.7,5.9,6.2,9.6c1.5,3.7,2.2,7.7,2.2,11.9s-0.7,8.3-2.2,11.9
											c-1.5,3.7-3.5,6.9-6.2,9.6c-2.6,2.7-5.8,4.8-9.5,6.4C196.5,265.1,192.4,265.9,188,265.9z M188,258.6
											c3.3,0,6.3-0.6,8.9-1.8c2.7-1.2,4.9-2.9,6.8-4.9c1.9-2.1,3.4-4.5,4.4-7.3s1.5-5.8,1.5-8.9s-0.5-6.1-1.5-8.9
											c-1-2.8-2.5-5.2-4.4-7.3s-4.2-3.7-6.8-4.9c-2.7-1.2-5.6-1.8-8.9-1.8c-3.3,0-6.3,0.6-8.9,1.8c-2.7,1.2-4.9,2.9-6.8,4.9
											c-1.9,2.1-3.4,4.5-4.4,7.3s-1.5,5.8-1.5,8.9s0.5,6.1,1.5,8.9c1,2.8,2.5,5.2,4.4,7.3s4.2,3.7,6.8,4.9
											C181.8,258,184.7,258.6,188,258.6z"/>
									</g>
									<g>
										<g>
											<defs>
												<polygon id="SVGID_17_" points="220.3,207 228.4,207 241.1,252.9 241.3,252.9 254.8,207 263.7,207 277.2,252.9 
													277.4,252.9 290.1,207 298.2,207 281.5,264.4 273.2,264.4 259.3,217.5 259.2,217.5 245.4,264.4 237.1,264.4 
																									"/>
											</defs>
											<clipPath id="SVGID_18_">
												<use xlink:href="#SVGID_17_"  style="overflow:visible;"/>
											</clipPath>
											<g class="st12">
												<g>
													<defs>
														<rect id="SVGID_19_" x="-545.2" y="26.3" width="1214.6" height="353.4"/>
													</defs>
													<clipPath id="SVGID_20_">
														<use xlink:href="#SVGID_19_"  style="overflow:visible;"/>
													</clipPath>
													<rect x="216.1" y="202.7" class="st13" width="86.4" height="65.9"/>
												</g>
											</g>
										</g>
									</g>
									<g>
										<polygon class="st9" points="220.3,207 228.4,207 241.1,252.9 241.3,252.9 254.8,207 263.7,207 277.2,252.9 277.4,252.9 
											290.1,207 298.2,207 281.5,264.4 273.2,264.4 259.3,217.5 259.2,217.5 245.4,264.4 237.1,264.4 										"/>
									</g>
									<g>
										<g>
											<defs>
												<polygon id="SVGID_21_" points="303.2,207 313.5,207 345.1,254.2 345.3,254.2 345.3,207 353.1,207 353.1,264.4 
													343.2,264.4 311.2,217.2 311,217.2 311,264.4 303.2,264.4 												"/>
											</defs>
											<clipPath id="SVGID_22_">
												<use xlink:href="#SVGID_21_"  style="overflow:visible;"/>
											</clipPath>
											<g class="st14">
												<g>
													<defs>
														<rect id="SVGID_23_" x="-545.2" y="26.3" width="1214.6" height="353.4"/>
													</defs>
													<clipPath id="SVGID_24_">
														<use xlink:href="#SVGID_23_"  style="overflow:visible;"/>
													</clipPath>
													<rect x="299" y="202.7" class="st15" width="58.3" height="65.9"/>
												</g>
											</g>
										</g>
									</g>
									<g>
										<polygon class="st9" points="303.2,207 313.5,207 345.1,254.2 345.3,254.2 345.3,207 353.1,207 353.1,264.4 343.2,264.4 
											311.2,217.2 311,217.2 311,264.4 303.2,264.4 										"/>
									</g>
									<g>
										<g>
											<defs>
												<polygon id="SVGID_25_" points="362.2,207 370,207 370,257.1 396.4,257.1 396.4,264.4 362.2,264.4 												"/>
											</defs>
											<clipPath id="SVGID_26_">
												<use xlink:href="#SVGID_25_"  style="overflow:visible;"/>
											</clipPath>
											<g class="st16">
												<g>
													<defs>
														<rect id="SVGID_27_" x="-545.2" y="26.3" width="1214.6" height="353.4"/>
													</defs>
													<clipPath id="SVGID_28_">
														<use xlink:href="#SVGID_27_"  style="overflow:visible;"/>
													</clipPath>
													<rect x="358" y="202.7" class="st17" width="42.6" height="65.9"/>
												</g>
											</g>
										</g>
									</g>
									<g>
										<polygon class="st9" points="362.2,207 370,207 370,257.1 396.4,257.1 396.4,264.4 362.2,264.4 										"/>
									</g>
									<g>
										<g>
											<defs>
												<path id="SVGID_29_" d="M428.3,265.9c-4.4,0-8.4-0.8-12.1-2.3s-6.8-3.7-9.5-6.4c-2.6-2.7-4.7-5.9-6.2-9.6
													c-1.5-3.7-2.2-7.7-2.2-11.9c0-4.3,0.7-8.3,2.2-11.9c1.5-3.7,3.5-6.9,6.2-9.6c2.6-2.7,5.8-4.8,9.5-6.4
													c3.7-1.5,7.7-2.3,12.1-2.3s8.4,0.8,12.1,2.3s6.8,3.7,9.5,6.4c2.6,2.7,4.7,5.9,6.2,9.6c1.5,3.7,2.2,7.7,2.2,11.9
													c0,4.3-0.7,8.3-2.2,11.9c-1.5,3.7-3.5,6.9-6.2,9.6c-2.6,2.7-5.8,4.8-9.5,6.4C436.7,265.1,432.7,265.9,428.3,265.9
													 M428.3,258.6c3.3,0,6.3-0.6,8.9-1.8c2.7-1.2,4.9-2.9,6.8-4.9c1.9-2.1,3.4-4.5,4.4-7.3s1.5-5.8,1.5-8.9
													s-0.5-6.1-1.5-8.9c-1-2.8-2.5-5.2-4.4-7.3s-4.2-3.7-6.8-4.9c-2.7-1.2-5.6-1.8-8.9-1.8s-6.3,0.6-8.9,1.8
													c-2.7,1.2-4.9,2.9-6.8,4.9c-1.9,2.1-3.4,4.5-4.4,7.3s-1.5,5.8-1.5,8.9s0.5,6.1,1.5,8.9c1,2.8,2.5,5.2,4.4,7.3
													s4.2,3.7,6.8,4.9C422,258,425,258.6,428.3,258.6"/>
											</defs>
											<clipPath id="SVGID_30_">
												<use xlink:href="#SVGID_29_"  style="overflow:visible;"/>
											</clipPath>
											<g class="st18">
												<g>
													<defs>
														<rect id="SVGID_31_" x="-545.2" y="26.3" width="1214.6" height="353.4"/>
													</defs>
													<clipPath id="SVGID_32_">
														<use xlink:href="#SVGID_31_"  style="overflow:visible;"/>
													</clipPath>
													<rect x="394.1" y="201.3" class="st19" width="68.4" height="68.8"/>
												</g>
											</g>
										</g>
									</g>
									<g>
										<path class="st9" d="M428.3,265.9c-4.4,0-8.4-0.8-12.1-2.3s-6.8-3.7-9.5-6.4c-2.6-2.7-4.7-5.9-6.2-9.6
											c-1.5-3.7-2.2-7.7-2.2-11.9s0.7-8.3,2.2-11.9c1.5-3.7,3.5-6.9,6.2-9.6c2.6-2.7,5.8-4.8,9.5-6.4c3.7-1.5,7.7-2.3,12.1-2.3
											s8.4,0.8,12.1,2.3s6.8,3.7,9.5,6.4c2.6,2.7,4.7,5.9,6.2,9.6c1.5,3.7,2.2,7.7,2.2,11.9s-0.7,8.3-2.2,11.9
											c-1.5,3.7-3.5,6.9-6.2,9.6c-2.6,2.7-5.8,4.8-9.5,6.4C436.7,265.1,432.7,265.9,428.3,265.9z M428.3,258.6
											c3.3,0,6.3-0.6,8.9-1.8c2.7-1.2,4.9-2.9,6.8-4.9c1.9-2.1,3.4-4.5,4.4-7.3s1.5-5.8,1.5-8.9s-0.5-6.1-1.5-8.9
											c-1-2.8-2.5-5.2-4.4-7.3s-4.2-3.7-6.8-4.9c-2.7-1.2-5.6-1.8-8.9-1.8s-6.3,0.6-8.9,1.8c-2.7,1.2-4.9,2.9-6.8,4.9
											c-1.9,2.1-3.4,4.5-4.4,7.3s-1.5,5.8-1.5,8.9s0.5,6.1,1.5,8.9c1,2.8,2.5,5.2,4.4,7.3s4.2,3.7,6.8,4.9
											C422,258,425,258.6,428.3,258.6z"/>
									</g>
									<g>
										<g>
											<defs>
												<path id="SVGID_33_" d="M485,207h7.1l24.6,57.5h-9.1l-5.8-14.2h-27.4l-7.1,14.2h-9.1L485,207z M499,243.4L488.3,217
													h-0.2l-10.9,26.4H499z"/>
											</defs>
											<clipPath id="SVGID_34_">
												<use xlink:href="#SVGID_33_"  style="overflow:visible;"/>
											</clipPath>
											<g class="st20">
												<g>
													<defs>
														<rect id="SVGID_35_" x="-545.2" y="26.3" width="1214.6" height="353.4"/>
													</defs>
													<clipPath id="SVGID_36_">
														<use xlink:href="#SVGID_35_"  style="overflow:visible;"/>
													</clipPath>
													<rect x="454" y="202.7" class="st21" width="66.9" height="65.9"/>
												</g>
											</g>
										</g>
									</g>
									<g>
										<path class="st9" d="M485,207h7.1l24.6,57.5h-9.1l-5.8-14.2h-27.4l-7.1,14.2h-9.1L485,207z M499,243.4L488.3,217h-0.2
											l-10.9,26.4H499z"/>
									</g>
									<g>
										<g>
											<defs>
												<path id="SVGID_37_" d="M520.4,207h20.1c4.1,0,7.6,0.5,10.7,1.4c3.1,0.9,5.7,2.2,8,3.7c2.2,1.5,4.1,3.3,5.6,5.3
													s2.7,4.1,3.5,6.2c0.9,2.1,1.5,4.2,1.9,6.3s0.6,4.1,0.6,5.8c0,3.7-0.7,7.2-2,10.7c-1.4,3.4-3.4,6.5-6,9.2
													c-2.7,2.7-5.9,4.8-9.9,6.5c-3.9,1.6-8.5,2.4-13.6,2.4h-18.8L520.4,207L520.4,207z M528.2,257.1h9.8
													c3.3,0,6.4-0.4,9.4-1.3c2.9-0.9,5.5-2.2,7.8-4c2.2-1.8,4-4,5.3-6.7s1.9-5.8,1.9-9.4c0-1.8-0.3-4-0.9-6.5
													c-0.6-2.5-1.7-4.8-3.4-7s-3.9-4.1-6.9-5.6c-2.9-1.5-6.7-2.3-11.4-2.3h-11.7v42.8H528.2z"/>
											</defs>
											<clipPath id="SVGID_38_">
												<use xlink:href="#SVGID_37_"  style="overflow:visible;"/>
											</clipPath>
											<g class="st22">
												<g>
													<defs>
														<rect id="SVGID_39_" x="-545.2" y="26.3" width="1214.6" height="353.4"/>
													</defs>
													<clipPath id="SVGID_40_">
														<use xlink:href="#SVGID_39_"  style="overflow:visible;"/>
													</clipPath>
													<rect x="516.2" y="202.7" class="st23" width="58.7" height="65.9"/>
												</g>
											</g>
										</g>
									</g>
									<g>
										<path class="st9" d="M520.4,207h20.1c4.1,0,7.6,0.5,10.7,1.4c3.1,0.9,5.7,2.2,8,3.7c2.2,1.5,4.1,3.3,5.6,5.3
											s2.7,4.1,3.5,6.2c0.9,2.1,1.5,4.2,1.9,6.3s0.6,4.1,0.6,5.8c0,3.7-0.7,7.2-2,10.7c-1.4,3.4-3.4,6.5-6,9.2
											c-2.7,2.7-5.9,4.8-9.9,6.5c-3.9,1.6-8.5,2.4-13.6,2.4h-18.8L520.4,207L520.4,207z M528.2,257.1h9.8c3.3,0,6.4-0.4,9.4-1.3
											c2.9-0.9,5.5-2.2,7.8-4c2.2-1.8,4-4,5.3-6.7s1.9-5.8,1.9-9.4c0-1.8-0.3-4-0.9-6.5c-0.6-2.5-1.7-4.8-3.4-7
											s-3.9-4.1-6.9-5.6c-2.9-1.5-6.7-2.3-11.4-2.3h-11.7v42.8H528.2z"/>
									</g>
									<g>
										<g>
											<defs>
												<path id="SVGID_41_" d="M574.2,206.5c2,0,3.6,1.6,3.6,3.7c0,2.1-1.6,3.7-3.6,3.7s-3.6-1.6-3.6-3.7
													C570.7,208.1,572.3,206.5,574.2,206.5z M574.2,213.3c1.7,0,3-1.4,3-3.1c0-1.8-1.3-3.1-3-3.1s-3,1.4-3,3.1
													C571.3,212,572.6,213.3,574.2,213.3z M573,208.2h1.4c0.7,0,1.2,0.5,1.2,1.2c0,0.6-0.4,1-0.7,1l0,0c0,0,0,0.1,0.1,0.2
													l0.8,1.5h-0.6l-0.8-1.6h-0.8v1.6H573V208.2z M574.4,210.1c0.4,0,0.7-0.3,0.7-0.7s-0.3-0.7-0.7-0.7h-0.7v1.4H574.4z"/>
											</defs>
											<clipPath id="SVGID_42_">
												<use xlink:href="#SVGID_41_"  style="overflow:visible;"/>
											</clipPath>
											<g class="st24">
												<rect x="566.5" y="202.3" class="st25" width="15.6" height="15.8"/>
											</g>
										</g>
									</g>
								</g>
							</g>
						</g>
					</g>
				</g>
			</g>
		</g>
	</g>
</g>
</svg>
