<?xml version="1.0" encoding="utf-8"?>
<svg width="14px" height="13px" viewBox="0 0 14 13" version="1.1" xmlns="http://www.w3.org/2000/svg" xmlns:xlink="http://www.w3.org/1999/xlink">
  <title>audio</title>
  <defs>
    <polygon id="path-1" points="0.14234407 0.0521177545 2.78176316 0.0521177545 2.78176316 9.21085789 0.14234407 9.21085789"></polygon>
    <polygon id="path-3" points="0 0.0523886502 8.28560526 0.0523886502 8.28560526 12.5263158 0 12.5263158"></polygon>
  </defs>
  <g id="Page-1" stroke="none" stroke-width="1" fill="none" fill-rule="evenodd">
    <g id="Bio-overview" transform="translate(-1030.000000, -741.000000)">
      <g id="actions" transform="translate(1028.000000, 733.000000)">
        <g id="audio" transform="translate(2.000000, 8.000000)">
          <path d="M9.95733421,9.29268421 C9.83704474,9.29268421 9.71657105,9.24681579 9.62483421,9.15507895 C9.44117632,8.97142105 9.44117632,8.67373684 9.62483421,8.49007895 C10.76565,7.34926316 10.76565,5.49315789 9.62483421,4.35252632 C9.44117632,4.16886842 9.44117632,3.871 9.62483421,3.68734211 C9.80849211,3.50386842 10.1061763,3.50386842 10.2898342,3.68734211 C11.7970447,5.19492105 11.7970447,7.6475 10.2898342,9.15489474 C10.1980974,9.24681579 10.0776237,9.29268421 9.95733421,9.29268421" id="Fill-1" fill="#1A171B"></path>
          <g id="Group-5" transform="translate(11.052632, 1.789734)">
            <mask id="mask-2" fill="white">
              <use xlink:href="#path-1"></use>
            </mask>
            <g id="Clip-4"></g>
            <path d="M0.612610526,9.21085789 C0.492321053,9.21085789 0.371847368,9.16480526 0.280110526,9.07306842 C0.0964526316,8.88941053 0.0964526316,8.59191053 0.279926316,8.40825263 C2.36242632,6.32575263 2.36242632,2.9372 0.279926316,0.854884211 C0.0964526316,0.671226316 0.0964526316,0.373357895 0.280110526,0.1897 C0.463768421,0.00622631579 0.761636842,0.00622631579 0.945110526,0.189884211 C3.39418947,2.63896316 3.39418947,6.62398947 0.945110526,9.07306842 C0.853373684,9.16480526 0.732715789,9.21085789 0.612610526,9.21085789" id="Fill-3" fill="#1A171B" mask="url(#mask-2)"></path>
          </g>
          <path d="M7.98983684,6.42122895 C7.98983684,6.66088684 7.79549474,6.85504474 7.55602105,6.85504474 C7.31636316,6.85504474 7.12202105,6.66088684 7.12202105,6.42122895 C7.12202105,6.18157105 7.31636316,5.98741316 7.55602105,5.98741316 C7.79549474,5.98741316 7.98983684,6.18157105 7.98983684,6.42122895" id="Fill-6" fill="#1A171B"></path>
          <g id="Group-10" transform="translate(0.000000, 0.131839)">
            <mask id="mask-4" fill="white">
              <use xlink:href="#path-3"></use>
            </mask>
            <g id="Clip-9"></g>
            <path d="M7.37173684,0.189939474 L3.157,3.88428158 L0.761526316,3.88428158 C0.342815789,3.88428158 0,4.22691316 0,4.64580789 L0,7.93286053 C0,8.35193947 0.342815789,8.69457105 0.761526316,8.69457105 L3.157,8.69457105 L7.37173684,12.3887289 C7.72781579,12.7007816 8.28560526,12.4478605 8.28560526,11.9746237 L8.28560526,0.604228947 C8.28560526,0.130807895 7.72781579,-0.121928947 7.37173684,0.189939474" id="Fill-8" fill="#1A171B" mask="url(#mask-4)"></path>
          </g>
        </g>
      </g>
    </g>
  </g>
</svg>